<?xml version="1.0" encoding="UTF-8" standalone="no"?>
<!DOCTYPE svg PUBLIC "-//W3C//DTD SVG 1.1//EN"
 "http://www.w3.org/Graphics/SVG/1.1/DTD/svg11.dtd">
<!-- Generated by graphviz version 2.38.0 (20140413.2041)
 -->
<!-- Title: Framework/include/QualityControl/CheckRunner.h Pages: 1 -->
<svg width="1861pt" height="274pt"
 viewBox="0.00 0.00 1860.50 274.00" xmlns="http://www.w3.org/2000/svg" xmlns:xlink="http://www.w3.org/1999/xlink">
<g id="graph0" class="graph" transform="scale(1 1) rotate(0) translate(4 270)">
<title>Framework/include/QualityControl/CheckRunner.h</title>
<!-- Node1 -->
<g id="node1" class="node"><title>Node1</title>
<polygon fill="#bfbfbf" stroke="black" points="920.5,-235.5 920.5,-265.5 1053.5,-265.5 1053.5,-235.5 920.5,-235.5"/>
<text text-anchor="start" x="928.5" y="-253.5" font-family="Helvetica,sans-Serif" font-size="10.00">Framework/include/Quality</text>
<text text-anchor="middle" x="987" y="-242.5" font-family="Helvetica,sans-Serif" font-size="10.00">Control/CheckRunner.h</text>
</g>
<!-- Node2 -->
<g id="node2" class="node"><title>Node2</title>
<polygon fill="none" stroke="#bfbfbf" points="0,-174 0,-193 46,-193 46,-174 0,-174"/>
<text text-anchor="middle" x="23" y="-181" font-family="Helvetica,sans-Serif" font-size="10.00">chrono</text>
</g>
<!-- Node1&#45;&gt;Node2 -->
<g id="edge1" class="edge"><title>Node1&#45;&gt;Node2</title>
<path fill="none" stroke="midnightblue" d="M920.389,-248.619C736.456,-245.751 224.293,-234.699 60,-199 56.9956,-198.347 53.9161,-197.482 50.8785,-196.499"/>
<polygon fill="midnightblue" stroke="midnightblue" points="52.0562,-193.203 41.4623,-193.069 49.6602,-199.78 52.0562,-193.203"/>
</g>
<!-- Node3 -->
<g id="node3" class="node"><title>Node3</title>
<polygon fill="none" stroke="#bfbfbf" points="420,-112.5 420,-131.5 472,-131.5 472,-112.5 420,-112.5"/>
<text text-anchor="middle" x="446" y="-119.5" font-family="Helvetica,sans-Serif" font-size="10.00">memory</text>
</g>
<!-- Node1&#45;&gt;Node3 -->
<g id="edge2" class="edge"><title>Node1&#45;&gt;Node3</title>
<path fill="none" stroke="midnightblue" d="M920.319,-243.636C851.738,-236.647 742.223,-222.812 650,-199 585.67,-182.39 513.496,-152.755 474.584,-135.815"/>
<polygon fill="midnightblue" stroke="midnightblue" points="475.542,-132.413 464.979,-131.597 472.727,-138.822 475.542,-132.413"/>
</g>
<!-- Node4 -->
<g id="node4" class="node"><title>Node4</title>
<polygon fill="none" stroke="#bfbfbf" points="451.5,-0.5 451.5,-19.5 492.5,-19.5 492.5,-0.5 451.5,-0.5"/>
<text text-anchor="middle" x="472" y="-7.5" font-family="Helvetica,sans-Serif" font-size="10.00">string</text>
</g>
<!-- Node1&#45;&gt;Node4 -->
<g id="edge3" class="edge"><title>Node1&#45;&gt;Node4</title>
<path fill="none" stroke="midnightblue" d="M920.437,-248.912C741.074,-246.818 257.136,-237.612 197,-199 143.299,-164.519 133.901,-95.5319 184,-56 194.061,-48.0611 368.578,-24.5035 440.947,-15.0209"/>
<polygon fill="midnightblue" stroke="midnightblue" points="441.786,-18.4412 451.248,-13.6759 440.879,-11.5001 441.786,-18.4412"/>
</g>
<!-- Node5 -->
<g id="node5" class="node"><title>Node5</title>
<polygon fill="none" stroke="#bfbfbf" points="970.5,-0.5 970.5,-19.5 1005.5,-19.5 1005.5,-0.5 970.5,-0.5"/>
<text text-anchor="middle" x="988" y="-7.5" font-family="Helvetica,sans-Serif" font-size="10.00">map</text>
</g>
<!-- Node1&#45;&gt;Node5 -->
<g id="edge4" class="edge"><title>Node1&#45;&gt;Node5</title>
<path fill="none" stroke="midnightblue" d="M994.122,-235.423C1005.06,-214.381 1026.08,-176.301 1039,-168 1136.04,-105.661 1220.31,-219.029 1296,-132 1376.97,-38.8975 1105.3,-16.8475 1015.7,-12.1599"/>
<polygon fill="midnightblue" stroke="midnightblue" points="1015.87,-8.66414 1005.71,-11.6707 1015.52,-15.6558 1015.87,-8.66414"/>
</g>
<!-- Node6 -->
<g id="node6" class="node"><title>Node6</title>
<polygon fill="none" stroke="#bfbfbf" points="490,-112.5 490,-131.5 534,-131.5 534,-112.5 490,-112.5"/>
<text text-anchor="middle" x="512" y="-119.5" font-family="Helvetica,sans-Serif" font-size="10.00">vector</text>
</g>
<!-- Node1&#45;&gt;Node6 -->
<g id="edge5" class="edge"><title>Node1&#45;&gt;Node6</title>
<path fill="none" stroke="midnightblue" d="M920.331,-236.726C873.528,-227.35 809.616,-213.728 754,-199 677.815,-178.826 589.88,-149.716 543.856,-134.024"/>
<polygon fill="midnightblue" stroke="midnightblue" points="544.751,-130.63 534.156,-130.703 542.484,-137.253 544.751,-130.63"/>
</g>
<!-- Node7 -->
<g id="node7" class="node"><title>Node7</title>
<polygon fill="none" stroke="#bfbfbf" points="1091,-174 1091,-193 1169,-193 1169,-174 1091,-174"/>
<text text-anchor="middle" x="1130" y="-181" font-family="Helvetica,sans-Serif" font-size="10.00">unordered_set</text>
</g>
<!-- Node1&#45;&gt;Node7 -->
<g id="edge6" class="edge"><title>Node1&#45;&gt;Node7</title>
<path fill="none" stroke="midnightblue" d="M1018.03,-235.396C1043.01,-224.041 1077.82,-208.22 1101.96,-197.244"/>
<polygon fill="midnightblue" stroke="midnightblue" points="1103.63,-200.331 1111.28,-193.007 1100.73,-193.959 1103.63,-200.331"/>
</g>
<!-- Node8 -->
<g id="node8" class="node"><title>Node8</title>
<polygon fill="none" stroke="#bfbfbf" points="1187,-174 1187,-193 1279,-193 1279,-174 1187,-174"/>
<text text-anchor="middle" x="1233" y="-181" font-family="Helvetica,sans-Serif" font-size="10.00">Common/Timer.h</text>
</g>
<!-- Node1&#45;&gt;Node8 -->
<g id="edge7" class="edge"><title>Node1&#45;&gt;Node8</title>
<path fill="none" stroke="midnightblue" d="M1040.08,-235.476C1085.22,-223.547 1149.19,-206.644 1190.89,-195.628"/>
<polygon fill="midnightblue" stroke="midnightblue" points="1191.95,-198.967 1200.72,-193.029 1190.16,-192.199 1191.95,-198.967"/>
</g>
<!-- Node9 -->
<g id="node9" class="node"><title>Node9</title>
<polygon fill="none" stroke="#bfbfbf" points="1297,-174 1297,-193 1395,-193 1395,-174 1297,-174"/>
<text text-anchor="middle" x="1346" y="-181" font-family="Helvetica,sans-Serif" font-size="10.00">Framework/Task.h</text>
</g>
<!-- Node1&#45;&gt;Node9 -->
<g id="edge8" class="edge"><title>Node1&#45;&gt;Node9</title>
<path fill="none" stroke="midnightblue" d="M1053.64,-239.861C1114.82,-230.647 1207.86,-215.713 1288,-199 1293.14,-197.928 1298.51,-196.714 1303.82,-195.455"/>
<polygon fill="midnightblue" stroke="midnightblue" points="1305,-198.771 1313.89,-193.006 1303.35,-191.969 1305,-198.771"/>
</g>
<!-- Node10 -->
<g id="node10" class="node"><title>Node10</title>
<polygon fill="none" stroke="#bfbfbf" points="1413.5,-174 1413.5,-193 1530.5,-193 1530.5,-174 1413.5,-174"/>
<text text-anchor="middle" x="1472" y="-181" font-family="Helvetica,sans-Serif" font-size="10.00">Headers/DataHeader.h</text>
</g>
<!-- Node1&#45;&gt;Node10 -->
<g id="edge9" class="edge"><title>Node1&#45;&gt;Node10</title>
<path fill="none" stroke="midnightblue" d="M1053.71,-243.282C1136.26,-235.159 1281,-219.52 1404,-199 1410.8,-197.866 1417.95,-196.516 1424.96,-195.103"/>
<polygon fill="midnightblue" stroke="midnightblue" points="1425.98,-198.465 1435.06,-193.006 1424.56,-191.611 1425.98,-198.465"/>
</g>
<!-- Node11 -->
<g id="node11" class="node"><title>Node11</title>
<polygon fill="none" stroke="#bfbfbf" points="1548.5,-174 1548.5,-193 1699.5,-193 1699.5,-174 1548.5,-174"/>
<text text-anchor="middle" x="1624" y="-181" font-family="Helvetica,sans-Serif" font-size="10.00">Monitoring/MonitoringFactory.h</text>
</g>
<!-- Node1&#45;&gt;Node11 -->
<g id="edge10" class="edge"><title>Node1&#45;&gt;Node11</title>
<path fill="none" stroke="midnightblue" d="M1053.59,-245.145C1157.66,-237.949 1365.09,-222.046 1540,-199 1549.16,-197.793 1558.85,-196.313 1568.26,-194.764"/>
<polygon fill="midnightblue" stroke="midnightblue" points="1569.05,-198.181 1578.33,-193.066 1567.88,-191.278 1569.05,-198.181"/>
</g>
<!-- Node12 -->
<g id="node12" class="node"><title>Node12</title>
<polygon fill="none" stroke="#bfbfbf" points="1717.5,-168.5 1717.5,-198.5 1852.5,-198.5 1852.5,-168.5 1717.5,-168.5"/>
<text text-anchor="start" x="1725.5" y="-186.5" font-family="Helvetica,sans-Serif" font-size="10.00">Configuration/Configuration</text>
<text text-anchor="middle" x="1785" y="-175.5" font-family="Helvetica,sans-Serif" font-size="10.00">Interface.h</text>
</g>
<!-- Node1&#45;&gt;Node12 -->
<g id="edge11" class="edge"><title>Node1&#45;&gt;Node12</title>
<path fill="none" stroke="midnightblue" d="M1053.96,-247.471C1180.01,-243.073 1461.3,-230.509 1706.92,-199.18"/>
<polygon fill="midnightblue" stroke="midnightblue" points="1707.64,-202.616 1717.11,-197.866 1706.75,-195.673 1707.64,-202.616"/>
</g>
<!-- Node13 -->
<g id="node13" class="node"><title>Node13</title>
<polygon fill="none" stroke="#bfbfbf" points="1123,-112.5 1123,-131.5 1287,-131.5 1287,-112.5 1123,-112.5"/>
<text text-anchor="middle" x="1205" y="-119.5" font-family="Helvetica,sans-Serif" font-size="10.00">Framework/DataProcessorSpec.h</text>
</g>
<!-- Node1&#45;&gt;Node13 -->
<g id="edge12" class="edge"><title>Node1&#45;&gt;Node13</title>
<path fill="none" stroke="midnightblue" d="M987.063,-235.191C987.952,-216.932 992.329,-185.61 1011,-168 1027.84,-152.115 1080.16,-140.534 1126.22,-133.102"/>
<polygon fill="midnightblue" stroke="midnightblue" points="1126.9,-136.538 1136.24,-131.533 1125.82,-129.622 1126.9,-136.538"/>
</g>
<!-- Node14 -->
<g id="node14" class="node"><title>Node14</title>
<g id="a_node14"><a xlink:href="CheckInterface_8h.html" target="_top" xlink:title="QualityControl/CheckInterface.h">
<polygon fill="none" stroke="black" points="909.5,-112.5 909.5,-131.5 1066.5,-131.5 1066.5,-112.5 909.5,-112.5"/>
<text text-anchor="middle" x="988" y="-119.5" font-family="Helvetica,sans-Serif" font-size="10.00">QualityControl/CheckInterface.h</text>
</a>
</g>
</g>
<!-- Node1&#45;&gt;Node14 -->
<g id="edge13" class="edge"><title>Node1&#45;&gt;Node14</title>
<path fill="none" stroke="midnightblue" d="M981.897,-235.133C978.629,-225.143 974.693,-211.441 973,-199 971.143,-185.348 970.793,-181.6 973,-168 974.468,-158.957 977.492,-149.275 980.444,-141.218"/>
<polygon fill="midnightblue" stroke="midnightblue" points="983.763,-142.339 984.144,-131.751 977.244,-139.791 983.763,-142.339"/>
</g>
<!-- Node17 -->
<g id="node17" class="node"><title>Node17</title>
<g id="a_node17"><a xlink:href="MonitorObject_8h.html" target="_top" xlink:title="QualityControl/MonitorObject.h">
<polygon fill="none" stroke="black" points="333.5,-56.5 333.5,-75.5 484.5,-75.5 484.5,-56.5 333.5,-56.5"/>
<text text-anchor="middle" x="409" y="-63.5" font-family="Helvetica,sans-Serif" font-size="10.00">QualityControl/MonitorObject.h</text>
</a>
</g>
</g>
<!-- Node1&#45;&gt;Node17 -->
<g id="edge39" class="edge"><title>Node1&#45;&gt;Node17</title>
<path fill="none" stroke="midnightblue" d="M920.489,-248.012C771.265,-244.126 413.809,-231.615 298,-199 235.434,-181.379 201.834,-187.5 168,-132 163.373,-124.41 162.321,-118.838 168,-112 178.428,-99.4451 262.868,-85.7813 328.892,-76.8439"/>
<polygon fill="midnightblue" stroke="midnightblue" points="329.454,-80.3 338.902,-75.5057 328.526,-73.3618 329.454,-80.3"/>
</g>
<!-- Node21 -->
<g id="node21" class="node"><title>Node21</title>
<g id="a_node21"><a xlink:href="DatabaseInterface_8h.html" target="_top" xlink:title="QualityControl/DatabaseInterface.h">
<polygon fill="none" stroke="black" points="307,-174 307,-193 477,-193 477,-174 307,-174"/>
<text text-anchor="middle" x="392" y="-181" font-family="Helvetica,sans-Serif" font-size="10.00">QualityControl/DatabaseInterface.h</text>
</a>
</g>
</g>
<!-- Node1&#45;&gt;Node21 -->
<g id="edge27" class="edge"><title>Node1&#45;&gt;Node21</title>
<path fill="none" stroke="midnightblue" d="M920.478,-242.233C812.78,-230.468 600.214,-207.246 480.082,-194.122"/>
<polygon fill="midnightblue" stroke="midnightblue" points="480.14,-190.608 469.819,-193.001 479.379,-197.567 480.14,-190.608"/>
</g>
<!-- Node24 -->
<g id="node24" class="node"><title>Node24</title>
<g id="a_node24"><a xlink:href="QcInfoLogger_8h.html" target="_top" xlink:title="QualityControl/QcInfoLogger.h">
<polygon fill="none" stroke="black" points="1342.5,-112.5 1342.5,-131.5 1491.5,-131.5 1491.5,-112.5 1342.5,-112.5"/>
<text text-anchor="middle" x="1417" y="-119.5" font-family="Helvetica,sans-Serif" font-size="10.00">QualityControl/QcInfoLogger.h</text>
</a>
</g>
</g>
<!-- Node1&#45;&gt;Node24 -->
<g id="edge40" class="edge"><title>Node1&#45;&gt;Node24</title>
<path fill="none" stroke="midnightblue" d="M1001.34,-235.382C1023.11,-214.284 1063.86,-176.131 1082,-168 1104.39,-157.967 1240.48,-141.839 1332.17,-131.861"/>
<polygon fill="midnightblue" stroke="midnightblue" points="1332.72,-135.322 1342.29,-130.765 1331.97,-128.362 1332.72,-135.322"/>
</g>
<!-- Node26 -->
<g id="node26" class="node"><title>Node26</title>
<g id="a_node26"><a xlink:href="Check_8h_source.html" target="_top" xlink:title="QualityControl/Check.h">
<polygon fill="none" stroke="black" points="763.5,-174 763.5,-193 882.5,-193 882.5,-174 763.5,-174"/>
<text text-anchor="middle" x="823" y="-181" font-family="Helvetica,sans-Serif" font-size="10.00">QualityControl/Check.h</text>
</a>
</g>
</g>
<!-- Node1&#45;&gt;Node26 -->
<g id="edge42" class="edge"><title>Node1&#45;&gt;Node26</title>
<path fill="none" stroke="midnightblue" d="M951.414,-235.396C922.384,-223.89 881.781,-207.797 854.052,-196.807"/>
<polygon fill="midnightblue" stroke="midnightblue" points="855.05,-193.438 844.464,-193.007 852.471,-199.945 855.05,-193.438"/>
</g>
<!-- Node14&#45;&gt;Node4 -->
<g id="edge14" class="edge"><title>Node14&#45;&gt;Node4</title>
<path fill="none" stroke="midnightblue" d="M971.555,-112.454C943.522,-98.2882 884.332,-70.1082 831,-56 799.545,-47.6789 583.837,-23.3492 502.736,-14.3754"/>
<polygon fill="midnightblue" stroke="midnightblue" points="502.979,-10.8811 492.656,-13.2624 502.211,-17.8388 502.979,-10.8811"/>
</g>
<!-- Node14&#45;&gt;Node5 -->
<g id="edge15" class="edge"><title>Node14&#45;&gt;Node5</title>
<path fill="none" stroke="midnightblue" d="M988,-112.368C988,-94.617 988,-53.6664 988,-29.5974"/>
<polygon fill="midnightblue" stroke="midnightblue" points="991.5,-29.5914 988,-19.5914 984.5,-29.5915 991.5,-29.5914"/>
</g>
<!-- Node15 -->
<g id="node15" class="node"><title>Node15</title>
<polygon fill="none" stroke="#bfbfbf" points="739.5,-56.5 739.5,-75.5 822.5,-75.5 822.5,-56.5 739.5,-56.5"/>
<text text-anchor="middle" x="781" y="-63.5" font-family="Helvetica,sans-Serif" font-size="10.00">unordered_map</text>
</g>
<!-- Node14&#45;&gt;Node15 -->
<g id="edge16" class="edge"><title>Node14&#45;&gt;Node15</title>
<path fill="none" stroke="midnightblue" d="M955.2,-112.444C919.62,-103.162 862.686,-88.3093 823.653,-78.127"/>
<polygon fill="midnightblue" stroke="midnightblue" points="824.206,-74.6541 813.646,-75.5164 822.439,-81.4274 824.206,-74.6541"/>
</g>
<!-- Node16 -->
<g id="node16" class="node"><title>Node16</title>
<polygon fill="none" stroke="#bfbfbf" points="574,-0.5 574,-19.5 630,-19.5 630,-0.5 574,-0.5"/>
<text text-anchor="middle" x="602" y="-7.5" font-family="Helvetica,sans-Serif" font-size="10.00">Rtypes.h</text>
</g>
<!-- Node14&#45;&gt;Node16 -->
<g id="edge17" class="edge"><title>Node14&#45;&gt;Node16</title>
<path fill="none" stroke="midnightblue" d="M979.179,-112.113C964.301,-97.7124 932.634,-69.5303 900,-56 812.183,-19.5907 698.911,-12.1957 640.551,-10.9703"/>
<polygon fill="midnightblue" stroke="midnightblue" points="640.366,-7.46706 630.312,-10.8077 640.255,-14.4662 640.366,-7.46706"/>
</g>
<!-- Node14&#45;&gt;Node17 -->
<g id="edge18" class="edge"><title>Node14&#45;&gt;Node17</title>
<path fill="none" stroke="midnightblue" d="M909.311,-113.661C801.07,-103.566 606.954,-85.462 494.996,-75.0203"/>
<polygon fill="midnightblue" stroke="midnightblue" points="495.038,-71.5091 484.756,-74.0653 494.387,-78.4789 495.038,-71.5091"/>
</g>
<!-- Node20 -->
<g id="node20" class="node"><title>Node20</title>
<g id="a_node20"><a xlink:href="Quality_8h.html" target="_top" xlink:title="QualityControl/Quality.h">
<polygon fill="none" stroke="black" points="541.5,-56.5 541.5,-75.5 662.5,-75.5 662.5,-56.5 541.5,-56.5"/>
<text text-anchor="middle" x="602" y="-63.5" font-family="Helvetica,sans-Serif" font-size="10.00">QualityControl/Quality.h</text>
</a>
</g>
</g>
<!-- Node14&#45;&gt;Node20 -->
<g id="edge24" class="edge"><title>Node14&#45;&gt;Node20</title>
<path fill="none" stroke="midnightblue" d="M926.837,-112.444C857.705,-102.772 745.343,-87.0532 672.558,-76.8708"/>
<polygon fill="midnightblue" stroke="midnightblue" points="672.947,-73.3913 662.559,-75.4719 671.977,-80.3237 672.947,-73.3913"/>
</g>
<!-- Node17&#45;&gt;Node4 -->
<g id="edge19" class="edge"><title>Node17&#45;&gt;Node4</title>
<path fill="none" stroke="midnightblue" d="M419.122,-56.324C428.526,-48.2631 442.744,-36.0765 454.069,-26.3695"/>
<polygon fill="midnightblue" stroke="midnightblue" points="456.379,-28.9993 461.694,-19.8339 451.823,-23.6844 456.379,-28.9993"/>
</g>
<!-- Node17&#45;&gt;Node5 -->
<g id="edge20" class="edge"><title>Node17&#45;&gt;Node5</title>
<path fill="none" stroke="midnightblue" d="M484.618,-57.3945C489.484,-56.9185 494.311,-56.4502 499,-56 674.523,-39.1479 885.617,-20.1529 960.235,-13.4777"/>
<polygon fill="midnightblue" stroke="midnightblue" points="960.584,-16.9605 970.233,-12.5839 959.961,-9.98826 960.584,-16.9605"/>
</g>
<!-- Node17&#45;&gt;Node16 -->
<g id="edge21" class="edge"><title>Node17&#45;&gt;Node16</title>
<path fill="none" stroke="midnightblue" d="M439.581,-56.4435C473.295,-47.0108 527.569,-31.8252 563.992,-21.6345"/>
<polygon fill="midnightblue" stroke="midnightblue" points="565.072,-24.9666 573.759,-18.9015 563.186,-18.2255 565.072,-24.9666"/>
</g>
<!-- Node18 -->
<g id="node18" class="node"><title>Node18</title>
<polygon fill="none" stroke="#bfbfbf" points="324.5,-0.5 324.5,-19.5 383.5,-19.5 383.5,-0.5 324.5,-0.5"/>
<text text-anchor="middle" x="354" y="-7.5" font-family="Helvetica,sans-Serif" font-size="10.00">TObject.h</text>
</g>
<!-- Node17&#45;&gt;Node18 -->
<g id="edge22" class="edge"><title>Node17&#45;&gt;Node18</title>
<path fill="none" stroke="midnightblue" d="M399.918,-56.083C391.829,-48.1409 379.805,-36.3354 370.09,-26.7973"/>
<polygon fill="midnightblue" stroke="midnightblue" points="372.501,-24.2595 362.913,-19.7511 367.597,-29.2545 372.501,-24.2595"/>
</g>
<!-- Node19 -->
<g id="node19" class="node"><title>Node19</title>
<polygon fill="none" stroke="#bfbfbf" points="146,-0.5 146,-19.5 262,-19.5 262,-0.5 146,-0.5"/>
<text text-anchor="middle" x="204" y="-7.5" font-family="Helvetica,sans-Serif" font-size="10.00">Common/Exceptions.h</text>
</g>
<!-- Node17&#45;&gt;Node19 -->
<g id="edge23" class="edge"><title>Node17&#45;&gt;Node19</title>
<path fill="none" stroke="midnightblue" d="M376.517,-56.4435C341.28,-47.1616 284.896,-32.3093 246.241,-22.127"/>
<polygon fill="midnightblue" stroke="midnightblue" points="246.893,-18.6792 236.331,-19.5164 245.109,-25.4483 246.893,-18.6792"/>
</g>
<!-- Node20&#45;&gt;Node4 -->
<g id="edge26" class="edge"><title>Node20&#45;&gt;Node4</title>
<path fill="none" stroke="midnightblue" d="M581.401,-56.4435C560.007,-47.5566 526.319,-33.5632 501.976,-23.4514"/>
<polygon fill="midnightblue" stroke="midnightblue" points="503.08,-20.1203 492.503,-19.5164 500.395,-26.5848 503.08,-20.1203"/>
</g>
<!-- Node20&#45;&gt;Node16 -->
<g id="edge25" class="edge"><title>Node20&#45;&gt;Node16</title>
<path fill="none" stroke="midnightblue" d="M602,-56.083C602,-49.0059 602,-38.8611 602,-29.9865"/>
<polygon fill="midnightblue" stroke="midnightblue" points="605.5,-29.751 602,-19.7511 598.5,-29.7511 605.5,-29.751"/>
</g>
<!-- Node21&#45;&gt;Node3 -->
<g id="edge29" class="edge"><title>Node21&#45;&gt;Node3</title>
<path fill="none" stroke="midnightblue" d="M399.737,-173.975C407.997,-164.873 421.277,-150.241 431.494,-138.983"/>
<polygon fill="midnightblue" stroke="midnightblue" points="434.149,-141.266 438.277,-131.509 428.965,-136.562 434.149,-141.266"/>
</g>
<!-- Node21&#45;&gt;Node4 -->
<g id="edge28" class="edge"><title>Node21&#45;&gt;Node4</title>
<path fill="none" stroke="midnightblue" d="M306.737,-174.254C251.02,-166.901 185.459,-153.833 168,-132 162.449,-125.058 165.004,-120.369 168,-112 178.858,-81.6761 186.176,-72.2245 214,-56 233.441,-44.6641 377.116,-23.9481 441.244,-15.14"/>
<polygon fill="midnightblue" stroke="midnightblue" points="441.745,-18.6042 451.179,-13.7834 440.798,-11.6686 441.745,-18.6042"/>
</g>
<!-- Node21&#45;&gt;Node6 -->
<g id="edge30" class="edge"><title>Node21&#45;&gt;Node6</title>
<path fill="none" stroke="midnightblue" d="M409.193,-173.975C429.243,-164.034 462.599,-147.495 485.86,-135.961"/>
<polygon fill="midnightblue" stroke="midnightblue" points="487.434,-139.087 494.839,-131.509 484.325,-132.816 487.434,-139.087"/>
</g>
<!-- Node21&#45;&gt;Node15 -->
<g id="edge31" class="edge"><title>Node21&#45;&gt;Node15</title>
<path fill="none" stroke="midnightblue" d="M391.498,-173.524C391.187,-158.315 392.994,-127.611 411,-112 422.879,-101.701 630.017,-81.0996 729.06,-71.7775"/>
<polygon fill="midnightblue" stroke="midnightblue" points="729.526,-75.2493 739.156,-70.8312 728.873,-68.2798 729.526,-75.2493"/>
</g>
<!-- Node21&#45;&gt;Node17 -->
<g id="edge38" class="edge"><title>Node21&#45;&gt;Node17</title>
<path fill="none" stroke="midnightblue" d="M387.476,-173.669C381.176,-160.17 371.253,-133.686 378,-112 381.229,-101.622 387.776,-91.5209 394.025,-83.5268"/>
<polygon fill="midnightblue" stroke="midnightblue" points="396.785,-85.6818 400.517,-75.7661 391.416,-81.1902 396.785,-85.6818"/>
</g>
<!-- Node22 -->
<g id="node22" class="node"><title>Node22</title>
<g id="a_node22"><a xlink:href="QualityObject_8h_source.html" target="_top" xlink:title="QualityControl/QualityObject.h">
<polygon fill="none" stroke="black" points="177.5,-112.5 177.5,-131.5 326.5,-131.5 326.5,-112.5 177.5,-112.5"/>
<text text-anchor="middle" x="252" y="-119.5" font-family="Helvetica,sans-Serif" font-size="10.00">QualityControl/QualityObject.h</text>
</a>
</g>
</g>
<!-- Node21&#45;&gt;Node22 -->
<g id="edge32" class="edge"><title>Node21&#45;&gt;Node22</title>
<path fill="none" stroke="midnightblue" d="M371.941,-173.975C348.238,-163.901 308.594,-147.053 281.417,-135.502"/>
<polygon fill="midnightblue" stroke="midnightblue" points="282.594,-132.199 272.021,-131.509 279.856,-138.642 282.594,-132.199"/>
</g>
<!-- Node22&#45;&gt;Node5 -->
<g id="edge34" class="edge"><title>Node22&#45;&gt;Node5</title>
<path fill="none" stroke="midnightblue" d="M326.721,-112.72C375.053,-105.99 438.827,-94.5087 493,-76 511.433,-69.7021 513.312,-61.4976 532,-56 613.238,-32.1015 874.723,-16.8303 960.478,-12.3652"/>
<polygon fill="midnightblue" stroke="midnightblue" points="960.681,-15.8594 970.489,-11.8517 960.323,-8.86861 960.681,-15.8594"/>
</g>
<!-- Node22&#45;&gt;Node18 -->
<g id="edge35" class="edge"><title>Node22&#45;&gt;Node18</title>
<path fill="none" stroke="midnightblue" d="M260.004,-112.368C277.06,-93.9744 317.214,-50.6712 339.116,-27.0519"/>
<polygon fill="midnightblue" stroke="midnightblue" points="341.8,-29.3039 346.033,-19.5914 336.668,-24.5443 341.8,-29.3039"/>
</g>
<!-- Node22&#45;&gt;Node19 -->
<g id="edge36" class="edge"><title>Node22&#45;&gt;Node19</title>
<path fill="none" stroke="midnightblue" d="M242.159,-112.412C233.271,-104.054 220.606,-90.5196 214,-76 207.418,-61.5316 205.037,-43.5764 204.235,-30.2057"/>
<polygon fill="midnightblue" stroke="midnightblue" points="207.72,-29.7095 203.871,-19.8387 200.724,-29.9556 207.72,-29.7095"/>
</g>
<!-- Node22&#45;&gt;Node20 -->
<g id="edge37" class="edge"><title>Node22&#45;&gt;Node20</title>
<path fill="none" stroke="midnightblue" d="M307.459,-112.444C369.667,-102.846 470.48,-87.2916 536.513,-77.1037"/>
<polygon fill="midnightblue" stroke="midnightblue" points="537.452,-80.5004 546.801,-75.5164 536.384,-73.5823 537.452,-80.5004"/>
</g>
<!-- Node23 -->
<g id="node23" class="node"><title>Node23</title>
<polygon fill="none" stroke="#bfbfbf" points="223,-56.5 223,-75.5 277,-75.5 277,-56.5 223,-56.5"/>
<text text-anchor="middle" x="250" y="-63.5" font-family="Helvetica,sans-Serif" font-size="10.00">iostream</text>
</g>
<!-- Node22&#45;&gt;Node23 -->
<g id="edge33" class="edge"><title>Node22&#45;&gt;Node23</title>
<path fill="none" stroke="midnightblue" d="M251.67,-112.083C251.408,-105.006 251.032,-94.8611 250.703,-85.9865"/>
<polygon fill="midnightblue" stroke="midnightblue" points="254.192,-85.6147 250.324,-75.7511 247.197,-85.8738 254.192,-85.6147"/>
</g>
<!-- Node25 -->
<g id="node25" class="node"><title>Node25</title>
<polygon fill="none" stroke="#bfbfbf" points="1352,-56.5 1352,-75.5 1482,-75.5 1482,-56.5 1352,-56.5"/>
<text text-anchor="middle" x="1417" y="-63.5" font-family="Helvetica,sans-Serif" font-size="10.00">InfoLogger/InfoLogger.hxx</text>
</g>
<!-- Node24&#45;&gt;Node25 -->
<g id="edge41" class="edge"><title>Node24&#45;&gt;Node25</title>
<path fill="none" stroke="midnightblue" d="M1417,-112.083C1417,-105.006 1417,-94.8611 1417,-85.9865"/>
<polygon fill="midnightblue" stroke="midnightblue" points="1420.5,-85.751 1417,-75.7511 1413.5,-85.7511 1420.5,-85.751"/>
</g>
<!-- Node26&#45;&gt;Node3 -->
<g id="edge46" class="edge"><title>Node26&#45;&gt;Node3</title>
<path fill="none" stroke="midnightblue" d="M763.359,-175.623C696.994,-167.539 586.43,-152.788 482.355,-132.101"/>
<polygon fill="midnightblue" stroke="midnightblue" points="482.799,-128.62 472.305,-130.08 481.419,-135.482 482.799,-128.62"/>
</g>
<!-- Node26&#45;&gt;Node5 -->
<g id="edge44" class="edge"><title>Node26&#45;&gt;Node5</title>
<path fill="none" stroke="midnightblue" d="M882.781,-179.083C949.731,-173.862 1052.03,-161.221 1076,-132 1106.39,-94.9418 1047.26,-48.446 1011.86,-25.3678"/>
<polygon fill="midnightblue" stroke="midnightblue" points="1013.35,-22.1624 1003.02,-19.7653 1009.6,-28.0749 1013.35,-22.1624"/>
</g>
<!-- Node26&#45;&gt;Node6 -->
<g id="edge45" class="edge"><title>Node26&#45;&gt;Node6</title>
<path fill="none" stroke="midnightblue" d="M771.107,-173.98C715.673,-164.642 625.329,-148.749 548,-132 546.725,-131.724 545.426,-131.435 544.116,-131.137"/>
<polygon fill="midnightblue" stroke="midnightblue" points="544.571,-127.648 534.033,-128.743 542.954,-134.459 544.571,-127.648"/>
</g>
<!-- Node26&#45;&gt;Node13 -->
<g id="edge48" class="edge"><title>Node26&#45;&gt;Node13</title>
<path fill="none" stroke="midnightblue" d="M877.731,-173.975C947.087,-163.172 1066.46,-144.578 1140.27,-133.083"/>
<polygon fill="midnightblue" stroke="midnightblue" points="1141.03,-136.507 1150.37,-131.509 1139.95,-129.59 1141.03,-136.507"/>
</g>
<!-- Node26&#45;&gt;Node14 -->
<g id="edge52" class="edge"><title>Node26&#45;&gt;Node14</title>
<path fill="none" stroke="midnightblue" d="M846.64,-173.975C874.944,-163.769 922.533,-146.608 954.586,-135.049"/>
<polygon fill="midnightblue" stroke="midnightblue" points="956.184,-138.194 964.403,-131.509 953.809,-131.609 956.184,-138.194"/>
</g>
<!-- Node26&#45;&gt;Node15 -->
<g id="edge47" class="edge"><title>Node26&#45;&gt;Node15</title>
<path fill="none" stroke="midnightblue" d="M833.641,-173.929C848.908,-160.552 873.846,-133.964 861,-112 852.139,-96.8495 836.095,-86.406 820.688,-79.4236"/>
<polygon fill="midnightblue" stroke="midnightblue" points="821.825,-76.1064 811.247,-75.5122 819.146,-82.5733 821.825,-76.1064"/>
</g>
<!-- Node26&#45;&gt;Node17 -->
<g id="edge51" class="edge"><title>Node26&#45;&gt;Node17</title>
<path fill="none" stroke="midnightblue" d="M780.715,-173.997C736.385,-164.792 664.849,-149.115 604,-132 596.057,-129.766 497.773,-96.8204 443.857,-78.7144"/>
<polygon fill="midnightblue" stroke="midnightblue" points="444.932,-75.3833 434.338,-75.5171 442.703,-82.019 444.932,-75.3833"/>
</g>
<!-- Node26&#45;&gt;Node20 -->
<g id="edge49" class="edge"><title>Node26&#45;&gt;Node20</title>
<path fill="none" stroke="midnightblue" d="M763.46,-174.593C710.806,-166.416 639.288,-152.023 619,-132 606.816,-119.975 603.014,-100.374 601.989,-85.8358"/>
<polygon fill="midnightblue" stroke="midnightblue" points="605.476,-85.3851 601.654,-75.5036 598.48,-85.6117 605.476,-85.3851"/>
</g>
<!-- Node26&#45;&gt;Node22 -->
<g id="edge50" class="edge"><title>Node26&#45;&gt;Node22</title>
<path fill="none" stroke="midnightblue" d="M763.241,-176.273C661.256,-165.646 453.329,-143.979 336.509,-131.806"/>
<polygon fill="midnightblue" stroke="midnightblue" points="336.841,-128.322 326.532,-130.766 336.115,-135.284 336.841,-128.322"/>
</g>
<!-- Node26&#45;&gt;Node24 -->
<g id="edge53" class="edge"><title>Node26&#45;&gt;Node24</title>
<path fill="none" stroke="midnightblue" d="M882.675,-176.522C988.695,-165.903 1210.18,-143.717 1332.06,-131.508"/>
<polygon fill="midnightblue" stroke="midnightblue" points="1332.5,-134.982 1342.1,-130.503 1331.8,-128.017 1332.5,-134.982"/>
</g>
<!-- Node27 -->
<g id="node27" class="node"><title>Node27</title>
<polygon fill="none" stroke="#bfbfbf" points="793.5,-112.5 793.5,-131.5 852.5,-131.5 852.5,-112.5 793.5,-112.5"/>
<text text-anchor="middle" x="823" y="-119.5" font-family="Helvetica,sans-Serif" font-size="10.00">functional</text>
</g>
<!-- Node26&#45;&gt;Node27 -->
<g id="edge43" class="edge"><title>Node26&#45;&gt;Node27</title>
<path fill="none" stroke="midnightblue" d="M823,-173.975C823,-165.58 823,-152.481 823,-141.663"/>
<polygon fill="midnightblue" stroke="midnightblue" points="826.5,-141.509 823,-131.509 819.5,-141.509 826.5,-141.509"/>
</g>
<!-- Node28 -->
<g id="node28" class="node"><title>Node28</title>
<g id="a_node28"><a xlink:href="CheckConfig_8h.html" target="_top" xlink:title="QualityControl/CheckConfig.h">
<polygon fill="none" stroke="black" points="628.5,-112.5 628.5,-131.5 775.5,-131.5 775.5,-112.5 628.5,-112.5"/>
<text text-anchor="middle" x="702" y="-119.5" font-family="Helvetica,sans-Serif" font-size="10.00">QualityControl/CheckConfig.h</text>
</a>
</g>
</g>
<!-- Node26&#45;&gt;Node28 -->
<g id="edge54" class="edge"><title>Node26&#45;&gt;Node28</title>
<path fill="none" stroke="midnightblue" d="M805.664,-173.975C785.447,-164.034 751.813,-147.495 728.358,-135.961"/>
<polygon fill="midnightblue" stroke="midnightblue" points="729.822,-132.781 719.304,-131.509 726.733,-139.063 729.822,-132.781"/>
</g>
<!-- Node28&#45;&gt;Node4 -->
<g id="edge55" class="edge"><title>Node28&#45;&gt;Node4</title>
<path fill="none" stroke="midnightblue" d="M700.389,-112.334C697.3,-98.251 689.168,-70.5151 671,-56 645.283,-35.4537 552.013,-21.0216 502.836,-14.6558"/>
<polygon fill="midnightblue" stroke="midnightblue" points="503.127,-11.1648 492.767,-13.3856 502.251,-18.1098 503.127,-11.1648"/>
</g>
<!-- Node28&#45;&gt;Node15 -->
<g id="edge56" class="edge"><title>Node28&#45;&gt;Node15</title>
<path fill="none" stroke="midnightblue" d="M714.693,-112.324C726.901,-103.979 745.578,-91.2122 760.003,-81.3524"/>
<polygon fill="midnightblue" stroke="midnightblue" points="762.058,-84.1871 768.339,-75.6545 758.108,-78.4082 762.058,-84.1871"/>
</g>
</g>
</svg>
