<?xml version="1.0" encoding="UTF-8" standalone="no"?>
<!DOCTYPE svg PUBLIC "-//W3C//DTD SVG 1.1//EN"
 "http://www.w3.org/Graphics/SVG/1.1/DTD/svg11.dtd">
<!-- Generated by graphviz version 2.38.0 (20140413.2041)
 -->
<!-- Title: Framework/src/CheckRunnerFactory.cxx Pages: 1 -->
<!--zoomable 341 -->
<svg id="main" version="1.1" xmlns="http://www.w3.org/2000/svg" xmlns:xlink="http://www.w3.org/1999/xlink" xml:space="preserve" onload="init(evt)">
<style type="text/css"><![CDATA[
.edge:hover path { stroke: red; }
.edge:hover polygon { stroke: red; fill: red; }
]]></style>
<script type="text/javascript"><![CDATA[
var edges = document.getElementsByTagName('g');
if (edges && edges.length) {
  for (var i=0;i<edges.length;i++) {
    if (edges[i].id.substr(0,4)=='edge') {
      edges[i].setAttribute('class','edge');
    }
  }
}
]]></script>
        <defs>
                <circle id="rim" cx="0" cy="0" r="7"/>
                <circle id="rim2" cx="0" cy="0" r="3.5"/>
                <g id="zoomPlus">
                        <use xlink:href="#rim" fill="#404040">
                                <set attributeName="fill" to="#808080" begin="zoomplus.mouseover" end="zoomplus.mouseout"/>
                        </use>
                        <path d="M-4,0h8M0,-4v8" fill="none" stroke="white" stroke-width="1.5" pointer-events="none"/>
                </g>
                <g id="zoomMin">
                        <use xlink:href="#rim" fill="#404040">
                                <set attributeName="fill" to="#808080" begin="zoomminus.mouseover" end="zoomminus.mouseout"/>
                        </use>
                        <path d="M-4,0h8" fill="none" stroke="white" stroke-width="1.5" pointer-events="none"/>
                </g>
                <g id="dirArrow">
                        <path fill="none" stroke="white" stroke-width="1.5" d="M0,-3.0v7 M-2.5,-0.5L0,-3.0L2.5,-0.5"/>
                </g>
               <g id="resetDef">
                       <use xlink:href="#rim2" fill="#404040">
                               <set attributeName="fill" to="#808080" begin="reset.mouseover" end="reset.mouseout"/>
                       </use>
               </g>
        </defs>

<script type="text/javascript">
var viewWidth = 1893;
var viewHeight = 341;
var sectionId = 'dynsection-0';
</script>
<script xlink:href="svgpan.js"/>
<svg id="graph" class="graph">
<g id="viewport">
<title>Framework/src/CheckRunnerFactory.cxx</title>
<!-- Node1 -->
<g id="node1" class="node"><title>Node1</title>
<polygon fill="#bfbfbf" stroke="black" points="1097.96,-302.5 1097.96,-332.5 1242.96,-332.5 1242.96,-302.5 1097.96,-302.5"/>
<text text-anchor="start" x="1105.96" y="-320.5" font-family="Helvetica,sans-Serif" font-size="10.00">Framework/src/CheckRunner</text>
<text text-anchor="middle" x="1170.46" y="-309.5" font-family="Helvetica,sans-Serif" font-size="10.00">Factory.cxx</text>
</g>
<!-- Node2 -->
<g id="node2" class="node"><title>Node2</title>
<polygon fill="none" stroke="#bfbfbf" points="1159.46,-112.5 1159.46,-131.5 1203.46,-131.5 1203.46,-112.5 1159.46,-112.5"/>
<text text-anchor="middle" x="1181.46" y="-119.5" font-family="Helvetica,sans-Serif" font-size="10.00">vector</text>
</g>
<!-- Node1&#45;&gt;Node2 -->
<g id="edge1" class="edge"><title>Node1&#45;&gt;Node2</title>
<path fill="none" stroke="midnightblue" d="M1207.32,-302.366C1256.23,-284.149 1345.61,-252.718 1424.46,-235 1545.93,-207.704 1780.88,-259.502 1696.46,-168 1662.67,-131.38 1299,-137.271 1249.46,-132 1237.67,-130.746 1224.77,-129.107 1213.4,-127.571"/>
<polygon fill="midnightblue" stroke="midnightblue" points="1213.85,-124.101 1203.47,-126.204 1212.9,-131.035 1213.85,-124.101"/>
</g>
<!-- Node3 -->
<g id="node3" class="node"><title>Node3</title>
<polygon fill="none" stroke="#bfbfbf" points="269.456,-174 269.456,-193 347.456,-193 347.456,-174 269.456,-174"/>
<text text-anchor="middle" x="308.456" y="-181" font-family="Helvetica,sans-Serif" font-size="10.00">unordered_set</text>
</g>
<!-- Node1&#45;&gt;Node3 -->
<g id="edge2" class="edge"><title>Node1&#45;&gt;Node3</title>
<path fill="none" stroke="midnightblue" d="M1097.72,-310.377C953.894,-297.324 623.603,-262.631 352.456,-199 348.983,-198.185 345.394,-197.218 341.832,-196.175"/>
<polygon fill="midnightblue" stroke="midnightblue" points="342.575,-192.74 331.986,-193.1 340.488,-199.422 342.575,-192.74"/>
</g>
<!-- Node4 -->
<g id="node4" class="node"><title>Node4</title>
<polygon fill="none" stroke="#bfbfbf" points="18.4556,-112.5 18.4556,-131.5 182.456,-131.5 182.456,-112.5 18.4556,-112.5"/>
<text text-anchor="middle" x="100.456" y="-119.5" font-family="Helvetica,sans-Serif" font-size="10.00">Framework/DataProcessorSpec.h</text>
</g>
<!-- Node1&#45;&gt;Node4 -->
<g id="edge3" class="edge"><title>Node1&#45;&gt;Node4</title>
<path fill="none" stroke="midnightblue" d="M1097.63,-314.909C880.993,-309.89 250.147,-293.099 161.456,-266 106.347,-249.162 78.7804,-249.182 50.4556,-199 43.6832,-187.002 44.8503,-180.586 50.4556,-168 56.0235,-155.498 66.9712,-145.012 77.2066,-137.317"/>
<polygon fill="midnightblue" stroke="midnightblue" points="79.3065,-140.119 85.5031,-131.526 75.2999,-134.379 79.3065,-140.119"/>
</g>
<!-- Node5 -->
<g id="node5" class="node"><title>Node5</title>
<polygon fill="none" stroke="#bfbfbf" points="1433.46,-241 1433.46,-260 1563.46,-260 1563.46,-241 1433.46,-241"/>
<text text-anchor="middle" x="1498.46" y="-248" font-family="Helvetica,sans-Serif" font-size="10.00">Framework/DeviceSpec.h</text>
</g>
<!-- Node1&#45;&gt;Node5 -->
<g id="edge4" class="edge"><title>Node1&#45;&gt;Node5</title>
<path fill="none" stroke="midnightblue" d="M1241.22,-302.476C1302.57,-290.32 1389.97,-272.999 1445.44,-262.005"/>
<polygon fill="midnightblue" stroke="midnightblue" points="1446.29,-265.406 1455.42,-260.029 1444.93,-258.539 1446.29,-265.406"/>
</g>
<!-- Node6 -->
<g id="node6" class="node"><title>Node6</title>
<polygon fill="none" stroke="#bfbfbf" points="1581.46,-241 1581.46,-260 1721.46,-260 1721.46,-241 1581.46,-241"/>
<text text-anchor="middle" x="1651.46" y="-248" font-family="Helvetica,sans-Serif" font-size="10.00">Framework/DataSpecUtils.h</text>
</g>
<!-- Node1&#45;&gt;Node6 -->
<g id="edge5" class="edge"><title>Node1&#45;&gt;Node6</title>
<path fill="none" stroke="midnightblue" d="M1243.25,-308.609C1323.91,-299.574 1457.75,-283.716 1572.46,-266 1580.49,-264.759 1588.96,-263.331 1597.25,-261.866"/>
<polygon fill="midnightblue" stroke="midnightblue" points="1598.02,-265.285 1607.24,-260.071 1596.78,-258.396 1598.02,-265.285"/>
</g>
<!-- Node7 -->
<g id="node7" class="node"><title>Node7</title>
<polygon fill="none" stroke="#bfbfbf" points="1739.96,-235.5 1739.96,-265.5 1884.96,-265.5 1884.96,-235.5 1739.96,-235.5"/>
<text text-anchor="start" x="1747.96" y="-253.5" font-family="Helvetica,sans-Serif" font-size="10.00">Framework/CompletionPolicy</text>
<text text-anchor="middle" x="1812.46" y="-242.5" font-family="Helvetica,sans-Serif" font-size="10.00">Helpers.h</text>
</g>
<!-- Node1&#45;&gt;Node7 -->
<g id="edge6" class="edge"><title>Node1&#45;&gt;Node7</title>
<path fill="none" stroke="midnightblue" d="M1243.17,-311.927C1348.25,-304.877 1548.87,-289.768 1729.67,-266.029"/>
<polygon fill="midnightblue" stroke="midnightblue" points="1730.17,-269.492 1739.63,-264.71 1729.26,-262.553 1730.17,-269.492"/>
</g>
<!-- Node8 -->
<g id="node8" class="node"><title>Node8</title>
<g id="a_node8"><a xlink:href="CheckRunner_8h.html" target="_top" xlink:title="QualityControl/CheckRunner.h">
<polygon fill="none" stroke="black" points="861.456,-241 861.456,-260 1011.46,-260 1011.46,-241 861.456,-241"/>
<text text-anchor="middle" x="936.456" y="-248" font-family="Helvetica,sans-Serif" font-size="10.00">QualityControl/CheckRunner.h</text>
</a>
</g>
</g>
<!-- Node1&#45;&gt;Node8 -->
<g id="edge7" class="edge"><title>Node1&#45;&gt;Node8</title>
<path fill="none" stroke="midnightblue" d="M1119.97,-302.476C1077.21,-290.597 1016.69,-273.787 977.019,-262.768"/>
<polygon fill="midnightblue" stroke="midnightblue" points="977.731,-259.333 967.159,-260.029 975.857,-266.077 977.731,-259.333"/>
</g>
<!-- Node33 -->
<g id="node33" class="node"><title>Node33</title>
<g id="a_node33"><a xlink:href="CheckRunnerFactory_8h.html" target="_top" xlink:title="QualityControl/CheckRunner\lFactory.h">
<polygon fill="none" stroke="black" points="170.456,-235.5 170.456,-265.5 312.456,-265.5 312.456,-235.5 170.456,-235.5"/>
<text text-anchor="start" x="178.456" y="-253.5" font-family="Helvetica,sans-Serif" font-size="10.00">QualityControl/CheckRunner</text>
<text text-anchor="middle" x="241.456" y="-242.5" font-family="Helvetica,sans-Serif" font-size="10.00">Factory.h</text>
</a>
</g>
</g>
<!-- Node1&#45;&gt;Node33 -->
<g id="edge64" class="edge"><title>Node1&#45;&gt;Node33</title>
<path fill="none" stroke="midnightblue" d="M1097.95,-311.427C927.35,-299.49 501.533,-269.697 322.635,-257.18"/>
<polygon fill="midnightblue" stroke="midnightblue" points="322.719,-253.677 312.499,-256.471 322.23,-260.66 322.719,-253.677"/>
</g>
<!-- Node8&#45;&gt;Node2 -->
<g id="edge12" class="edge"><title>Node8&#45;&gt;Node2</title>
<path fill="none" stroke="midnightblue" d="M1011.52,-241.25C1068.7,-233.45 1141.12,-219.806 1162.46,-199 1177.71,-184.123 1181.41,-158.988 1181.98,-141.724"/>
<polygon fill="midnightblue" stroke="midnightblue" points="1185.48,-141.709 1182,-131.703 1178.48,-141.698 1185.48,-141.709"/>
</g>
<!-- Node8&#45;&gt;Node3 -->
<g id="edge13" class="edge"><title>Node8&#45;&gt;Node3</title>
<path fill="none" stroke="midnightblue" d="M860.998,-247.185C750.558,-242.825 538.76,-230.774 361.456,-199 356.363,-198.087 351.049,-196.911 345.837,-195.623"/>
<polygon fill="midnightblue" stroke="midnightblue" points="346.584,-192.2 336.023,-193.049 344.808,-198.971 346.584,-192.2"/>
</g>
<!-- Node8&#45;&gt;Node4 -->
<g id="edge19" class="edge"><title>Node8&#45;&gt;Node4</title>
<path fill="none" stroke="midnightblue" d="M861.375,-247.289C734.177,-242.741 482.079,-230.024 399.456,-199 377.399,-190.718 378.162,-177.16 356.456,-168 325.131,-154.781 241.984,-141.533 178.876,-132.869"/>
<polygon fill="midnightblue" stroke="midnightblue" points="179.311,-129.396 168.931,-131.519 178.369,-136.333 179.311,-129.396"/>
</g>
<!-- Node9 -->
<g id="node9" class="node"><title>Node9</title>
<polygon fill="none" stroke="#bfbfbf" points="617.456,-174 617.456,-193 663.456,-193 663.456,-174 617.456,-174"/>
<text text-anchor="middle" x="640.456" y="-181" font-family="Helvetica,sans-Serif" font-size="10.00">chrono</text>
</g>
<!-- Node8&#45;&gt;Node9 -->
<g id="edge8" class="edge"><title>Node8&#45;&gt;Node9</title>
<path fill="none" stroke="midnightblue" d="M868.363,-240.993C814.394,-233.178 737.507,-219.639 672.456,-199 670.581,-198.405 668.67,-197.73 666.763,-197.004"/>
<polygon fill="midnightblue" stroke="midnightblue" points="668.009,-193.732 657.434,-193.092 665.302,-200.187 668.009,-193.732"/>
</g>
<!-- Node10 -->
<g id="node10" class="node"><title>Node10</title>
<polygon fill="none" stroke="#bfbfbf" points="1013.46,-112.5 1013.46,-131.5 1065.46,-131.5 1065.46,-112.5 1013.46,-112.5"/>
<text text-anchor="middle" x="1039.46" y="-119.5" font-family="Helvetica,sans-Serif" font-size="10.00">memory</text>
</g>
<!-- Node8&#45;&gt;Node10 -->
<g id="edge9" class="edge"><title>Node8&#45;&gt;Node10</title>
<path fill="none" stroke="midnightblue" d="M938.842,-240.814C943.539,-224.941 955.228,-190.792 974.456,-168 985.209,-155.253 1000.4,-144.469 1013.39,-136.656"/>
<polygon fill="midnightblue" stroke="midnightblue" points="1015.43,-139.518 1022.37,-131.506 1011.95,-133.446 1015.43,-139.518"/>
</g>
<!-- Node11 -->
<g id="node11" class="node"><title>Node11</title>
<polygon fill="none" stroke="#bfbfbf" points="714.956,-0.5 714.956,-19.5 755.956,-19.5 755.956,-0.5 714.956,-0.5"/>
<text text-anchor="middle" x="735.456" y="-7.5" font-family="Helvetica,sans-Serif" font-size="10.00">string</text>
</g>
<!-- Node8&#45;&gt;Node11 -->
<g id="edge10" class="edge"><title>Node8&#45;&gt;Node11</title>
<path fill="none" stroke="midnightblue" d="M861.058,-247.685C738.802,-243.802 503.338,-232.151 427.456,-199 408.414,-190.681 410.978,-177.42 392.456,-168 325.939,-134.172 275.225,-190.15 228.456,-132 215.762,-116.217 217.246,-75.4514 238.456,-56 272.874,-24.4339 601.889,-14.1184 704.828,-11.6495"/>
<polygon fill="midnightblue" stroke="midnightblue" points="704.969,-15.1473 714.885,-11.4163 704.806,-8.1492 704.969,-15.1473"/>
</g>
<!-- Node12 -->
<g id="node12" class="node"><title>Node12</title>
<polygon fill="none" stroke="#bfbfbf" points="1113.96,-0.5 1113.96,-19.5 1148.96,-19.5 1148.96,-0.5 1113.96,-0.5"/>
<text text-anchor="middle" x="1131.46" y="-7.5" font-family="Helvetica,sans-Serif" font-size="10.00">map</text>
</g>
<!-- Node8&#45;&gt;Node12 -->
<g id="edge11" class="edge"><title>Node8&#45;&gt;Node12</title>
<path fill="none" stroke="midnightblue" d="M1011.48,-247.254C1198.72,-241.284 1673.27,-223.772 1696.46,-199 1775.56,-114.462 1283.7,-33.9345 1159.46,-15.1178"/>
<polygon fill="midnightblue" stroke="midnightblue" points="1159.65,-11.6072 1149.24,-13.5843 1158.61,-18.5297 1159.65,-11.6072"/>
</g>
<!-- Node13 -->
<g id="node13" class="node"><title>Node13</title>
<polygon fill="none" stroke="#bfbfbf" points="681.456,-174 681.456,-193 773.456,-193 773.456,-174 681.456,-174"/>
<text text-anchor="middle" x="727.456" y="-181" font-family="Helvetica,sans-Serif" font-size="10.00">Common/Timer.h</text>
</g>
<!-- Node8&#45;&gt;Node13 -->
<g id="edge14" class="edge"><title>Node8&#45;&gt;Node13</title>
<path fill="none" stroke="midnightblue" d="M908.702,-240.869C871.67,-229.351 805.981,-208.922 764.68,-196.077"/>
<polygon fill="midnightblue" stroke="midnightblue" points="765.579,-192.691 754.991,-193.064 763.501,-199.376 765.579,-192.691"/>
</g>
<!-- Node14 -->
<g id="node14" class="node"><title>Node14</title>
<polygon fill="none" stroke="#bfbfbf" points="791.456,-174 791.456,-193 889.456,-193 889.456,-174 791.456,-174"/>
<text text-anchor="middle" x="840.456" y="-181" font-family="Helvetica,sans-Serif" font-size="10.00">Framework/Task.h</text>
</g>
<!-- Node8&#45;&gt;Node14 -->
<g id="edge15" class="edge"><title>Node8&#45;&gt;Node14</title>
<path fill="none" stroke="midnightblue" d="M923.509,-240.734C907.603,-229.964 880.406,-211.55 861.486,-198.739"/>
<polygon fill="midnightblue" stroke="midnightblue" points="863.44,-195.836 853.197,-193.127 859.516,-201.632 863.44,-195.836"/>
</g>
<!-- Node15 -->
<g id="node15" class="node"><title>Node15</title>
<polygon fill="none" stroke="#bfbfbf" points="1247.96,-174 1247.96,-193 1364.96,-193 1364.96,-174 1247.96,-174"/>
<text text-anchor="middle" x="1306.46" y="-181" font-family="Helvetica,sans-Serif" font-size="10.00">Headers/DataHeader.h</text>
</g>
<!-- Node8&#45;&gt;Node15 -->
<g id="edge16" class="edge"><title>Node8&#45;&gt;Node15</title>
<path fill="none" stroke="midnightblue" d="M989.11,-240.999C1048.54,-231.298 1148.07,-214.736 1233.46,-199 1240.2,-197.757 1247.29,-196.406 1254.28,-195.045"/>
<polygon fill="midnightblue" stroke="midnightblue" points="1255.28,-198.417 1264.42,-193.056 1253.93,-191.548 1255.28,-198.417"/>
</g>
<!-- Node16 -->
<g id="node16" class="node"><title>Node16</title>
<polygon fill="none" stroke="#bfbfbf" points="1382.96,-174 1382.96,-193 1533.96,-193 1533.96,-174 1382.96,-174"/>
<text text-anchor="middle" x="1458.46" y="-181" font-family="Helvetica,sans-Serif" font-size="10.00">Monitoring/MonitoringFactory.h</text>
</g>
<!-- Node8&#45;&gt;Node16 -->
<g id="edge17" class="edge"><title>Node8&#45;&gt;Node16</title>
<path fill="none" stroke="midnightblue" d="M1011.62,-242.058C1098.82,-233.137 1246.82,-217.105 1373.46,-199 1382.49,-197.709 1392.04,-196.21 1401.35,-194.676"/>
<polygon fill="midnightblue" stroke="midnightblue" points="1402.03,-198.11 1411.32,-193.006 1400.88,-191.206 1402.03,-198.11"/>
</g>
<!-- Node17 -->
<g id="node17" class="node"><title>Node17</title>
<polygon fill="none" stroke="#bfbfbf" points="1551.96,-168.5 1551.96,-198.5 1686.96,-198.5 1686.96,-168.5 1551.96,-168.5"/>
<text text-anchor="start" x="1559.96" y="-186.5" font-family="Helvetica,sans-Serif" font-size="10.00">Configuration/Configuration</text>
<text text-anchor="middle" x="1619.46" y="-175.5" font-family="Helvetica,sans-Serif" font-size="10.00">Interface.h</text>
</g>
<!-- Node8&#45;&gt;Node17 -->
<g id="edge18" class="edge"><title>Node8&#45;&gt;Node17</title>
<path fill="none" stroke="midnightblue" d="M1011.49,-245.81C1124.51,-239.687 1345.28,-225.529 1541.64,-199.167"/>
<polygon fill="midnightblue" stroke="midnightblue" points="1542.12,-202.633 1551.56,-197.821 1541.18,-195.697 1542.12,-202.633"/>
</g>
<!-- Node18 -->
<g id="node18" class="node"><title>Node18</title>
<g id="a_node18"><a xlink:href="CheckInterface_8h.html" target="_top" xlink:title="QualityControl/CheckInterface.h">
<polygon fill="none" stroke="black" points="761.956,-112.5 761.956,-131.5 918.956,-131.5 918.956,-112.5 761.956,-112.5"/>
<text text-anchor="middle" x="840.456" y="-119.5" font-family="Helvetica,sans-Serif" font-size="10.00">QualityControl/CheckInterface.h</text>
</a>
</g>
</g>
<!-- Node8&#45;&gt;Node18 -->
<g id="edge20" class="edge"><title>Node8&#45;&gt;Node18</title>
<path fill="none" stroke="midnightblue" d="M933.948,-240.913C929.055,-225.202 917.057,-191.305 898.456,-168 888.826,-155.935 875.324,-145.213 863.771,-137.264"/>
<polygon fill="midnightblue" stroke="midnightblue" points="865.686,-134.335 855.412,-131.75 861.832,-140.178 865.686,-134.335"/>
</g>
<!-- Node21 -->
<g id="node21" class="node"><title>Node21</title>
<g id="a_node21"><a xlink:href="MonitorObject_8h.html" target="_top" xlink:title="QualityControl/MonitorObject.h">
<polygon fill="none" stroke="black" points="1055.96,-56.5 1055.96,-75.5 1206.96,-75.5 1206.96,-56.5 1055.96,-56.5"/>
<text text-anchor="middle" x="1131.46" y="-63.5" font-family="Helvetica,sans-Serif" font-size="10.00">QualityControl/MonitorObject.h</text>
</a>
</g>
</g>
<!-- Node8&#45;&gt;Node21 -->
<g id="edge46" class="edge"><title>Node8&#45;&gt;Node21</title>
<path fill="none" stroke="midnightblue" d="M1011.67,-241.956C1074.7,-234.257 1158.44,-220.377 1184.46,-199 1215.84,-173.209 1233.06,-147.009 1212.46,-112 1203.54,-96.844 1187.47,-86.4264 1171.98,-79.464"/>
<polygon fill="midnightblue" stroke="midnightblue" points="1173.06,-76.124 1162.48,-75.5639 1170.4,-82.5996 1173.06,-76.124"/>
</g>
<!-- Node25 -->
<g id="node25" class="node"><title>Node25</title>
<g id="a_node25"><a xlink:href="DatabaseInterface_8h.html" target="_top" xlink:title="QualityControl/DatabaseInterface.h">
<polygon fill="none" stroke="black" points="983.456,-174 983.456,-193 1153.46,-193 1153.46,-174 983.456,-174"/>
<text text-anchor="middle" x="1068.46" y="-181" font-family="Helvetica,sans-Serif" font-size="10.00">QualityControl/DatabaseInterface.h</text>
</a>
</g>
</g>
<!-- Node8&#45;&gt;Node25 -->
<g id="edge34" class="edge"><title>Node8&#45;&gt;Node25</title>
<path fill="none" stroke="midnightblue" d="M953.984,-240.869C976.47,-229.796 1015.68,-210.486 1041.86,-197.598"/>
<polygon fill="midnightblue" stroke="midnightblue" points="1043.43,-200.725 1050.85,-193.167 1040.34,-194.445 1043.43,-200.725"/>
</g>
<!-- Node28 -->
<g id="node28" class="node"><title>Node28</title>
<g id="a_node28"><a xlink:href="QcInfoLogger_8h.html" target="_top" xlink:title="QualityControl/QcInfoLogger.h">
<polygon fill="none" stroke="black" points="237.956,-112.5 237.956,-131.5 386.956,-131.5 386.956,-112.5 237.956,-112.5"/>
<text text-anchor="middle" x="312.456" y="-119.5" font-family="Helvetica,sans-Serif" font-size="10.00">QualityControl/QcInfoLogger.h</text>
</a>
</g>
</g>
<!-- Node8&#45;&gt;Node28 -->
<g id="edge47" class="edge"><title>Node8&#45;&gt;Node28</title>
<path fill="none" stroke="midnightblue" d="M861.348,-246.028C748.23,-240.015 539.976,-225.668 470.456,-199 448.459,-190.562 448.145,-179.271 427.456,-168 402.527,-154.42 372.622,-142.85 349.557,-134.843"/>
<polygon fill="midnightblue" stroke="midnightblue" points="350.399,-131.433 339.804,-131.527 348.146,-138.06 350.399,-131.433"/>
</g>
<!-- Node30 -->
<g id="node30" class="node"><title>Node30</title>
<g id="a_node30"><a xlink:href="Check_8h_source.html" target="_top" xlink:title="QualityControl/Check.h">
<polygon fill="none" stroke="black" points="479.956,-174 479.956,-193 598.956,-193 598.956,-174 479.956,-174"/>
<text text-anchor="middle" x="539.456" y="-181" font-family="Helvetica,sans-Serif" font-size="10.00">QualityControl/Check.h</text>
</a>
</g>
</g>
<!-- Node8&#45;&gt;Node30 -->
<g id="edge49" class="edge"><title>Node8&#45;&gt;Node30</title>
<path fill="none" stroke="midnightblue" d="M874.322,-240.96C808.232,-231.637 700.711,-215.783 608.456,-199 601.821,-197.793 594.846,-196.434 587.984,-195.044"/>
<polygon fill="midnightblue" stroke="midnightblue" points="588.567,-191.591 578.066,-193 587.154,-198.447 588.567,-191.591"/>
</g>
<!-- Node18&#45;&gt;Node11 -->
<g id="edge21" class="edge"><title>Node18&#45;&gt;Node11</title>
<path fill="none" stroke="midnightblue" d="M811.469,-112.444C792.69,-105.488 769.089,-93.8555 754.456,-76 743.636,-62.7977 738.977,-43.6635 736.972,-29.5722"/>
<polygon fill="midnightblue" stroke="midnightblue" points="740.443,-29.117 735.865,-19.5622 733.485,-29.8863 740.443,-29.117"/>
</g>
<!-- Node18&#45;&gt;Node12 -->
<g id="edge22" class="edge"><title>Node18&#45;&gt;Node12</title>
<path fill="none" stroke="midnightblue" d="M863.29,-112.368C916.25,-92.3492 1047.26,-42.8249 1104.25,-21.2831"/>
<polygon fill="midnightblue" stroke="midnightblue" points="1105.57,-24.5278 1113.68,-17.718 1103.09,-17.98 1105.57,-24.5278"/>
</g>
<!-- Node19 -->
<g id="node19" class="node"><title>Node19</title>
<polygon fill="none" stroke="#bfbfbf" points="619.956,-56.5 619.956,-75.5 702.956,-75.5 702.956,-56.5 619.956,-56.5"/>
<text text-anchor="middle" x="661.456" y="-63.5" font-family="Helvetica,sans-Serif" font-size="10.00">unordered_map</text>
</g>
<!-- Node18&#45;&gt;Node19 -->
<g id="edge23" class="edge"><title>Node18&#45;&gt;Node19</title>
<path fill="none" stroke="midnightblue" d="M812.093,-112.444C781.717,-103.28 733.346,-88.6876 699.64,-78.5192"/>
<polygon fill="midnightblue" stroke="midnightblue" points="700.271,-75.0538 689.686,-75.5164 698.249,-81.7555 700.271,-75.0538"/>
</g>
<!-- Node20 -->
<g id="node20" class="node"><title>Node20</title>
<polygon fill="none" stroke="#bfbfbf" points="885.456,-0.5 885.456,-19.5 941.456,-19.5 941.456,-0.5 885.456,-0.5"/>
<text text-anchor="middle" x="913.456" y="-7.5" font-family="Helvetica,sans-Serif" font-size="10.00">Rtypes.h</text>
</g>
<!-- Node18&#45;&gt;Node20 -->
<g id="edge24" class="edge"><title>Node18&#45;&gt;Node20</title>
<path fill="none" stroke="midnightblue" d="M854.591,-112.339C866.568,-104.312 883.36,-91.32 893.456,-76 902.693,-61.9823 907.839,-43.484 910.589,-29.8068"/>
<polygon fill="midnightblue" stroke="midnightblue" points="914.089,-30.1108 912.372,-19.656 907.195,-28.8995 914.089,-30.1108"/>
</g>
<!-- Node18&#45;&gt;Node21 -->
<g id="edge25" class="edge"><title>Node18&#45;&gt;Node21</title>
<path fill="none" stroke="midnightblue" d="M886.565,-112.444C937.862,-102.925 1020.73,-87.5472 1075.65,-77.3563"/>
<polygon fill="midnightblue" stroke="midnightblue" points="1076.37,-80.7823 1085.56,-75.5164 1075.09,-73.8998 1076.37,-80.7823"/>
</g>
<!-- Node24 -->
<g id="node24" class="node"><title>Node24</title>
<g id="a_node24"><a xlink:href="Quality_8h.html" target="_top" xlink:title="QualityControl/Quality.h">
<polygon fill="none" stroke="black" points="763.956,-56.5 763.956,-75.5 884.956,-75.5 884.956,-56.5 763.956,-56.5"/>
<text text-anchor="middle" x="824.456" y="-63.5" font-family="Helvetica,sans-Serif" font-size="10.00">QualityControl/Quality.h</text>
</a>
</g>
</g>
<!-- Node18&#45;&gt;Node24 -->
<g id="edge31" class="edge"><title>Node18&#45;&gt;Node24</title>
<path fill="none" stroke="midnightblue" d="M837.814,-112.083C835.67,-104.849 832.577,-94.4087 829.906,-85.3968"/>
<polygon fill="midnightblue" stroke="midnightblue" points="833.245,-84.3447 827.049,-75.7511 826.534,-86.3334 833.245,-84.3447"/>
</g>
<!-- Node21&#45;&gt;Node11 -->
<g id="edge26" class="edge"><title>Node21&#45;&gt;Node11</title>
<path fill="none" stroke="midnightblue" d="M1068.71,-56.4435C982.561,-44.6962 830.982,-24.0263 766.209,-15.1936"/>
<polygon fill="midnightblue" stroke="midnightblue" points="766.606,-11.7154 756.224,-13.8321 765.66,-18.6512 766.606,-11.7154"/>
</g>
<!-- Node21&#45;&gt;Node12 -->
<g id="edge27" class="edge"><title>Node21&#45;&gt;Node12</title>
<path fill="none" stroke="midnightblue" d="M1131.46,-56.083C1131.46,-49.0059 1131.46,-38.8611 1131.46,-29.9865"/>
<polygon fill="midnightblue" stroke="midnightblue" points="1134.96,-29.751 1131.46,-19.7511 1127.96,-29.7511 1134.96,-29.751"/>
</g>
<!-- Node21&#45;&gt;Node20 -->
<g id="edge28" class="edge"><title>Node21&#45;&gt;Node20</title>
<path fill="none" stroke="midnightblue" d="M1096.91,-56.4435C1057.29,-46.6286 992.522,-30.5852 951.489,-20.421"/>
<polygon fill="midnightblue" stroke="midnightblue" points="952.146,-16.9781 941.598,-17.971 950.463,-23.7728 952.146,-16.9781"/>
</g>
<!-- Node22 -->
<g id="node22" class="node"><title>Node22</title>
<polygon fill="none" stroke="#bfbfbf" points="1232.96,-0.5 1232.96,-19.5 1291.96,-19.5 1291.96,-0.5 1232.96,-0.5"/>
<text text-anchor="middle" x="1262.46" y="-7.5" font-family="Helvetica,sans-Serif" font-size="10.00">TObject.h</text>
</g>
<!-- Node21&#45;&gt;Node22 -->
<g id="edge29" class="edge"><title>Node21&#45;&gt;Node22</title>
<path fill="none" stroke="midnightblue" d="M1152.21,-56.4435C1173.77,-47.5566 1207.72,-33.5632 1232.25,-23.4514"/>
<polygon fill="midnightblue" stroke="midnightblue" points="1233.88,-26.5634 1241.8,-19.5164 1231.22,-20.0917 1233.88,-26.5634"/>
</g>
<!-- Node23 -->
<g id="node23" class="node"><title>Node23</title>
<polygon fill="none" stroke="#bfbfbf" points="1343.46,-0.5 1343.46,-19.5 1459.46,-19.5 1459.46,-0.5 1343.46,-0.5"/>
<text text-anchor="middle" x="1401.46" y="-7.5" font-family="Helvetica,sans-Serif" font-size="10.00">Common/Exceptions.h</text>
</g>
<!-- Node21&#45;&gt;Node23 -->
<g id="edge30" class="edge"><title>Node21&#45;&gt;Node23</title>
<path fill="none" stroke="midnightblue" d="M1174.24,-56.4435C1221.63,-46.9641 1298.08,-31.6747 1349.04,-21.4835"/>
<polygon fill="midnightblue" stroke="midnightblue" points="1349.75,-24.9097 1358.87,-19.5164 1348.38,-18.0456 1349.75,-24.9097"/>
</g>
<!-- Node24&#45;&gt;Node11 -->
<g id="edge33" class="edge"><title>Node24&#45;&gt;Node11</title>
<path fill="none" stroke="midnightblue" d="M810.156,-56.324C796.273,-47.9002 774.963,-34.9709 758.652,-25.0741"/>
<polygon fill="midnightblue" stroke="midnightblue" points="760.084,-21.8495 749.72,-19.6545 756.453,-27.8341 760.084,-21.8495"/>
</g>
<!-- Node24&#45;&gt;Node20 -->
<g id="edge32" class="edge"><title>Node24&#45;&gt;Node20</title>
<path fill="none" stroke="midnightblue" d="M838.755,-56.324C852.639,-47.9002 873.948,-34.9709 890.259,-25.0741"/>
<polygon fill="midnightblue" stroke="midnightblue" points="892.458,-27.8341 899.192,-19.6545 888.827,-21.8495 892.458,-27.8341"/>
</g>
<!-- Node25&#45;&gt;Node2 -->
<g id="edge37" class="edge"><title>Node25&#45;&gt;Node2</title>
<path fill="none" stroke="midnightblue" d="M1084.65,-173.975C1103.36,-164.122 1134.38,-147.788 1156.25,-136.27"/>
<polygon fill="midnightblue" stroke="midnightblue" points="1158.08,-139.265 1165.3,-131.509 1154.82,-133.071 1158.08,-139.265"/>
</g>
<!-- Node25&#45;&gt;Node10 -->
<g id="edge36" class="edge"><title>Node25&#45;&gt;Node10</title>
<path fill="none" stroke="midnightblue" d="M1064.3,-173.975C1060.08,-165.315 1053.42,-151.649 1048.06,-140.645"/>
<polygon fill="midnightblue" stroke="midnightblue" points="1051.13,-138.965 1043.6,-131.509 1044.84,-142.032 1051.13,-138.965"/>
</g>
<!-- Node25&#45;&gt;Node11 -->
<g id="edge35" class="edge"><title>Node25&#45;&gt;Node11</title>
<path fill="none" stroke="midnightblue" d="M1072.6,-173.694C1078.7,-159.273 1088.02,-130.389 1074.46,-112 1037.12,-61.3714 842.445,-27.0934 766.161,-15.4195"/>
<polygon fill="midnightblue" stroke="midnightblue" points="766.621,-11.9494 756.212,-13.9229 765.58,-18.8715 766.621,-11.9494"/>
</g>
<!-- Node25&#45;&gt;Node19 -->
<g id="edge38" class="edge"><title>Node25&#45;&gt;Node19</title>
<path fill="none" stroke="midnightblue" d="M988.768,-173.983C909.573,-164.768 794.089,-149.082 752.456,-132 723.745,-120.22 695.41,-97.8094 678.175,-82.6362"/>
<polygon fill="midnightblue" stroke="midnightblue" points="680.421,-79.949 670.653,-75.8473 675.731,-85.1456 680.421,-79.949"/>
</g>
<!-- Node25&#45;&gt;Node21 -->
<g id="edge45" class="edge"><title>Node25&#45;&gt;Node21</title>
<path fill="none" stroke="midnightblue" d="M1076.54,-173.779C1085.13,-164.149 1098.66,-147.894 1107.46,-132 1115.65,-117.201 1122.08,-99.0467 1126.22,-85.6893"/>
<polygon fill="midnightblue" stroke="midnightblue" points="1129.67,-86.3577 1129.14,-75.7762 1122.96,-84.3793 1129.67,-86.3577"/>
</g>
<!-- Node26 -->
<g id="node26" class="node"><title>Node26</title>
<g id="a_node26"><a xlink:href="QualityObject_8h_source.html" target="_top" xlink:title="QualityControl/QualityObject.h">
<polygon fill="none" stroke="black" points="1258.96,-112.5 1258.96,-131.5 1407.96,-131.5 1407.96,-112.5 1258.96,-112.5"/>
<text text-anchor="middle" x="1333.46" y="-119.5" font-family="Helvetica,sans-Serif" font-size="10.00">QualityControl/QualityObject.h</text>
</a>
</g>
</g>
<!-- Node25&#45;&gt;Node26 -->
<g id="edge39" class="edge"><title>Node25&#45;&gt;Node26</title>
<path fill="none" stroke="midnightblue" d="M1106.42,-173.975C1153.65,-163.371 1234.31,-145.26 1285.69,-133.724"/>
<polygon fill="midnightblue" stroke="midnightblue" points="1286.57,-137.115 1295.56,-131.509 1285.03,-130.285 1286.57,-137.115"/>
</g>
<!-- Node26&#45;&gt;Node12 -->
<g id="edge41" class="edge"><title>Node26&#45;&gt;Node12</title>
<path fill="none" stroke="midnightblue" d="M1331.65,-112.402C1328.25,-98.418 1319.56,-70.8205 1301.46,-56 1260.14,-22.1723 1195.92,-13.5626 1159.39,-11.5025"/>
<polygon fill="midnightblue" stroke="midnightblue" points="1159.13,-7.98835 1148.99,-11.0527 1158.83,-14.9818 1159.13,-7.98835"/>
</g>
<!-- Node26&#45;&gt;Node22 -->
<g id="edge42" class="edge"><title>Node26&#45;&gt;Node22</title>
<path fill="none" stroke="midnightblue" d="M1336.15,-112.35C1339.71,-99.2395 1344.41,-73.9657 1334.46,-56 1326.37,-41.405 1311.35,-30.9185 1297.12,-23.7608"/>
<polygon fill="midnightblue" stroke="midnightblue" points="1298.51,-20.5459 1287.96,-19.5282 1295.57,-26.9002 1298.51,-20.5459"/>
</g>
<!-- Node26&#45;&gt;Node23 -->
<g id="edge43" class="edge"><title>Node26&#45;&gt;Node23</title>
<path fill="none" stroke="midnightblue" d="M1361.83,-112.495C1379.21,-105.653 1400.05,-94.1299 1410.46,-76 1418.68,-61.6693 1414.7,-42.7141 1409.7,-28.9737"/>
<polygon fill="midnightblue" stroke="midnightblue" points="1412.9,-27.564 1405.86,-19.6457 1406.43,-30.2255 1412.9,-27.564"/>
</g>
<!-- Node26&#45;&gt;Node24 -->
<g id="edge44" class="edge"><title>Node26&#45;&gt;Node24</title>
<path fill="none" stroke="midnightblue" d="M1258.9,-113.09C1161.25,-102.731 991.255,-84.6958 895.423,-74.529"/>
<polygon fill="midnightblue" stroke="midnightblue" points="895.564,-71.0243 885.25,-73.4497 894.825,-77.9853 895.564,-71.0243"/>
</g>
<!-- Node27 -->
<g id="node27" class="node"><title>Node27</title>
<polygon fill="none" stroke="#bfbfbf" points="1238.46,-56.5 1238.46,-75.5 1292.46,-75.5 1292.46,-56.5 1238.46,-56.5"/>
<text text-anchor="middle" x="1265.46" y="-63.5" font-family="Helvetica,sans-Serif" font-size="10.00">iostream</text>
</g>
<!-- Node26&#45;&gt;Node27 -->
<g id="edge40" class="edge"><title>Node26&#45;&gt;Node27</title>
<path fill="none" stroke="midnightblue" d="M1322.53,-112.324C1312.28,-104.185 1296.73,-91.8395 1284.45,-82.0874"/>
<polygon fill="midnightblue" stroke="midnightblue" points="1286.59,-79.3119 1276.58,-75.8339 1282.23,-84.7937 1286.59,-79.3119"/>
</g>
<!-- Node29 -->
<g id="node29" class="node"><title>Node29</title>
<polygon fill="none" stroke="#bfbfbf" points="247.456,-56.5 247.456,-75.5 377.456,-75.5 377.456,-56.5 247.456,-56.5"/>
<text text-anchor="middle" x="312.456" y="-63.5" font-family="Helvetica,sans-Serif" font-size="10.00">InfoLogger/InfoLogger.hxx</text>
</g>
<!-- Node28&#45;&gt;Node29 -->
<g id="edge48" class="edge"><title>Node28&#45;&gt;Node29</title>
<path fill="none" stroke="midnightblue" d="M312.456,-112.083C312.456,-105.006 312.456,-94.8611 312.456,-85.9865"/>
<polygon fill="midnightblue" stroke="midnightblue" points="315.956,-85.751 312.456,-75.7511 308.956,-85.7511 315.956,-85.751"/>
</g>
<!-- Node30&#45;&gt;Node2 -->
<g id="edge52" class="edge"><title>Node30&#45;&gt;Node2</title>
<path fill="none" stroke="midnightblue" d="M575.824,-173.933C586.307,-171.716 597.792,-169.526 608.456,-168 814.09,-138.578 867.4,-148.706 1074.46,-132 1099.57,-129.974 1127.99,-127.578 1149.23,-125.768"/>
<polygon fill="midnightblue" stroke="midnightblue" points="1149.66,-129.244 1159.33,-124.906 1149.07,-122.27 1149.66,-129.244"/>
</g>
<!-- Node30&#45;&gt;Node4 -->
<g id="edge55" class="edge"><title>Node30&#45;&gt;Node4</title>
<path fill="none" stroke="midnightblue" d="M479.793,-174.414C400.077,-163.609 258.929,-144.479 173.108,-132.847"/>
<polygon fill="midnightblue" stroke="midnightblue" points="173.561,-129.376 163.182,-131.502 172.621,-136.313 173.561,-129.376"/>
</g>
<!-- Node30&#45;&gt;Node10 -->
<g id="edge53" class="edge"><title>Node30&#45;&gt;Node10</title>
<path fill="none" stroke="midnightblue" d="M576.197,-173.959C586.583,-171.769 597.925,-169.586 608.456,-168 781.023,-142.012 827.077,-159.211 999.456,-132 1000.72,-131.8 1002.01,-131.584 1003.3,-131.355"/>
<polygon fill="midnightblue" stroke="midnightblue" points="1004.16,-134.754 1013.3,-129.395 1002.81,-127.884 1004.16,-134.754"/>
</g>
<!-- Node30&#45;&gt;Node12 -->
<g id="edge51" class="edge"><title>Node30&#45;&gt;Node12</title>
<path fill="none" stroke="midnightblue" d="M576.937,-173.95C587.126,-171.81 598.183,-169.655 608.456,-168 749.317,-145.303 792.963,-179.631 927.456,-132 942.244,-126.763 1032.9,-63.8991 1046.46,-56 1065.75,-44.7558 1088.09,-32.9774 1105.02,-24.2924"/>
<polygon fill="midnightblue" stroke="midnightblue" points="1106.98,-27.2221 1114.3,-19.5636 1103.8,-20.985 1106.98,-27.2221"/>
</g>
<!-- Node30&#45;&gt;Node18 -->
<g id="edge59" class="edge"><title>Node30&#45;&gt;Node18</title>
<path fill="none" stroke="midnightblue" d="M579.569,-173.96C589.036,-171.976 599.097,-169.891 608.456,-168 668.964,-155.775 738.487,-142.375 785.527,-133.405"/>
<polygon fill="midnightblue" stroke="midnightblue" points="786.337,-136.814 795.506,-131.504 785.027,-129.937 786.337,-136.814"/>
</g>
<!-- Node30&#45;&gt;Node19 -->
<g id="edge54" class="edge"><title>Node30&#45;&gt;Node19</title>
<path fill="none" stroke="midnightblue" d="M568.379,-173.974C590.068,-166.226 619.065,-152.785 637.456,-132 649.029,-118.92 655.194,-99.7691 658.363,-85.6408"/>
<polygon fill="midnightblue" stroke="midnightblue" points="661.843,-86.082 660.309,-75.5989 654.971,-84.7507 661.843,-86.082"/>
</g>
<!-- Node30&#45;&gt;Node21 -->
<g id="edge58" class="edge"><title>Node30&#45;&gt;Node21</title>
<path fill="none" stroke="midnightblue" d="M576.566,-173.951C586.854,-171.786 598.054,-169.619 608.456,-168 764.283,-143.75 809.403,-173.835 961.456,-132 981.778,-126.409 984.945,-119.973 1004.46,-112 1034.66,-99.6574 1069.65,-87.4055 1095.25,-78.8097"/>
<polygon fill="midnightblue" stroke="midnightblue" points="1096.53,-82.0712 1104.91,-75.5881 1094.32,-75.4304 1096.53,-82.0712"/>
</g>
<!-- Node30&#45;&gt;Node24 -->
<g id="edge56" class="edge"><title>Node30&#45;&gt;Node24</title>
<path fill="none" stroke="midnightblue" d="M560.877,-173.819C610.928,-153.535 735.691,-102.973 793.788,-79.4284"/>
<polygon fill="midnightblue" stroke="midnightblue" points="795.221,-82.6242 803.174,-75.6245 792.592,-76.1367 795.221,-82.6242"/>
</g>
<!-- Node30&#45;&gt;Node26 -->
<g id="edge57" class="edge"><title>Node30&#45;&gt;Node26</title>
<path fill="none" stroke="midnightblue" d="M575.094,-173.964C585.767,-171.691 597.537,-169.465 608.456,-168 874.99,-132.25 944.136,-149.974 1212.46,-132 1224.2,-131.214 1236.57,-130.342 1248.75,-129.459"/>
<polygon fill="midnightblue" stroke="midnightblue" points="1249.2,-132.936 1258.92,-128.717 1248.69,-125.955 1249.2,-132.936"/>
</g>
<!-- Node30&#45;&gt;Node28 -->
<g id="edge60" class="edge"><title>Node30&#45;&gt;Node28</title>
<path fill="none" stroke="midnightblue" d="M506.932,-173.975C466.898,-163.482 398.817,-145.637 354.754,-134.087"/>
<polygon fill="midnightblue" stroke="midnightblue" points="355.48,-130.659 344.919,-131.509 353.705,-137.43 355.48,-130.659"/>
</g>
<!-- Node31 -->
<g id="node31" class="node"><title>Node31</title>
<polygon fill="none" stroke="#bfbfbf" points="404.956,-112.5 404.956,-131.5 463.956,-131.5 463.956,-112.5 404.956,-112.5"/>
<text text-anchor="middle" x="434.456" y="-119.5" font-family="Helvetica,sans-Serif" font-size="10.00">functional</text>
</g>
<!-- Node30&#45;&gt;Node31 -->
<g id="edge50" class="edge"><title>Node30&#45;&gt;Node31</title>
<path fill="none" stroke="midnightblue" d="M524.412,-173.975C507.18,-164.211 478.716,-148.081 458.422,-136.581"/>
<polygon fill="midnightblue" stroke="midnightblue" points="459.897,-133.394 449.472,-131.509 456.446,-139.484 459.897,-133.394"/>
</g>
<!-- Node32 -->
<g id="node32" class="node"><title>Node32</title>
<g id="a_node32"><a xlink:href="CheckConfig_8h.html" target="_top" xlink:title="QualityControl/CheckConfig.h">
<polygon fill="none" stroke="black" points="481.956,-112.5 481.956,-131.5 628.956,-131.5 628.956,-112.5 481.956,-112.5"/>
<text text-anchor="middle" x="555.456" y="-119.5" font-family="Helvetica,sans-Serif" font-size="10.00">QualityControl/CheckConfig.h</text>
</a>
</g>
</g>
<!-- Node30&#45;&gt;Node32 -->
<g id="edge61" class="edge"><title>Node30&#45;&gt;Node32</title>
<path fill="none" stroke="midnightblue" d="M541.748,-173.975C544.029,-165.492 547.602,-152.204 550.529,-141.322"/>
<polygon fill="midnightblue" stroke="midnightblue" points="553.95,-142.075 553.167,-131.509 547.191,-140.257 553.95,-142.075"/>
</g>
<!-- Node32&#45;&gt;Node11 -->
<g id="edge62" class="edge"><title>Node32&#45;&gt;Node11</title>
<path fill="none" stroke="midnightblue" d="M560.759,-112.149C569.476,-98.3068 588.116,-71.5159 610.456,-56 639.388,-35.9055 678.289,-23.771 704.966,-17.2508"/>
<polygon fill="midnightblue" stroke="midnightblue" points="705.943,-20.6172 714.892,-14.9455 704.359,-13.7986 705.943,-20.6172"/>
</g>
<!-- Node32&#45;&gt;Node19 -->
<g id="edge63" class="edge"><title>Node32&#45;&gt;Node19</title>
<path fill="none" stroke="midnightblue" d="M572.486,-112.324C589.485,-103.664 615.832,-90.2424 635.448,-80.249"/>
<polygon fill="midnightblue" stroke="midnightblue" points="637.145,-83.3125 644.467,-75.6545 633.968,-77.0752 637.145,-83.3125"/>
</g>
<!-- Node33&#45;&gt;Node4 -->
<g id="edge66" class="edge"><title>Node33&#45;&gt;Node4</title>
<path fill="none" stroke="midnightblue" d="M241.799,-235.289C241.46,-217.423 238.22,-186.821 221.456,-168 206.784,-151.53 185.511,-141.072 164.88,-134.439"/>
<polygon fill="midnightblue" stroke="midnightblue" points="165.737,-131.043 155.155,-131.566 163.754,-137.756 165.737,-131.043"/>
</g>
<!-- Node33&#45;&gt;Node11 -->
<g id="edge65" class="edge"><title>Node33&#45;&gt;Node11</title>
<path fill="none" stroke="midnightblue" d="M170.073,-243.552C131.558,-237.348 84.9806,-224.709 50.4556,-199 16.1714,-173.471 -16.6458,-145.851 9.45561,-112 69.2261,-34.484 126.021,-72.7815 222.456,-56 403.322,-24.5257 624.096,-14.5909 704.389,-11.8915"/>
<polygon fill="midnightblue" stroke="midnightblue" points="704.885,-15.3774 714.767,-11.5572 704.66,-8.38108 704.885,-15.3774"/>
</g>
<!-- Node33&#45;&gt;Node30 -->
<g id="edge68" class="edge"><title>Node33&#45;&gt;Node30</title>
<path fill="none" stroke="midnightblue" d="M305.75,-235.476C361.136,-223.395 439.903,-206.215 490.349,-195.211"/>
<polygon fill="midnightblue" stroke="midnightblue" points="491.331,-198.579 500.355,-193.029 489.839,-191.74 491.331,-198.579"/>
</g>
<!-- Node34 -->
<g id="node34" class="node"><title>Node34</title>
<polygon fill="none" stroke="#bfbfbf" points="59.9556,-174 59.9556,-193 212.956,-193 212.956,-174 59.9556,-174"/>
<text text-anchor="middle" x="136.456" y="-181" font-family="Helvetica,sans-Serif" font-size="10.00">Framework/CompletionPolicy.h</text>
</g>
<!-- Node33&#45;&gt;Node34 -->
<g id="edge67" class="edge"><title>Node33&#45;&gt;Node34</title>
<path fill="none" stroke="midnightblue" d="M218.672,-235.396C200.901,-224.395 176.356,-209.2 158.719,-198.282"/>
<polygon fill="midnightblue" stroke="midnightblue" points="160.543,-195.295 150.198,-193.007 156.858,-201.247 160.543,-195.295"/>
</g>
</g>
</svg>
        <g id="navigator" transform="translate(0 0)" fill="#404254">
                <rect fill="#f2f5e9" fill-opacity="0.5" stroke="#606060" stroke-width=".5" x="0" y="0" width="60" height="60"/>
                <use id="zoomplus" xlink:href="#zoomPlus" x="17" y="9" onmousedown="handleZoom(evt,'in')"/>
                <use id="zoomminus" xlink:href="#zoomMin" x="42" y="9" onmousedown="handleZoom(evt,'out')"/>
                <use id="reset" xlink:href="#resetDef" x="30" y="36" onmousedown="handleReset()"/>
                <g id="arrowUp" xlink:href="#dirArrow" transform="translate(30 24)" onmousedown="handlePan(0,-1)">
                  <use xlink:href="#rim" fill="#404040">
                        <set attributeName="fill" to="#808080" begin="arrowUp.mouseover" end="arrowUp.mouseout"/>
                  </use>
                  <path fill="none" stroke="white" stroke-width="1.5" d="M0,-3.0v7 M-2.5,-0.5L0,-3.0L2.5,-0.5"/>
                </g>
                <g id="arrowRight" xlink:href="#dirArrow" transform="rotate(90) translate(36 -43)" onmousedown="handlePan(1,0)">
                  <use xlink:href="#rim" fill="#404040">
                        <set attributeName="fill" to="#808080" begin="arrowRight.mouseover" end="arrowRight.mouseout"/>
                  </use>
                  <path fill="none" stroke="white" stroke-width="1.5" d="M0,-3.0v7 M-2.5,-0.5L0,-3.0L2.5,-0.5"/>
                </g>
                <g id="arrowDown" xlink:href="#dirArrow" transform="rotate(180) translate(-30 -48)" onmousedown="handlePan(0,1)">
                  <use xlink:href="#rim" fill="#404040">
                        <set attributeName="fill" to="#808080" begin="arrowDown.mouseover" end="arrowDown.mouseout"/>
                  </use>
                  <path fill="none" stroke="white" stroke-width="1.5" d="M0,-3.0v7 M-2.5,-0.5L0,-3.0L2.5,-0.5"/>
                </g>
                <g id="arrowLeft" xlink:href="#dirArrow" transform="rotate(270) translate(-36 17)" onmousedown="handlePan(-1,0)">
                  <use xlink:href="#rim" fill="#404040">
                        <set attributeName="fill" to="#808080" begin="arrowLeft.mouseover" end="arrowLeft.mouseout"/>
                  </use>
                  <path fill="none" stroke="white" stroke-width="1.5" d="M0,-3.0v7 M-2.5,-0.5L0,-3.0L2.5,-0.5"/>
                </g>
        </g>
        <svg viewBox="0 0 15 15" width="100%" height="30px" preserveAspectRatio="xMaxYMin meet">
         <g id="arrow_out" transform="scale(0.3 0.3)">
          <a xlink:href="CheckRunnerFactory_8cxx__incl_org.svg" target="_base">
           <rect id="button" ry="5" rx="5" y="6" x="6" height="38" width="38"
                fill="#f2f5e9" fill-opacity="0.5" stroke="#606060" stroke-width="1.0"/>
           <path id="arrow"
             d="M 11.500037,31.436501 C 11.940474,20.09759 22.043105,11.32322 32.158766,21.979434 L 37.068811,17.246167 C 37.068811,17.246167 37.088388,32 37.088388,32 L 22.160133,31.978069 C 22.160133,31.978069 26.997745,27.140456 26.997745,27.140456 C 18.528582,18.264221 13.291696,25.230495 11.500037,31.436501 z"
             style="fill:#404040;"/>
          </a>
         </g>
        </svg>
</svg>
