<?xml version="1.0" encoding="UTF-8" standalone="no"?>
<!DOCTYPE svg PUBLIC "-//W3C//DTD SVG 1.1//EN"
 "http://www.w3.org/Graphics/SVG/1.1/DTD/svg11.dtd">
<!-- Generated by graphviz version 2.38.0 (20140413.2041)
 -->
<!-- Title: Modules/TOF/src/runTOF.cxx Pages: 1 -->
<svg width="2478pt" height="330pt"
 viewBox="0.00 0.00 2478.00 330.00" xmlns="http://www.w3.org/2000/svg" xmlns:xlink="http://www.w3.org/1999/xlink">
<g id="graph0" class="graph" transform="scale(1 1) rotate(0) translate(4 326)">
<title>Modules/TOF/src/runTOF.cxx</title>
<!-- Node1 -->
<g id="node1" class="node"><title>Node1</title>
<polygon fill="#bfbfbf" stroke="black" points="1664.5,-302.5 1664.5,-321.5 1811.5,-321.5 1811.5,-302.5 1664.5,-302.5"/>
<text text-anchor="middle" x="1738" y="-309.5" font-family="Helvetica,sans-Serif" font-size="10.00">Modules/TOF/src/runTOF.cxx</text>
</g>
<!-- Node2 -->
<g id="node2" class="node"><title>Node2</title>
<polygon fill="none" stroke="#bfbfbf" points="0,-246.5 0,-265.5 138,-265.5 138,-246.5 0,-246.5"/>
<text text-anchor="middle" x="69" y="-253.5" font-family="Helvetica,sans-Serif" font-size="10.00">Framework/DataSampling.h</text>
</g>
<!-- Node1&#45;&gt;Node2 -->
<g id="edge1" class="edge"><title>Node1&#45;&gt;Node2</title>
<path fill="none" stroke="midnightblue" d="M1664.38,-310.994C1438.27,-310.527 733.927,-305.742 152,-266 150.879,-265.923 149.75,-265.843 148.615,-265.76"/>
<polygon fill="midnightblue" stroke="midnightblue" points="148.503,-262.24 138.255,-264.927 147.942,-269.217 148.503,-262.24"/>
</g>
<!-- Node3 -->
<g id="node3" class="node"><title>Node3</title>
<g id="a_node3"><a xlink:href="InfrastructureGenerator_8h.html" target="_top" xlink:title="QualityControl/Infrastructure\lGenerator.h">
<polygon fill="none" stroke="black" points="36,-179.5 36,-209.5 176,-209.5 176,-179.5 36,-179.5"/>
<text text-anchor="start" x="44" y="-197.5" font-family="Helvetica,sans-Serif" font-size="10.00">QualityControl/Infrastructure</text>
<text text-anchor="middle" x="106" y="-186.5" font-family="Helvetica,sans-Serif" font-size="10.00">Generator.h</text>
</a>
</g>
</g>
<!-- Node1&#45;&gt;Node3 -->
<g id="edge2" class="edge"><title>Node1&#45;&gt;Node3</title>
<path fill="none" stroke="midnightblue" d="M1664.27,-310.202C1365.76,-306.801 259.515,-292.456 190,-266 163.698,-255.99 139.765,-234.036 124.234,-217.268"/>
<polygon fill="midnightblue" stroke="midnightblue" points="126.587,-214.648 117.311,-209.528 121.369,-219.315 126.587,-214.648"/>
</g>
<!-- Node5 -->
<g id="node5" class="node"><title>Node5</title>
<polygon fill="none" stroke="#bfbfbf" points="1039.5,-6 1039.5,-25 1080.5,-25 1080.5,-6 1039.5,-6"/>
<text text-anchor="middle" x="1060" y="-13" font-family="Helvetica,sans-Serif" font-size="10.00">string</text>
</g>
<!-- Node1&#45;&gt;Node5 -->
<g id="edge7" class="edge"><title>Node1&#45;&gt;Node5</title>
<path fill="none" stroke="midnightblue" d="M1664.29,-309.909C1437.99,-306.297 755.238,-293.366 535,-266 385.737,-247.453 204,-345.911 204,-195.5 204,-195.5 204,-195.5 204,-132 204,-46.9714 875.901,-21.9477 1029.14,-17.3462"/>
<polygon fill="midnightblue" stroke="midnightblue" points="1029.37,-20.8411 1039.26,-17.0497 1029.17,-13.8441 1029.37,-20.8411"/>
</g>
<!-- Node8 -->
<g id="node8" class="node"><title>Node8</title>
<polygon fill="none" stroke="#bfbfbf" points="2127.5,-246.5 2127.5,-265.5 2224.5,-265.5 2224.5,-246.5 2127.5,-246.5"/>
<text text-anchor="middle" x="2176" y="-253.5" font-family="Helvetica,sans-Serif" font-size="10.00">fairlogger/Logger.h</text>
</g>
<!-- Node1&#45;&gt;Node8 -->
<g id="edge8" class="edge"><title>Node1&#45;&gt;Node8</title>
<path fill="none" stroke="midnightblue" d="M1811.71,-302.65C1887.37,-293.963 2008.49,-279.733 2113,-266 2114.29,-265.83 2115.6,-265.656 2116.92,-265.48"/>
<polygon fill="midnightblue" stroke="midnightblue" points="2117.74,-268.901 2127.18,-264.085 2116.8,-261.965 2117.74,-268.901"/>
</g>
<!-- Node9 -->
<g id="node9" class="node"><title>Node9</title>
<polygon fill="none" stroke="#bfbfbf" points="2110,-123.5 2110,-142.5 2160,-142.5 2160,-123.5 2110,-123.5"/>
<text text-anchor="middle" x="2135" y="-130.5" font-family="Helvetica,sans-Serif" font-size="10.00">TH1F.h</text>
</g>
<!-- Node1&#45;&gt;Node9 -->
<g id="edge9" class="edge"><title>Node1&#45;&gt;Node9</title>
<path fill="none" stroke="midnightblue" d="M1757.15,-302.463C1821.33,-273.847 2029.14,-181.197 2106.04,-146.913"/>
<polygon fill="midnightblue" stroke="midnightblue" points="2107.87,-149.928 2115.58,-142.659 2105.02,-143.534 2107.87,-149.928"/>
</g>
<!-- Node10 -->
<g id="node10" class="node"><title>Node10</title>
<polygon fill="none" stroke="#bfbfbf" points="1608,-123.5 1608,-142.5 1660,-142.5 1660,-123.5 1608,-123.5"/>
<text text-anchor="middle" x="1634" y="-130.5" font-family="Helvetica,sans-Serif" font-size="10.00">memory</text>
</g>
<!-- Node1&#45;&gt;Node10 -->
<g id="edge10" class="edge"><title>Node1&#45;&gt;Node10</title>
<path fill="none" stroke="midnightblue" d="M1732.98,-302.463C1716.89,-275.078 1666.35,-189.052 1644.37,-151.653"/>
<polygon fill="midnightblue" stroke="midnightblue" points="1647.29,-149.717 1639.21,-142.868 1641.26,-153.263 1647.29,-149.717"/>
</g>
<!-- Node11 -->
<g id="node11" class="node"><title>Node11</title>
<polygon fill="none" stroke="#bfbfbf" points="2242.5,-246.5 2242.5,-265.5 2291.5,-265.5 2291.5,-246.5 2242.5,-246.5"/>
<text text-anchor="middle" x="2267" y="-253.5" font-family="Helvetica,sans-Serif" font-size="10.00">random</text>
</g>
<!-- Node1&#45;&gt;Node11 -->
<g id="edge11" class="edge"><title>Node1&#45;&gt;Node11</title>
<path fill="none" stroke="midnightblue" d="M1811.66,-308.361C1906.91,-304.048 2077.96,-293.247 2232.11,-266.068"/>
<polygon fill="midnightblue" stroke="midnightblue" points="2233.01,-269.463 2242.24,-264.254 2231.78,-262.572 2233.01,-269.463"/>
</g>
<!-- Node12 -->
<g id="node12" class="node"><title>Node12</title>
<polygon fill="none" stroke="#bfbfbf" points="2310,-246.5 2310,-265.5 2470,-265.5 2470,-246.5 2310,-246.5"/>
<text text-anchor="middle" x="2390" y="-253.5" font-family="Helvetica,sans-Serif" font-size="10.00">Framework/runDataProcessing.h</text>
</g>
<!-- Node1&#45;&gt;Node12 -->
<g id="edge12" class="edge"><title>Node1&#45;&gt;Node12</title>
<path fill="none" stroke="midnightblue" d="M1811.82,-305.597C1917.5,-297.751 2118.29,-282.433 2299.95,-266.078"/>
<polygon fill="midnightblue" stroke="midnightblue" points="2300.31,-269.56 2309.95,-265.175 2299.68,-262.588 2300.31,-269.56"/>
</g>
<!-- Node13 -->
<g id="node13" class="node"><title>Node13</title>
<g id="a_node13"><a xlink:href="CheckRunner_8h.html" target="_top" xlink:title="QualityControl/CheckRunner.h">
<polygon fill="none" stroke="black" points="980,-246.5 980,-265.5 1130,-265.5 1130,-246.5 980,-246.5"/>
<text text-anchor="middle" x="1055" y="-253.5" font-family="Helvetica,sans-Serif" font-size="10.00">QualityControl/CheckRunner.h</text>
</a>
</g>
</g>
<!-- Node1&#45;&gt;Node13 -->
<g id="edge13" class="edge"><title>Node1&#45;&gt;Node13</title>
<path fill="none" stroke="midnightblue" d="M1664.26,-305.17C1536.76,-295.089 1275.83,-274.459 1140.56,-263.765"/>
<polygon fill="midnightblue" stroke="midnightblue" points="1140.5,-260.249 1130.25,-262.95 1139.94,-267.227 1140.5,-260.249"/>
</g>
<!-- Node37 -->
<g id="node37" class="node"><title>Node37</title>
<g id="a_node37"><a xlink:href="runnerUtils_8h.html" target="_top" xlink:title="QualityControl/runnerUtils.h">
<polygon fill="none" stroke="black" points="1779.5,-67.5 1779.5,-86.5 1916.5,-86.5 1916.5,-67.5 1779.5,-67.5"/>
<text text-anchor="middle" x="1848" y="-74.5" font-family="Helvetica,sans-Serif" font-size="10.00">QualityControl/runnerUtils.h</text>
</a>
</g>
</g>
<!-- Node1&#45;&gt;Node37 -->
<g id="edge70" class="edge"><title>Node1&#45;&gt;Node37</title>
<path fill="none" stroke="midnightblue" d="M1811.71,-306.936C1912.62,-296.908 2090.21,-262.281 2169,-143 2173.9,-135.583 2174.83,-129.708 2169,-123 2138.22,-87.6013 2011.38,-79.2238 1926.66,-77.6859"/>
<polygon fill="midnightblue" stroke="midnightblue" points="1926.6,-74.1846 1916.54,-77.5309 1926.49,-81.1838 1926.6,-74.1846"/>
</g>
<!-- Node39 -->
<g id="node39" class="node"><title>Node39</title>
<g id="a_node39"><a xlink:href="ExamplePrinterSpec_8h.html" target="_top" xlink:title="QualityControl/ExamplePrinter\lSpec.h">
<polygon fill="none" stroke="black" points="1753.5,-179.5 1753.5,-209.5 1902.5,-209.5 1902.5,-179.5 1753.5,-179.5"/>
<text text-anchor="start" x="1761.5" y="-197.5" font-family="Helvetica,sans-Serif" font-size="10.00">QualityControl/ExamplePrinter</text>
<text text-anchor="middle" x="1828" y="-186.5" font-family="Helvetica,sans-Serif" font-size="10.00">Spec.h</text>
</a>
</g>
</g>
<!-- Node1&#45;&gt;Node39 -->
<g id="edge74" class="edge"><title>Node1&#45;&gt;Node39</title>
<path fill="none" stroke="midnightblue" d="M1744.76,-302.319C1758.65,-284.502 1790.73,-243.324 1810.77,-217.615"/>
<polygon fill="midnightblue" stroke="midnightblue" points="1813.67,-219.585 1817.06,-209.545 1808.15,-215.282 1813.67,-219.585"/>
</g>
<!-- Node42 -->
<g id="node42" class="node"><title>Node42</title>
<g id="a_node42"><a xlink:href="DataProducer_8h.html" target="_top" xlink:title="QualityControl/DataProducer.h">
<polygon fill="none" stroke="black" points="544,-246.5 544,-265.5 694,-265.5 694,-246.5 544,-246.5"/>
<text text-anchor="middle" x="619" y="-253.5" font-family="Helvetica,sans-Serif" font-size="10.00">QualityControl/DataProducer.h</text>
</a>
</g>
</g>
<!-- Node1&#45;&gt;Node42 -->
<g id="edge83" class="edge"><title>Node1&#45;&gt;Node42</title>
<path fill="none" stroke="midnightblue" d="M1664.15,-307.436C1464.75,-297.813 916.246,-271.344 704.22,-261.112"/>
<polygon fill="midnightblue" stroke="midnightblue" points="704.234,-257.609 694.076,-260.623 703.896,-264.601 704.234,-257.609"/>
</g>
<!-- Node4 -->
<g id="node4" class="node"><title>Node4</title>
<polygon fill="none" stroke="#bfbfbf" points="618,-123.5 618,-142.5 662,-142.5 662,-123.5 618,-123.5"/>
<text text-anchor="middle" x="640" y="-130.5" font-family="Helvetica,sans-Serif" font-size="10.00">vector</text>
</g>
<!-- Node3&#45;&gt;Node4 -->
<g id="edge3" class="edge"><title>Node3&#45;&gt;Node4</title>
<path fill="none" stroke="midnightblue" d="M176.154,-190.501C271.898,-185.512 448.829,-173.102 607.807,-142.902"/>
<polygon fill="midnightblue" stroke="midnightblue" points="608.611,-146.311 617.768,-140.981 607.286,-139.438 608.611,-146.311"/>
</g>
<!-- Node3&#45;&gt;Node5 -->
<g id="edge4" class="edge"><title>Node3&#45;&gt;Node5</title>
<path fill="none" stroke="midnightblue" d="M69.7158,-179.436C41.8646,-166.467 10.7131,-145.817 27,-123 71.5037,-60.6536 114.843,-81.8015 190,-67 355.849,-34.3375 894.996,-20.2197 1029.42,-17.1576"/>
<polygon fill="midnightblue" stroke="midnightblue" points="1029.52,-20.6564 1039.44,-16.9329 1029.36,-13.6581 1029.52,-20.6564"/>
</g>
<!-- Node6 -->
<g id="node6" class="node"><title>Node6</title>
<polygon fill="none" stroke="#bfbfbf" points="36,-123.5 36,-142.5 176,-142.5 176,-123.5 36,-123.5"/>
<text text-anchor="middle" x="106" y="-130.5" font-family="Helvetica,sans-Serif" font-size="10.00">Framework/WorkflowSpec.h</text>
</g>
<!-- Node3&#45;&gt;Node6 -->
<g id="edge5" class="edge"><title>Node3&#45;&gt;Node6</title>
<path fill="none" stroke="midnightblue" d="M106,-179.399C106,-171.466 106,-161.458 106,-152.858"/>
<polygon fill="midnightblue" stroke="midnightblue" points="109.5,-152.658 106,-142.658 102.5,-152.658 109.5,-152.658"/>
</g>
<!-- Node7 -->
<g id="node7" class="node"><title>Node7</title>
<polygon fill="none" stroke="#bfbfbf" points="232,-123.5 232,-142.5 396,-142.5 396,-123.5 232,-123.5"/>
<text text-anchor="middle" x="314" y="-130.5" font-family="Helvetica,sans-Serif" font-size="10.00">Framework/DataProcessorSpec.h</text>
</g>
<!-- Node3&#45;&gt;Node7 -->
<g id="edge6" class="edge"><title>Node3&#45;&gt;Node7</title>
<path fill="none" stroke="midnightblue" d="M155.03,-179.475C191.384,-169.075 240.314,-155.078 274.245,-145.372"/>
<polygon fill="midnightblue" stroke="midnightblue" points="275.612,-148.622 284.263,-142.506 273.686,-141.892 275.612,-148.622"/>
</g>
<!-- Node13&#45;&gt;Node4 -->
<g id="edge18" class="edge"><title>Node13&#45;&gt;Node4</title>
<path fill="none" stroke="midnightblue" d="M1050.47,-246.056C1041.6,-229.565 1020.2,-194.63 991,-179 867.654,-112.976 813.782,-168.441 672.143,-142.844"/>
<polygon fill="midnightblue" stroke="midnightblue" points="672.718,-139.391 662.239,-140.949 671.403,-146.266 672.718,-139.391"/>
</g>
<!-- Node13&#45;&gt;Node5 -->
<g id="edge16" class="edge"><title>Node13&#45;&gt;Node5</title>
<path fill="none" stroke="midnightblue" d="M979.789,-253.441C831.586,-249.758 512.596,-238.581 472,-210 438.556,-186.455 438.391,-163.741 442,-123 444.231,-97.816 433.304,-84.0193 452,-67 495.01,-27.8482 911.784,-18.7048 1029.3,-16.8974"/>
<polygon fill="midnightblue" stroke="midnightblue" points="1029.46,-20.3954 1039.41,-16.7488 1029.36,-13.3962 1029.46,-20.3954"/>
</g>
<!-- Node13&#45;&gt;Node7 -->
<g id="edge25" class="edge"><title>Node13&#45;&gt;Node7</title>
<path fill="none" stroke="midnightblue" d="M979.756,-252.476C801.452,-246.196 366.193,-229.001 341,-210 323.309,-196.657 317.172,-170.769 315.065,-152.944"/>
<polygon fill="midnightblue" stroke="midnightblue" points="318.54,-152.502 314.194,-142.84 311.566,-153.103 318.54,-152.502"/>
</g>
<!-- Node13&#45;&gt;Node10 -->
<g id="edge15" class="edge"><title>Node13&#45;&gt;Node10</title>
<path fill="none" stroke="midnightblue" d="M1130.45,-255.005C1253.38,-253.915 1490.66,-246.907 1565,-210 1591.13,-197.028 1612.05,-169.573 1623.75,-151.46"/>
<polygon fill="midnightblue" stroke="midnightblue" points="1627,-152.857 1629.27,-142.509 1621.04,-149.182 1627,-152.857"/>
</g>
<!-- Node14 -->
<g id="node14" class="node"><title>Node14</title>
<polygon fill="none" stroke="#bfbfbf" points="350,-185 350,-204 396,-204 396,-185 350,-185"/>
<text text-anchor="middle" x="373" y="-192" font-family="Helvetica,sans-Serif" font-size="10.00">chrono</text>
</g>
<!-- Node13&#45;&gt;Node14 -->
<g id="edge14" class="edge"><title>Node13&#45;&gt;Node14</title>
<path fill="none" stroke="midnightblue" d="M979.931,-252.62C833.898,-247.52 516.564,-234.006 410,-210 407.001,-209.324 403.924,-208.445 400.889,-207.452"/>
<polygon fill="midnightblue" stroke="midnightblue" points="402.069,-204.157 391.475,-204.011 399.665,-210.731 402.069,-204.157"/>
</g>
<!-- Node15 -->
<g id="node15" class="node"><title>Node15</title>
<polygon fill="none" stroke="#bfbfbf" points="1175.5,-6 1175.5,-25 1210.5,-25 1210.5,-6 1175.5,-6"/>
<text text-anchor="middle" x="1193" y="-13" font-family="Helvetica,sans-Serif" font-size="10.00">map</text>
</g>
<!-- Node13&#45;&gt;Node15 -->
<g id="edge17" class="edge"><title>Node13&#45;&gt;Node15</title>
<path fill="none" stroke="midnightblue" d="M1110.14,-246.42C1131.6,-240.092 1154.09,-229.098 1167,-210 1174.72,-198.585 1170.99,-192.187 1167,-179 1161.43,-160.595 1148.57,-161.405 1143,-143 1140.42,-134.493 1141.06,-131.676 1143,-123 1150.45,-89.5917 1169.57,-54.2861 1181.89,-33.8826"/>
<polygon fill="midnightblue" stroke="midnightblue" points="1185.02,-35.4808 1187.31,-25.1371 1179.07,-31.793 1185.02,-35.4808"/>
</g>
<!-- Node16 -->
<g id="node16" class="node"><title>Node16</title>
<polygon fill="none" stroke="#bfbfbf" points="490,-185 490,-204 568,-204 568,-185 490,-185"/>
<text text-anchor="middle" x="529" y="-192" font-family="Helvetica,sans-Serif" font-size="10.00">unordered_set</text>
</g>
<!-- Node13&#45;&gt;Node16 -->
<g id="edge19" class="edge"><title>Node13&#45;&gt;Node16</title>
<path fill="none" stroke="midnightblue" d="M979.822,-252.555C885.104,-248.416 717.688,-237.585 577,-210 572.771,-209.171 568.383,-208.12 564.056,-206.965"/>
<polygon fill="midnightblue" stroke="midnightblue" points="564.748,-203.523 554.171,-204.133 562.821,-210.252 564.748,-203.523"/>
</g>
<!-- Node17 -->
<g id="node17" class="node"><title>Node17</title>
<polygon fill="none" stroke="#bfbfbf" points="586,-185 586,-204 678,-204 678,-185 586,-185"/>
<text text-anchor="middle" x="632" y="-192" font-family="Helvetica,sans-Serif" font-size="10.00">Common/Timer.h</text>
</g>
<!-- Node13&#45;&gt;Node17 -->
<g id="edge20" class="edge"><title>Node13&#45;&gt;Node17</title>
<path fill="none" stroke="midnightblue" d="M979.825,-248.827C905.122,-241.985 787.504,-229.3 687,-210 681.918,-209.024 676.612,-207.84 671.386,-206.574"/>
<polygon fill="midnightblue" stroke="midnightblue" points="672.07,-203.137 661.516,-204.072 670.349,-209.922 672.07,-203.137"/>
</g>
<!-- Node18 -->
<g id="node18" class="node"><title>Node18</title>
<polygon fill="none" stroke="#bfbfbf" points="1716,-123.5 1716,-142.5 1814,-142.5 1814,-123.5 1716,-123.5"/>
<text text-anchor="middle" x="1765" y="-130.5" font-family="Helvetica,sans-Serif" font-size="10.00">Framework/Task.h</text>
</g>
<!-- Node13&#45;&gt;Node18 -->
<g id="edge21" class="edge"><title>Node13&#45;&gt;Node18</title>
<path fill="none" stroke="midnightblue" d="M1130.13,-253.087C1289.76,-248.546 1652.22,-235.539 1702,-210 1726.96,-197.194 1745.76,-169.693 1756.07,-151.524"/>
<polygon fill="midnightblue" stroke="midnightblue" points="1759.25,-153.007 1760.91,-142.543 1753.08,-149.685 1759.25,-153.007"/>
</g>
<!-- Node19 -->
<g id="node19" class="node"><title>Node19</title>
<polygon fill="none" stroke="#bfbfbf" points="696.5,-185 696.5,-204 813.5,-204 813.5,-185 696.5,-185"/>
<text text-anchor="middle" x="755" y="-192" font-family="Helvetica,sans-Serif" font-size="10.00">Headers/DataHeader.h</text>
</g>
<!-- Node13&#45;&gt;Node19 -->
<g id="edge22" class="edge"><title>Node13&#45;&gt;Node19</title>
<path fill="none" stroke="midnightblue" d="M1008.96,-246.423C961.918,-237.584 886.78,-223.264 822,-210 816.099,-208.792 809.913,-207.495 803.785,-206.191"/>
<polygon fill="midnightblue" stroke="midnightblue" points="804.099,-202.679 793.587,-204.005 802.631,-209.523 804.099,-202.679"/>
</g>
<!-- Node20 -->
<g id="node20" class="node"><title>Node20</title>
<polygon fill="none" stroke="#bfbfbf" points="831.5,-185 831.5,-204 982.5,-204 982.5,-185 831.5,-185"/>
<text text-anchor="middle" x="907" y="-192" font-family="Helvetica,sans-Serif" font-size="10.00">Monitoring/MonitoringFactory.h</text>
</g>
<!-- Node13&#45;&gt;Node20 -->
<g id="edge23" class="edge"><title>Node13&#45;&gt;Node20</title>
<path fill="none" stroke="midnightblue" d="M1033.8,-246.475C1008.63,-236.357 966.46,-219.405 937.721,-207.851"/>
<polygon fill="midnightblue" stroke="midnightblue" points="938.749,-204.492 928.165,-204.009 936.138,-210.987 938.749,-204.492"/>
</g>
<!-- Node21 -->
<g id="node21" class="node"><title>Node21</title>
<polygon fill="none" stroke="#bfbfbf" points="1403.5,-179.5 1403.5,-209.5 1538.5,-209.5 1538.5,-179.5 1403.5,-179.5"/>
<text text-anchor="start" x="1411.5" y="-197.5" font-family="Helvetica,sans-Serif" font-size="10.00">Configuration/Configuration</text>
<text text-anchor="middle" x="1471" y="-186.5" font-family="Helvetica,sans-Serif" font-size="10.00">Interface.h</text>
</g>
<!-- Node13&#45;&gt;Node21 -->
<g id="edge24" class="edge"><title>Node13&#45;&gt;Node21</title>
<path fill="none" stroke="midnightblue" d="M1127.91,-246.48C1194.39,-238.446 1295.56,-225.56 1393.37,-210.046"/>
<polygon fill="midnightblue" stroke="midnightblue" points="1394.11,-213.472 1403.43,-208.438 1393,-206.56 1394.11,-213.472"/>
</g>
<!-- Node22 -->
<g id="node22" class="node"><title>Node22</title>
<g id="a_node22"><a xlink:href="CheckInterface_8h.html" target="_top" xlink:title="QualityControl/CheckInterface.h">
<polygon fill="none" stroke="black" points="1152.5,-123.5 1152.5,-142.5 1309.5,-142.5 1309.5,-123.5 1152.5,-123.5"/>
<text text-anchor="middle" x="1231" y="-130.5" font-family="Helvetica,sans-Serif" font-size="10.00">QualityControl/CheckInterface.h</text>
</a>
</g>
</g>
<!-- Node13&#45;&gt;Node22 -->
<g id="edge26" class="edge"><title>Node13&#45;&gt;Node22</title>
<path fill="none" stroke="midnightblue" d="M1130.14,-253.6C1261.22,-250.374 1520.42,-240.21 1548,-210 1557.29,-199.824 1557.03,-189.404 1548,-179 1533.13,-161.872 1408.38,-148.293 1319.89,-140.7"/>
<polygon fill="midnightblue" stroke="midnightblue" points="1320.09,-137.204 1309.83,-139.849 1319.5,-144.179 1320.09,-137.204"/>
</g>
<!-- Node25 -->
<g id="node25" class="node"><title>Node25</title>
<g id="a_node25"><a xlink:href="MonitorObject_8h.html" target="_top" xlink:title="QualityControl/MonitorObject.h">
<polygon fill="none" stroke="black" points="1509.5,-67.5 1509.5,-86.5 1660.5,-86.5 1660.5,-67.5 1509.5,-67.5"/>
<text text-anchor="middle" x="1585" y="-74.5" font-family="Helvetica,sans-Serif" font-size="10.00">QualityControl/MonitorObject.h</text>
</a>
</g>
</g>
<!-- Node13&#45;&gt;Node25 -->
<g id="edge52" class="edge"><title>Node13&#45;&gt;Node25</title>
<path fill="none" stroke="midnightblue" d="M1130.17,-254.778C1258.86,-253.407 1515.39,-246.069 1597,-210 1642.91,-189.711 1694.78,-166.062 1669,-123 1659.85,-107.719 1643.54,-97.332 1627.71,-90.4255"/>
<polygon fill="midnightblue" stroke="midnightblue" points="1628.57,-87.0012 1617.99,-86.5623 1625.99,-93.5068 1628.57,-87.0012"/>
</g>
<!-- Node29 -->
<g id="node29" class="node"><title>Node29</title>
<g id="a_node29"><a xlink:href="DatabaseInterface_8h.html" target="_top" xlink:title="QualityControl/DatabaseInterface.h">
<polygon fill="none" stroke="black" points="1215,-185 1215,-204 1385,-204 1385,-185 1215,-185"/>
<text text-anchor="middle" x="1300" y="-192" font-family="Helvetica,sans-Serif" font-size="10.00">QualityControl/DatabaseInterface.h</text>
</a>
</g>
</g>
<!-- Node13&#45;&gt;Node29 -->
<g id="edge40" class="edge"><title>Node13&#45;&gt;Node29</title>
<path fill="none" stroke="midnightblue" d="M1090.1,-246.475C1133.49,-235.937 1207.41,-217.986 1254.95,-206.441"/>
<polygon fill="midnightblue" stroke="midnightblue" points="1256.07,-209.77 1264.96,-204.009 1254.42,-202.968 1256.07,-209.77"/>
</g>
<!-- Node32 -->
<g id="node32" class="node"><title>Node32</title>
<g id="a_node32"><a xlink:href="QcInfoLogger_8h.html" target="_top" xlink:title="QualityControl/QcInfoLogger.h">
<polygon fill="none" stroke="black" points="451.5,-123.5 451.5,-142.5 600.5,-142.5 600.5,-123.5 451.5,-123.5"/>
<text text-anchor="middle" x="526" y="-130.5" font-family="Helvetica,sans-Serif" font-size="10.00">QualityControl/QcInfoLogger.h</text>
</a>
</g>
</g>
<!-- Node13&#45;&gt;Node32 -->
<g id="edge53" class="edge"><title>Node13&#45;&gt;Node32</title>
<path fill="none" stroke="midnightblue" d="M979.962,-251.798C828.193,-244.957 497.701,-228.061 481,-210 463.861,-191.464 487.378,-165.337 506.347,-149.048"/>
<polygon fill="midnightblue" stroke="midnightblue" points="508.802,-151.562 514.323,-142.52 504.368,-146.145 508.802,-151.562"/>
</g>
<!-- Node34 -->
<g id="node34" class="node"><title>Node34</title>
<g id="a_node34"><a xlink:href="Check_8h_source.html" target="_top" xlink:title="QualityControl/Check.h">
<polygon fill="none" stroke="black" points="1039.5,-185 1039.5,-204 1158.5,-204 1158.5,-185 1039.5,-185"/>
<text text-anchor="middle" x="1099" y="-192" font-family="Helvetica,sans-Serif" font-size="10.00">QualityControl/Check.h</text>
</a>
</g>
</g>
<!-- Node13&#45;&gt;Node34 -->
<g id="edge55" class="edge"><title>Node13&#45;&gt;Node34</title>
<path fill="none" stroke="midnightblue" d="M1061.3,-246.475C1067.9,-237.55 1078.44,-223.307 1086.69,-212.143"/>
<polygon fill="midnightblue" stroke="midnightblue" points="1089.58,-214.131 1092.71,-204.009 1083.95,-209.968 1089.58,-214.131"/>
</g>
<!-- Node22&#45;&gt;Node5 -->
<g id="edge27" class="edge"><title>Node22&#45;&gt;Node5</title>
<path fill="none" stroke="midnightblue" d="M1218.15,-123.319C1188.93,-103.586 1117.29,-55.1991 1081.33,-30.9068"/>
<polygon fill="midnightblue" stroke="midnightblue" points="1083.25,-27.9789 1073,-25.282 1079.33,-33.7797 1083.25,-27.9789"/>
</g>
<!-- Node22&#45;&gt;Node15 -->
<g id="edge28" class="edge"><title>Node22&#45;&gt;Node15</title>
<path fill="none" stroke="midnightblue" d="M1228.14,-123.319C1221.98,-104.59 1207.33,-60.0458 1199.02,-34.7924"/>
<polygon fill="midnightblue" stroke="midnightblue" points="1202.34,-33.6873 1195.89,-25.282 1195.69,-35.875 1202.34,-33.6873"/>
</g>
<!-- Node23 -->
<g id="node23" class="node"><title>Node23</title>
<polygon fill="none" stroke="#bfbfbf" points="837.5,-67.5 837.5,-86.5 920.5,-86.5 920.5,-67.5 837.5,-67.5"/>
<text text-anchor="middle" x="879" y="-74.5" font-family="Helvetica,sans-Serif" font-size="10.00">unordered_map</text>
</g>
<!-- Node22&#45;&gt;Node23 -->
<g id="edge29" class="edge"><title>Node22&#45;&gt;Node23</title>
<path fill="none" stroke="midnightblue" d="M1175.22,-123.444C1108.06,-113.14 996.151,-95.972 930.809,-85.9479"/>
<polygon fill="midnightblue" stroke="midnightblue" points="931.151,-82.4595 920.735,-84.4026 930.089,-89.3786 931.151,-82.4595"/>
</g>
<!-- Node24 -->
<g id="node24" class="node"><title>Node24</title>
<polygon fill="none" stroke="#bfbfbf" points="1292,-6 1292,-25 1348,-25 1348,-6 1292,-6"/>
<text text-anchor="middle" x="1320" y="-13" font-family="Helvetica,sans-Serif" font-size="10.00">Rtypes.h</text>
</g>
<!-- Node22&#45;&gt;Node24 -->
<g id="edge30" class="edge"><title>Node22&#45;&gt;Node24</title>
<path fill="none" stroke="midnightblue" d="M1231.92,-123.234C1233.69,-109.973 1238.54,-84.5046 1251,-67 1261.95,-51.6244 1279.04,-39.0645 1293.48,-30.3163"/>
<polygon fill="midnightblue" stroke="midnightblue" points="1295.57,-33.1507 1302.49,-25.1266 1292.07,-27.085 1295.57,-33.1507"/>
</g>
<!-- Node22&#45;&gt;Node25 -->
<g id="edge31" class="edge"><title>Node22&#45;&gt;Node25</title>
<path fill="none" stroke="midnightblue" d="M1287.09,-123.444C1350.14,-113.826 1452.4,-98.2275 1519.18,-88.0409"/>
<polygon fill="midnightblue" stroke="midnightblue" points="1519.81,-91.4845 1529.17,-86.5164 1518.76,-84.5645 1519.81,-91.4845"/>
</g>
<!-- Node28 -->
<g id="node28" class="node"><title>Node28</title>
<g id="a_node28"><a xlink:href="Quality_8h.html" target="_top" xlink:title="QualityControl/Quality.h">
<polygon fill="none" stroke="black" points="1259.5,-67.5 1259.5,-86.5 1380.5,-86.5 1380.5,-67.5 1259.5,-67.5"/>
<text text-anchor="middle" x="1320" y="-74.5" font-family="Helvetica,sans-Serif" font-size="10.00">QualityControl/Quality.h</text>
</a>
</g>
</g>
<!-- Node22&#45;&gt;Node28 -->
<g id="edge37" class="edge"><title>Node22&#45;&gt;Node28</title>
<path fill="none" stroke="midnightblue" d="M1245.3,-123.324C1259.18,-114.9 1280.49,-101.971 1296.8,-92.0741"/>
<polygon fill="midnightblue" stroke="midnightblue" points="1299,-94.8341 1305.74,-86.6545 1295.37,-88.8495 1299,-94.8341"/>
</g>
<!-- Node25&#45;&gt;Node5 -->
<g id="edge32" class="edge"><title>Node25&#45;&gt;Node5</title>
<path fill="none" stroke="midnightblue" d="M1509.23,-68.5289C1425.25,-60.093 1285.83,-45.6272 1166,-31 1140.61,-27.9002 1111.85,-23.9388 1090.71,-20.9401"/>
<polygon fill="midnightblue" stroke="midnightblue" points="1091.09,-17.459 1080.69,-19.5114 1090.1,-24.3888 1091.09,-17.459"/>
</g>
<!-- Node25&#45;&gt;Node15 -->
<g id="edge33" class="edge"><title>Node25&#45;&gt;Node15</title>
<path fill="none" stroke="midnightblue" d="M1526.51,-67.4937C1465.65,-58.5936 1367.6,-44.1174 1283,-31 1262.05,-27.7516 1238.38,-23.9325 1220.58,-21.0294"/>
<polygon fill="midnightblue" stroke="midnightblue" points="1221.01,-17.5546 1210.58,-19.3955 1219.89,-24.4629 1221.01,-17.5546"/>
</g>
<!-- Node25&#45;&gt;Node24 -->
<g id="edge34" class="edge"><title>Node25&#45;&gt;Node24</title>
<path fill="none" stroke="midnightblue" d="M1547.03,-67.4751C1496.69,-56.1717 1408.36,-36.3385 1358,-25.0317"/>
<polygon fill="midnightblue" stroke="midnightblue" points="1358.68,-21.5976 1348.16,-22.8218 1357.15,-28.4276 1358.68,-21.5976"/>
</g>
<!-- Node26 -->
<g id="node26" class="node"><title>Node26</title>
<polygon fill="none" stroke="#bfbfbf" points="1564.5,-6 1564.5,-25 1623.5,-25 1623.5,-6 1564.5,-6"/>
<text text-anchor="middle" x="1594" y="-13" font-family="Helvetica,sans-Serif" font-size="10.00">TObject.h</text>
</g>
<!-- Node25&#45;&gt;Node26 -->
<g id="edge35" class="edge"><title>Node25&#45;&gt;Node26</title>
<path fill="none" stroke="midnightblue" d="M1586.29,-67.4751C1587.56,-59.0803 1589.54,-45.9806 1591.18,-35.1631"/>
<polygon fill="midnightblue" stroke="midnightblue" points="1594.68,-35.4201 1592.71,-25.0091 1587.76,-34.3731 1594.68,-35.4201"/>
</g>
<!-- Node27 -->
<g id="node27" class="node"><title>Node27</title>
<polygon fill="none" stroke="#bfbfbf" points="1660,-6 1660,-25 1776,-25 1776,-6 1660,-6"/>
<text text-anchor="middle" x="1718" y="-13" font-family="Helvetica,sans-Serif" font-size="10.00">Common/Exceptions.h</text>
</g>
<!-- Node25&#45;&gt;Node27 -->
<g id="edge36" class="edge"><title>Node25&#45;&gt;Node27</title>
<path fill="none" stroke="midnightblue" d="M1604.06,-67.4751C1626.47,-57.4455 1663.91,-40.7002 1689.71,-29.1546"/>
<polygon fill="midnightblue" stroke="midnightblue" points="1691.28,-32.2877 1698.98,-25.0091 1688.42,-25.8979 1691.28,-32.2877"/>
</g>
<!-- Node28&#45;&gt;Node5 -->
<g id="edge39" class="edge"><title>Node28&#45;&gt;Node5</title>
<path fill="none" stroke="midnightblue" d="M1282.75,-67.4751C1230.95,-55.6201 1138.14,-34.3827 1090.32,-23.4394"/>
<polygon fill="midnightblue" stroke="midnightblue" points="1091.09,-20.0237 1080.56,-21.2046 1089.53,-26.8473 1091.09,-20.0237"/>
</g>
<!-- Node28&#45;&gt;Node24 -->
<g id="edge38" class="edge"><title>Node28&#45;&gt;Node24</title>
<path fill="none" stroke="midnightblue" d="M1320,-67.4751C1320,-59.0803 1320,-45.9806 1320,-35.1631"/>
<polygon fill="midnightblue" stroke="midnightblue" points="1323.5,-35.0091 1320,-25.0091 1316.5,-35.0091 1323.5,-35.0091"/>
</g>
<!-- Node29&#45;&gt;Node4 -->
<g id="edge43" class="edge"><title>Node29&#45;&gt;Node4</title>
<path fill="none" stroke="midnightblue" d="M1226.18,-184.972C1206.93,-182.88 1186.2,-180.743 1167,-179 950.213,-159.322 890.354,-181.34 672.382,-142.873"/>
<polygon fill="midnightblue" stroke="midnightblue" points="672.678,-139.371 662.218,-141.057 671.446,-146.262 672.678,-139.371"/>
</g>
<!-- Node29&#45;&gt;Node5 -->
<g id="edge41" class="edge"><title>Node29&#45;&gt;Node5</title>
<path fill="none" stroke="midnightblue" d="M1226.09,-184.971C1188.96,-178.037 1144.62,-165.523 1110,-143 1083.24,-125.587 1076.66,-116.723 1065,-87 1058.49,-70.4156 1057.76,-49.9664 1058.34,-35.3705"/>
<polygon fill="midnightblue" stroke="midnightblue" points="1061.85,-35.3109 1059.01,-25.1055 1054.87,-34.8582 1061.85,-35.3109"/>
</g>
<!-- Node29&#45;&gt;Node10 -->
<g id="edge42" class="edge"><title>Node29&#45;&gt;Node10</title>
<path fill="none" stroke="midnightblue" d="M1354.61,-184.978C1413.76,-175.548 1510.81,-159.492 1594,-143 1595.26,-142.751 1596.53,-142.492 1597.82,-142.227"/>
<polygon fill="midnightblue" stroke="midnightblue" points="1598.74,-145.61 1607.79,-140.099 1597.28,-138.764 1598.74,-145.61"/>
</g>
<!-- Node29&#45;&gt;Node23 -->
<g id="edge44" class="edge"><title>Node29&#45;&gt;Node23</title>
<path fill="none" stroke="midnightblue" d="M1254.66,-184.943C1208.39,-175.866 1134.69,-160.445 1072,-143 1014.62,-127.033 949.193,-103.936 911.149,-90.0053"/>
<polygon fill="midnightblue" stroke="midnightblue" points="912.225,-86.6718 901.631,-86.5019 909.807,-93.2409 912.225,-86.6718"/>
</g>
<!-- Node29&#45;&gt;Node25 -->
<g id="edge51" class="edge"><title>Node29&#45;&gt;Node25</title>
<path fill="none" stroke="midnightblue" d="M1351.32,-184.952C1425.31,-172.436 1554.02,-149.864 1562,-143 1575.45,-131.427 1581.03,-111.466 1583.35,-96.7096"/>
<polygon fill="midnightblue" stroke="midnightblue" points="1586.84,-97.0121 1584.57,-86.6646 1579.89,-96.1727 1586.84,-97.0121"/>
</g>
<!-- Node30 -->
<g id="node30" class="node"><title>Node30</title>
<g id="a_node30"><a xlink:href="QualityObject_8h_source.html" target="_top" xlink:title="QualityControl/QualityObject.h">
<polygon fill="none" stroke="black" points="1403.5,-123.5 1403.5,-142.5 1552.5,-142.5 1552.5,-123.5 1403.5,-123.5"/>
<text text-anchor="middle" x="1478" y="-130.5" font-family="Helvetica,sans-Serif" font-size="10.00">QualityControl/QualityObject.h</text>
</a>
</g>
</g>
<!-- Node29&#45;&gt;Node30 -->
<g id="edge45" class="edge"><title>Node29&#45;&gt;Node30</title>
<path fill="none" stroke="midnightblue" d="M1325.5,-184.975C1356.3,-174.68 1408.27,-157.31 1442.85,-145.75"/>
<polygon fill="midnightblue" stroke="midnightblue" points="1444.17,-148.999 1452.54,-142.509 1441.95,-142.36 1444.17,-148.999"/>
</g>
<!-- Node30&#45;&gt;Node15 -->
<g id="edge47" class="edge"><title>Node30&#45;&gt;Node15</title>
<path fill="none" stroke="midnightblue" d="M1478.59,-123.41C1479.04,-109.436 1477.71,-81.8527 1462,-67 1453.21,-58.6881 1288.15,-31.6395 1221.03,-20.927"/>
<polygon fill="midnightblue" stroke="midnightblue" points="1221.2,-17.4101 1210.78,-19.2959 1220.1,-24.3232 1221.2,-17.4101"/>
</g>
<!-- Node30&#45;&gt;Node26 -->
<g id="edge48" class="edge"><title>Node30&#45;&gt;Node26</title>
<path fill="none" stroke="midnightblue" d="M1552.65,-124.041C1600.08,-117.269 1655.25,-105.613 1670,-87 1687.88,-64.4456 1653.76,-42.5582 1625.63,-29.3063"/>
<polygon fill="midnightblue" stroke="midnightblue" points="1626.96,-26.0668 1616.41,-25.1547 1624.09,-32.4502 1626.96,-26.0668"/>
</g>
<!-- Node30&#45;&gt;Node27 -->
<g id="edge49" class="edge"><title>Node30&#45;&gt;Node27</title>
<path fill="none" stroke="midnightblue" d="M1549.38,-123.481C1600.97,-116.065 1665.12,-103.849 1686,-87 1701.98,-74.1076 1710.28,-51.5006 1714.38,-35.362"/>
<polygon fill="midnightblue" stroke="midnightblue" points="1717.84,-35.9425 1716.59,-25.4215 1711,-34.4245 1717.84,-35.9425"/>
</g>
<!-- Node30&#45;&gt;Node28 -->
<g id="edge50" class="edge"><title>Node30&#45;&gt;Node28</title>
<path fill="none" stroke="midnightblue" d="M1452.96,-123.444C1426.38,-114.359 1384.19,-99.9388 1354.48,-89.7831"/>
<polygon fill="midnightblue" stroke="midnightblue" points="1355.51,-86.4386 1344.92,-86.5164 1353.25,-93.0625 1355.51,-86.4386"/>
</g>
<!-- Node31 -->
<g id="node31" class="node"><title>Node31</title>
<polygon fill="none" stroke="#bfbfbf" points="1399,-67.5 1399,-86.5 1453,-86.5 1453,-67.5 1399,-67.5"/>
<text text-anchor="middle" x="1426" y="-74.5" font-family="Helvetica,sans-Serif" font-size="10.00">iostream</text>
</g>
<!-- Node30&#45;&gt;Node31 -->
<g id="edge46" class="edge"><title>Node30&#45;&gt;Node31</title>
<path fill="none" stroke="midnightblue" d="M1469.41,-123.083C1461.84,-115.22 1450.62,-103.569 1441.49,-94.0813"/>
<polygon fill="midnightblue" stroke="midnightblue" points="1443.88,-91.5266 1434.43,-86.7511 1438.84,-96.3821 1443.88,-91.5266"/>
</g>
<!-- Node33 -->
<g id="node33" class="node"><title>Node33</title>
<polygon fill="none" stroke="#bfbfbf" points="461,-67.5 461,-86.5 591,-86.5 591,-67.5 461,-67.5"/>
<text text-anchor="middle" x="526" y="-74.5" font-family="Helvetica,sans-Serif" font-size="10.00">InfoLogger/InfoLogger.hxx</text>
</g>
<!-- Node32&#45;&gt;Node33 -->
<g id="edge54" class="edge"><title>Node32&#45;&gt;Node33</title>
<path fill="none" stroke="midnightblue" d="M526,-123.083C526,-116.006 526,-105.861 526,-96.9865"/>
<polygon fill="midnightblue" stroke="midnightblue" points="529.5,-96.751 526,-86.7511 522.5,-96.7511 529.5,-96.751"/>
</g>
<!-- Node34&#45;&gt;Node4 -->
<g id="edge58" class="edge"><title>Node34&#45;&gt;Node4</title>
<path fill="none" stroke="midnightblue" d="M1059.18,-184.998C1048.14,-182.833 1036.14,-180.654 1025,-179 871.779,-156.247 828.024,-172.473 672.172,-142.897"/>
<polygon fill="midnightblue" stroke="midnightblue" points="672.715,-139.437 662.233,-140.978 671.388,-146.31 672.715,-139.437"/>
</g>
<!-- Node34&#45;&gt;Node7 -->
<g id="edge61" class="edge"><title>Node34&#45;&gt;Node7</title>
<path fill="none" stroke="midnightblue" d="M1041.07,-184.985C1024.89,-182.807 1007.28,-180.625 991,-179 747.685,-154.717 685.962,-159.575 442,-143 430.453,-142.215 418.321,-141.379 406.317,-140.543"/>
<polygon fill="midnightblue" stroke="midnightblue" points="406.499,-137.047 396.279,-139.843 406.012,-144.03 406.499,-137.047"/>
</g>
<!-- Node34&#45;&gt;Node10 -->
<g id="edge59" class="edge"><title>Node34&#45;&gt;Node10</title>
<path fill="none" stroke="midnightblue" d="M1158.66,-185.05C1174.07,-182.968 1190.64,-180.817 1206,-179 1363.93,-160.32 1403.98,-160.864 1562,-143 1573.6,-141.689 1586.23,-140.148 1597.63,-138.716"/>
<polygon fill="midnightblue" stroke="midnightblue" points="1598.21,-142.171 1607.69,-137.44 1597.33,-135.226 1598.21,-142.171"/>
</g>
<!-- Node34&#45;&gt;Node15 -->
<g id="edge57" class="edge"><title>Node34&#45;&gt;Node15</title>
<path fill="none" stroke="midnightblue" d="M1080.29,-184.929C1056.51,-172.746 1020.12,-148.995 1034,-123 1061.89,-70.7571 1128.02,-39.6347 1165.62,-25.5482"/>
<polygon fill="midnightblue" stroke="midnightblue" points="1167.19,-28.7031 1175.42,-22.0235 1164.82,-22.1167 1167.19,-28.7031"/>
</g>
<!-- Node34&#45;&gt;Node22 -->
<g id="edge65" class="edge"><title>Node34&#45;&gt;Node22</title>
<path fill="none" stroke="midnightblue" d="M1117.91,-184.975C1140.16,-174.945 1177.31,-158.2 1202.93,-146.655"/>
<polygon fill="midnightblue" stroke="midnightblue" points="1204.44,-149.809 1212.12,-142.509 1201.57,-143.428 1204.44,-149.809"/>
</g>
<!-- Node34&#45;&gt;Node23 -->
<g id="edge60" class="edge"><title>Node34&#45;&gt;Node23</title>
<path fill="none" stroke="midnightblue" d="M1058.31,-184.995C994.517,-171.571 877.89,-146.615 875,-143 864.647,-130.053 867.466,-110.614 871.764,-96.3665"/>
<polygon fill="midnightblue" stroke="midnightblue" points="875.155,-97.2719 875.146,-86.6771 868.546,-94.9652 875.155,-97.2719"/>
</g>
<!-- Node34&#45;&gt;Node25 -->
<g id="edge64" class="edge"><title>Node34&#45;&gt;Node25</title>
<path fill="none" stroke="midnightblue" d="M1147.06,-184.968C1195.22,-176.018 1271.3,-160.793 1336,-143 1362.7,-135.658 1368.39,-130.643 1395,-123 1441.66,-109.599 1495.57,-97.1096 1534.02,-88.7052"/>
<polygon fill="midnightblue" stroke="midnightblue" points="1534.91,-92.0934 1543.94,-86.5523 1533.43,-85.2526 1534.91,-92.0934"/>
</g>
<!-- Node34&#45;&gt;Node28 -->
<g id="edge62" class="edge"><title>Node34&#45;&gt;Node28</title>
<path fill="none" stroke="midnightblue" d="M1151.09,-184.988C1212.73,-174.393 1308.4,-156.1 1319,-143 1329.41,-130.135 1328.22,-110.684 1325.31,-96.4117"/>
<polygon fill="midnightblue" stroke="midnightblue" points="1328.71,-95.5688 1322.91,-86.7017 1321.91,-97.2495 1328.71,-95.5688"/>
</g>
<!-- Node34&#45;&gt;Node30 -->
<g id="edge63" class="edge"><title>Node34&#45;&gt;Node30</title>
<path fill="none" stroke="midnightblue" d="M1153.3,-184.975C1222.11,-174.172 1340.55,-155.578 1413.78,-144.083"/>
<polygon fill="midnightblue" stroke="midnightblue" points="1414.46,-147.518 1423.8,-142.509 1413.38,-140.602 1414.46,-147.518"/>
</g>
<!-- Node34&#45;&gt;Node32 -->
<g id="edge66" class="edge"><title>Node34&#45;&gt;Node32</title>
<path fill="none" stroke="midnightblue" d="M1039.35,-185.063C1023.64,-182.958 1006.69,-180.792 991,-179 824.798,-160.019 780.341,-160.179 610.676,-143.156"/>
<polygon fill="midnightblue" stroke="midnightblue" points="610.952,-139.666 600.651,-142.145 610.25,-146.631 610.952,-139.666"/>
</g>
<!-- Node35 -->
<g id="node35" class="node"><title>Node35</title>
<polygon fill="none" stroke="#bfbfbf" points="884.5,-123.5 884.5,-142.5 943.5,-142.5 943.5,-123.5 884.5,-123.5"/>
<text text-anchor="middle" x="914" y="-130.5" font-family="Helvetica,sans-Serif" font-size="10.00">functional</text>
</g>
<!-- Node34&#45;&gt;Node35 -->
<g id="edge56" class="edge"><title>Node34&#45;&gt;Node35</title>
<path fill="none" stroke="midnightblue" d="M1072.49,-184.975C1040.35,-174.636 986.013,-157.161 950.073,-145.602"/>
<polygon fill="midnightblue" stroke="midnightblue" points="951.048,-142.239 940.457,-142.509 948.905,-148.903 951.048,-142.239"/>
</g>
<!-- Node36 -->
<g id="node36" class="node"><title>Node36</title>
<g id="a_node36"><a xlink:href="CheckConfig_8h.html" target="_top" xlink:title="QualityControl/CheckConfig.h">
<polygon fill="none" stroke="black" points="680.5,-123.5 680.5,-142.5 827.5,-142.5 827.5,-123.5 680.5,-123.5"/>
<text text-anchor="middle" x="754" y="-130.5" font-family="Helvetica,sans-Serif" font-size="10.00">QualityControl/CheckConfig.h</text>
</a>
</g>
</g>
<!-- Node34&#45;&gt;Node36 -->
<g id="edge67" class="edge"><title>Node34&#45;&gt;Node36</title>
<path fill="none" stroke="midnightblue" d="M1056.39,-184.931C1046.12,-182.927 1035.18,-180.842 1025,-179 954.311,-166.208 872.988,-152.891 818.017,-144.094"/>
<polygon fill="midnightblue" stroke="midnightblue" points="818.495,-140.626 808.068,-142.506 817.391,-147.539 818.495,-140.626"/>
</g>
<!-- Node36&#45;&gt;Node5 -->
<g id="edge68" class="edge"><title>Node36&#45;&gt;Node5</title>
<path fill="none" stroke="midnightblue" d="M761.204,-123.293C773.409,-109.152 799.608,-81.3342 828,-67 894.599,-33.3761 982.991,-22.0541 1029.07,-18.3059"/>
<polygon fill="midnightblue" stroke="midnightblue" points="1029.59,-21.7768 1039.31,-17.5429 1029.07,-14.7962 1029.59,-21.7768"/>
</g>
<!-- Node36&#45;&gt;Node23 -->
<g id="edge69" class="edge"><title>Node36&#45;&gt;Node23</title>
<path fill="none" stroke="midnightblue" d="M773.807,-123.444C794.287,-114.596 826.483,-100.687 849.865,-90.5865"/>
<polygon fill="midnightblue" stroke="midnightblue" points="851.494,-93.6953 859.286,-86.5164 848.718,-87.2692 851.494,-93.6953"/>
</g>
<!-- Node37&#45;&gt;Node5 -->
<g id="edge71" class="edge"><title>Node37&#45;&gt;Node5</title>
<path fill="none" stroke="midnightblue" d="M1779.37,-72.086C1630.85,-63.5146 1283.54,-42.9023 1166,-31 1140.55,-28.4227 1111.8,-24.4215 1090.67,-21.2746"/>
<polygon fill="midnightblue" stroke="midnightblue" points="1091.08,-17.7963 1080.67,-19.7637 1090.03,-24.7178 1091.08,-17.7963"/>
</g>
<!-- Node37&#45;&gt;Node27 -->
<g id="edge73" class="edge"><title>Node37&#45;&gt;Node27</title>
<path fill="none" stroke="midnightblue" d="M1829.37,-67.4751C1807.56,-57.4897 1771.2,-40.8476 1745.98,-29.3075"/>
<polygon fill="midnightblue" stroke="midnightblue" points="1747.14,-25.9884 1736.59,-25.0091 1744.23,-32.3534 1747.14,-25.9884"/>
</g>
<!-- Node38 -->
<g id="node38" class="node"><title>Node38</title>
<polygon fill="none" stroke="#bfbfbf" points="1794.5,-0.5 1794.5,-30.5 1929.5,-30.5 1929.5,-0.5 1794.5,-0.5"/>
<text text-anchor="start" x="1802.5" y="-18.5" font-family="Helvetica,sans-Serif" font-size="10.00">Configuration/Configuration</text>
<text text-anchor="middle" x="1862" y="-7.5" font-family="Helvetica,sans-Serif" font-size="10.00">Factory.h</text>
</g>
<!-- Node37&#45;&gt;Node38 -->
<g id="edge72" class="edge"><title>Node37&#45;&gt;Node38</title>
<path fill="none" stroke="midnightblue" d="M1850.01,-67.4751C1851.67,-60.3957 1854.12,-49.9705 1856.38,-40.3896"/>
<polygon fill="midnightblue" stroke="midnightblue" points="1859.82,-41.0588 1858.7,-30.523 1853,-39.4555 1859.82,-41.0588"/>
</g>
<!-- Node39&#45;&gt;Node5 -->
<g id="edge75" class="edge"><title>Node39&#45;&gt;Node5</title>
<path fill="none" stroke="midnightblue" d="M1753.21,-189.762C1580.95,-180.912 1168.97,-158.279 1143,-143 1101.25,-118.431 1076.57,-63.6027 1066.04,-34.8691"/>
<polygon fill="midnightblue" stroke="midnightblue" points="1069.29,-33.5441 1062.69,-25.2518 1062.68,-35.8466 1069.29,-33.5441"/>
</g>
<!-- Node39&#45;&gt;Node9 -->
<g id="edge77" class="edge"><title>Node39&#45;&gt;Node9</title>
<path fill="none" stroke="midnightblue" d="M1902.76,-181.246C1955.32,-172.264 2027.5,-159.204 2099.63,-143.179"/>
<polygon fill="midnightblue" stroke="midnightblue" points="2100.81,-146.501 2109.8,-140.898 2099.28,-139.67 2100.81,-146.501"/>
</g>
<!-- Node39&#45;&gt;Node10 -->
<g id="edge76" class="edge"><title>Node39&#45;&gt;Node10</title>
<path fill="none" stroke="midnightblue" d="M1782.02,-179.399C1747.75,-168.887 1701.59,-154.731 1669.99,-145.037"/>
<polygon fill="midnightblue" stroke="midnightblue" points="1670.86,-141.643 1660.27,-142.057 1668.8,-148.335 1670.86,-141.643"/>
</g>
<!-- Node39&#45;&gt;Node18 -->
<g id="edge79" class="edge"><title>Node39&#45;&gt;Node18</title>
<path fill="none" stroke="midnightblue" d="M1813.07,-179.399C1803.63,-170.486 1791.42,-158.952 1781.67,-149.741"/>
<polygon fill="midnightblue" stroke="midnightblue" points="1783.84,-146.979 1774.17,-142.658 1779.03,-152.069 1783.84,-146.979"/>
</g>
<!-- Node39&#45;&gt;Node25 -->
<g id="edge81" class="edge"><title>Node39&#45;&gt;Node25</title>
<path fill="none" stroke="midnightblue" d="M1831.55,-179.412C1834.6,-163.644 1836.62,-138.306 1823,-123 1802.95,-100.471 1730.63,-89.0609 1670.93,-83.3823"/>
<polygon fill="midnightblue" stroke="midnightblue" points="1670.98,-79.8727 1660.71,-82.4532 1670.35,-86.844 1670.98,-79.8727"/>
</g>
<!-- Node39&#45;&gt;Node30 -->
<g id="edge82" class="edge"><title>Node39&#45;&gt;Node30</title>
<path fill="none" stroke="midnightblue" d="M1753.35,-180.809C1689.1,-169.888 1597.61,-154.334 1538.02,-144.204"/>
<polygon fill="midnightblue" stroke="midnightblue" points="1538.46,-140.728 1528.01,-142.502 1537.29,-147.629 1538.46,-140.728"/>
</g>
<!-- Node40 -->
<g id="node40" class="node"><title>Node40</title>
<polygon fill="none" stroke="#bfbfbf" points="2022.5,-123.5 2022.5,-142.5 2091.5,-142.5 2091.5,-123.5 2022.5,-123.5"/>
<text text-anchor="middle" x="2057" y="-130.5" font-family="Helvetica,sans-Serif" font-size="10.00">TObjArray.h</text>
</g>
<!-- Node39&#45;&gt;Node40 -->
<g id="edge78" class="edge"><title>Node39&#45;&gt;Node40</title>
<path fill="none" stroke="midnightblue" d="M1881.98,-179.475C1922.35,-168.986 1976.8,-154.837 2014.19,-145.122"/>
<polygon fill="midnightblue" stroke="midnightblue" points="2015.46,-148.409 2024.26,-142.506 2013.7,-141.634 2015.46,-148.409"/>
</g>
<!-- Node41 -->
<g id="node41" class="node"><title>Node41</title>
<polygon fill="none" stroke="#bfbfbf" points="1870,-123.5 1870,-142.5 2004,-142.5 2004,-123.5 1870,-123.5"/>
<text text-anchor="middle" x="1937" y="-130.5" font-family="Helvetica,sans-Serif" font-size="10.00">Framework/DataRefUtils.h</text>
</g>
<!-- Node39&#45;&gt;Node41 -->
<g id="edge80" class="edge"><title>Node39&#45;&gt;Node41</title>
<path fill="none" stroke="midnightblue" d="M1853.83,-179.399C1871.47,-169.773 1894.7,-157.09 1912.13,-147.577"/>
<polygon fill="midnightblue" stroke="midnightblue" points="1914.04,-150.521 1921.14,-142.658 1910.69,-144.377 1914.04,-150.521"/>
</g>
<!-- Node42&#45;&gt;Node7 -->
<g id="edge84" class="edge"><title>Node42&#45;&gt;Node7</title>
<path fill="none" stroke="midnightblue" d="M543.917,-254.969C461.817,-253.148 337.905,-244.544 308,-210 294.369,-194.255 299.761,-169.155 305.941,-152.147"/>
<polygon fill="midnightblue" stroke="midnightblue" points="309.232,-153.342 309.727,-142.759 302.741,-150.724 309.232,-153.342"/>
</g>
</g>
</svg>
