<?xml version="1.0" encoding="UTF-8" standalone="no"?>
<!DOCTYPE svg PUBLIC "-//W3C//DTD SVG 1.1//EN"
 "http://www.w3.org/Graphics/SVG/1.1/DTD/svg11.dtd">
<!-- Generated by graphviz version 2.38.0 (20140413.2041)
 -->
<!-- Title: Framework/test/testCheckRunner.cxx Pages: 1 -->
<!--zoomable 341 -->
<svg id="main" version="1.1" xmlns="http://www.w3.org/2000/svg" xmlns:xlink="http://www.w3.org/1999/xlink" xml:space="preserve" onload="init(evt)">
<style type="text/css"><![CDATA[
.edge:hover path { stroke: red; }
.edge:hover polygon { stroke: red; fill: red; }
]]></style>
<script type="text/javascript"><![CDATA[
var edges = document.getElementsByTagName('g');
if (edges && edges.length) {
  for (var i=0;i<edges.length;i++) {
    if (edges[i].id.substr(0,4)=='edge') {
      edges[i].setAttribute('class','edge');
    }
  }
}
]]></script>
        <defs>
                <circle id="rim" cx="0" cy="0" r="7"/>
                <circle id="rim2" cx="0" cy="0" r="3.5"/>
                <g id="zoomPlus">
                        <use xlink:href="#rim" fill="#404040">
                                <set attributeName="fill" to="#808080" begin="zoomplus.mouseover" end="zoomplus.mouseout"/>
                        </use>
                        <path d="M-4,0h8M0,-4v8" fill="none" stroke="white" stroke-width="1.5" pointer-events="none"/>
                </g>
                <g id="zoomMin">
                        <use xlink:href="#rim" fill="#404040">
                                <set attributeName="fill" to="#808080" begin="zoomminus.mouseover" end="zoomminus.mouseout"/>
                        </use>
                        <path d="M-4,0h8" fill="none" stroke="white" stroke-width="1.5" pointer-events="none"/>
                </g>
                <g id="dirArrow">
                        <path fill="none" stroke="white" stroke-width="1.5" d="M0,-3.0v7 M-2.5,-0.5L0,-3.0L2.5,-0.5"/>
                </g>
               <g id="resetDef">
                       <use xlink:href="#rim2" fill="#404040">
                               <set attributeName="fill" to="#808080" begin="reset.mouseover" end="reset.mouseout"/>
                       </use>
               </g>
        </defs>

<script type="text/javascript">
var viewWidth = 1692;
var viewHeight = 341;
var sectionId = 'dynsection-0';
</script>
<script xlink:href="svgpan.js"/>
<svg id="graph" class="graph">
<g id="viewport">
<title>Framework/test/testCheckRunner.cxx</title>
<!-- Node1 -->
<g id="node1" class="node"><title>Node1</title>
<polygon fill="#bfbfbf" stroke="black" points="1087.91,-302.5 1087.91,-332.5 1220.91,-332.5 1220.91,-302.5 1087.91,-302.5"/>
<text text-anchor="start" x="1095.91" y="-320.5" font-family="Helvetica,sans-Serif" font-size="10.00">Framework/test/testCheck</text>
<text text-anchor="middle" x="1154.41" y="-309.5" font-family="Helvetica,sans-Serif" font-size="10.00">Runner.cxx</text>
</g>
<!-- Node2 -->
<g id="node2" class="node"><title>Node2</title>
<g id="a_node2"><a xlink:href="CheckRunnerFactory_8h.html" target="_top" xlink:title="QualityControl/CheckRunner\lFactory.h">
<polygon fill="none" stroke="black" points="124.411,-235.5 124.411,-265.5 266.411,-265.5 266.411,-235.5 124.411,-235.5"/>
<text text-anchor="start" x="132.411" y="-253.5" font-family="Helvetica,sans-Serif" font-size="10.00">QualityControl/CheckRunner</text>
<text text-anchor="middle" x="195.411" y="-242.5" font-family="Helvetica,sans-Serif" font-size="10.00">Factory.h</text>
</a>
</g>
</g>
<!-- Node1&#45;&gt;Node2 -->
<g id="edge1" class="edge"><title>Node1&#45;&gt;Node2</title>
<path fill="none" stroke="midnightblue" d="M1087.74,-311.981C916.626,-300.383 462.384,-269.595 276.467,-256.994"/>
<polygon fill="midnightblue" stroke="midnightblue" points="276.695,-253.501 266.481,-256.317 276.222,-260.485 276.695,-253.501"/>
</g>
<!-- Node23 -->
<g id="node23" class="node"><title>Node23</title>
<g id="a_node23"><a xlink:href="CheckRunner_8h.html" target="_top" xlink:title="QualityControl/CheckRunner.h">
<polygon fill="none" stroke="black" points="917.411,-241 917.411,-260 1067.41,-260 1067.41,-241 917.411,-241"/>
<text text-anchor="middle" x="992.411" y="-248" font-family="Helvetica,sans-Serif" font-size="10.00">QualityControl/CheckRunner.h</text>
</a>
</g>
</g>
<!-- Node1&#45;&gt;Node23 -->
<g id="edge39" class="edge"><title>Node1&#45;&gt;Node23</title>
<path fill="none" stroke="midnightblue" d="M1119.26,-302.396C1090.58,-290.89 1050.48,-274.797 1023.08,-263.807"/>
<polygon fill="midnightblue" stroke="midnightblue" points="1024.2,-260.483 1013.61,-260.007 1021.59,-266.979 1024.2,-260.483"/>
</g>
<!-- Node32 -->
<g id="node32" class="node"><title>Node32</title>
<polygon fill="none" stroke="#bfbfbf" points="1085.41,-241 1085.41,-260 1223.41,-260 1223.41,-241 1085.41,-241"/>
<text text-anchor="middle" x="1154.41" y="-248" font-family="Helvetica,sans-Serif" font-size="10.00">Framework/DataSampling.h</text>
</g>
<!-- Node1&#45;&gt;Node32 -->
<g id="edge63" class="edge"><title>Node1&#45;&gt;Node32</title>
<path fill="none" stroke="midnightblue" d="M1154.41,-302.396C1154.41,-293.064 1154.41,-280.714 1154.41,-270.517"/>
<polygon fill="midnightblue" stroke="midnightblue" points="1157.91,-270.195 1154.41,-260.195 1150.91,-270.195 1157.91,-270.195"/>
</g>
<!-- Node33 -->
<g id="node33" class="node"><title>Node33</title>
<polygon fill="none" stroke="#bfbfbf" points="1241.91,-241 1241.91,-260 1360.91,-260 1360.91,-241 1241.91,-241"/>
<text text-anchor="middle" x="1301.41" y="-248" font-family="Helvetica,sans-Serif" font-size="10.00">getTestDataDirectory.h</text>
</g>
<!-- Node1&#45;&gt;Node33 -->
<g id="edge64" class="edge"><title>Node1&#45;&gt;Node33</title>
<path fill="none" stroke="midnightblue" d="M1186.31,-302.396C1212.1,-290.991 1248.09,-275.079 1272.92,-264.098"/>
<polygon fill="midnightblue" stroke="midnightblue" points="1274.44,-267.252 1282.17,-260.007 1271.61,-260.85 1274.44,-267.252"/>
</g>
<!-- Node34 -->
<g id="node34" class="node"><title>Node34</title>
<polygon fill="none" stroke="#bfbfbf" points="1378.91,-241 1378.91,-260 1497.91,-260 1497.91,-241 1378.91,-241"/>
<text text-anchor="middle" x="1438.41" y="-248" font-family="Helvetica,sans-Serif" font-size="10.00">boost/test/unit_test.hpp</text>
</g>
<!-- Node1&#45;&gt;Node34 -->
<g id="edge65" class="edge"><title>Node1&#45;&gt;Node34</title>
<path fill="none" stroke="midnightblue" d="M1215.69,-302.476C1268.36,-290.421 1343.22,-273.286 1391.31,-262.28"/>
<polygon fill="midnightblue" stroke="midnightblue" points="1392.18,-265.672 1401.15,-260.029 1390.62,-258.848 1392.18,-265.672"/>
</g>
<!-- Node3 -->
<g id="node3" class="node"><title>Node3</title>
<polygon fill="none" stroke="#bfbfbf" points="747.911,-0.5 747.911,-19.5 788.911,-19.5 788.911,-0.5 747.911,-0.5"/>
<text text-anchor="middle" x="768.411" y="-7.5" font-family="Helvetica,sans-Serif" font-size="10.00">string</text>
</g>
<!-- Node2&#45;&gt;Node3 -->
<g id="edge2" class="edge"><title>Node2&#45;&gt;Node3</title>
<path fill="none" stroke="midnightblue" d="M124.154,-245.733C60.341,-238.978 -19.7482,-220.182 4.41089,-168 67.9713,-30.7131 602.637,-13.4748 737.578,-11.3106"/>
<polygon fill="midnightblue" stroke="midnightblue" points="737.696,-14.8094 747.644,-11.1659 737.595,-7.81013 737.696,-14.8094"/>
</g>
<!-- Node4 -->
<g id="node4" class="node"><title>Node4</title>
<polygon fill="none" stroke="#bfbfbf" points="79.4109,-112.5 79.4109,-131.5 243.411,-131.5 243.411,-112.5 79.4109,-112.5"/>
<text text-anchor="middle" x="161.411" y="-119.5" font-family="Helvetica,sans-Serif" font-size="10.00">Framework/DataProcessorSpec.h</text>
</g>
<!-- Node2&#45;&gt;Node4 -->
<g id="edge3" class="edge"><title>Node2&#45;&gt;Node4</title>
<path fill="none" stroke="midnightblue" d="M192.203,-235.298C188.453,-218.982 181.927,-191.442 175.411,-168 172.943,-159.121 169.936,-149.343 167.343,-141.177"/>
<polygon fill="midnightblue" stroke="midnightblue" points="170.649,-140.026 164.252,-131.581 163.986,-142.172 170.649,-140.026"/>
</g>
<!-- Node5 -->
<g id="node5" class="node"><title>Node5</title>
<polygon fill="none" stroke="#bfbfbf" points="13.9109,-174 13.9109,-193 166.911,-193 166.911,-174 13.9109,-174"/>
<text text-anchor="middle" x="90.4109" y="-181" font-family="Helvetica,sans-Serif" font-size="10.00">Framework/CompletionPolicy.h</text>
</g>
<!-- Node2&#45;&gt;Node5 -->
<g id="edge4" class="edge"><title>Node2&#45;&gt;Node5</title>
<path fill="none" stroke="midnightblue" d="M172.627,-235.396C154.856,-224.395 130.311,-209.2 112.674,-198.282"/>
<polygon fill="midnightblue" stroke="midnightblue" points="114.498,-195.295 104.153,-193.007 110.813,-201.247 114.498,-195.295"/>
</g>
<!-- Node6 -->
<g id="node6" class="node"><title>Node6</title>
<g id="a_node6"><a xlink:href="Check_8h_source.html" target="_top" xlink:title="QualityControl/Check.h">
<polygon fill="none" stroke="black" points="337.911,-174 337.911,-193 456.911,-193 456.911,-174 337.911,-174"/>
<text text-anchor="middle" x="397.411" y="-181" font-family="Helvetica,sans-Serif" font-size="10.00">QualityControl/Check.h</text>
</a>
</g>
</g>
<!-- Node2&#45;&gt;Node6 -->
<g id="edge5" class="edge"><title>Node2&#45;&gt;Node6</title>
<path fill="none" stroke="midnightblue" d="M239.242,-235.396C275.783,-223.638 327.21,-207.089 361.388,-196.092"/>
<polygon fill="midnightblue" stroke="midnightblue" points="362.527,-199.402 370.974,-193.007 360.382,-192.738 362.527,-199.402"/>
</g>
<!-- Node6&#45;&gt;Node4 -->
<g id="edge11" class="edge"><title>Node6&#45;&gt;Node4</title>
<path fill="none" stroke="midnightblue" d="M363.598,-173.975C321.889,-163.459 250.899,-145.562 205.097,-134.014"/>
<polygon fill="midnightblue" stroke="midnightblue" points="205.713,-130.56 195.161,-131.509 204.002,-137.348 205.713,-130.56"/>
</g>
<!-- Node7 -->
<g id="node7" class="node"><title>Node7</title>
<polygon fill="none" stroke="#bfbfbf" points="630.911,-112.5 630.911,-131.5 689.911,-131.5 689.911,-112.5 630.911,-112.5"/>
<text text-anchor="middle" x="660.411" y="-119.5" font-family="Helvetica,sans-Serif" font-size="10.00">functional</text>
</g>
<!-- Node6&#45;&gt;Node7 -->
<g id="edge6" class="edge"><title>Node6&#45;&gt;Node7</title>
<path fill="none" stroke="midnightblue" d="M435.473,-173.981C478.049,-164.437 549.345,-148.416 620.559,-132.186"/>
<polygon fill="midnightblue" stroke="midnightblue" points="621.633,-135.531 630.604,-129.895 620.076,-128.706 621.633,-135.531"/>
</g>
<!-- Node8 -->
<g id="node8" class="node"><title>Node8</title>
<polygon fill="none" stroke="#bfbfbf" points="1360.91,-0.5 1360.91,-19.5 1395.91,-19.5 1395.91,-0.5 1360.91,-0.5"/>
<text text-anchor="middle" x="1378.41" y="-7.5" font-family="Helvetica,sans-Serif" font-size="10.00">map</text>
</g>
<!-- Node6&#45;&gt;Node8 -->
<g id="edge7" class="edge"><title>Node6&#45;&gt;Node8</title>
<path fill="none" stroke="midnightblue" d="M432.321,-173.975C443.18,-171.644 455.235,-169.383 466.411,-168 517.229,-161.713 1351.92,-168.908 1387.41,-132 1413.84,-104.522 1398.4,-55.4231 1387.09,-29.0052"/>
<polygon fill="midnightblue" stroke="midnightblue" points="1390.22,-27.4485 1382.9,-19.7874 1383.85,-30.3402 1390.22,-27.4485"/>
</g>
<!-- Node9 -->
<g id="node9" class="node"><title>Node9</title>
<polygon fill="none" stroke="#bfbfbf" points="1036.41,-112.5 1036.41,-131.5 1080.41,-131.5 1080.41,-112.5 1036.41,-112.5"/>
<text text-anchor="middle" x="1058.41" y="-119.5" font-family="Helvetica,sans-Serif" font-size="10.00">vector</text>
</g>
<!-- Node6&#45;&gt;Node9 -->
<g id="edge8" class="edge"><title>Node6&#45;&gt;Node9</title>
<path fill="none" stroke="midnightblue" d="M433.054,-173.999C443.727,-171.728 455.496,-169.493 466.411,-168 711.756,-134.452 777.744,-170.184 1022.41,-132 1023.66,-131.804 1024.94,-131.586 1026.22,-131.349"/>
<polygon fill="midnightblue" stroke="midnightblue" points="1027.02,-134.757 1036.07,-129.248 1025.56,-127.911 1027.02,-134.757"/>
</g>
<!-- Node10 -->
<g id="node10" class="node"><title>Node10</title>
<polygon fill="none" stroke="#bfbfbf" points="1434.41,-112.5 1434.41,-131.5 1486.41,-131.5 1486.41,-112.5 1434.41,-112.5"/>
<text text-anchor="middle" x="1460.41" y="-119.5" font-family="Helvetica,sans-Serif" font-size="10.00">memory</text>
</g>
<!-- Node6&#45;&gt;Node10 -->
<g id="edge9" class="edge"><title>Node6&#45;&gt;Node10</title>
<path fill="none" stroke="midnightblue" d="M432.32,-173.965C443.179,-171.635 455.234,-169.375 466.411,-168 887.537,-116.185 999.663,-186.8 1420.41,-132 1421.68,-131.835 1422.97,-131.648 1424.27,-131.444"/>
<polygon fill="midnightblue" stroke="midnightblue" points="1425.08,-134.853 1434.28,-129.601 1423.82,-127.969 1425.08,-134.853"/>
</g>
<!-- Node11 -->
<g id="node11" class="node"><title>Node11</title>
<polygon fill="none" stroke="#bfbfbf" points="656.911,-56.5 656.911,-75.5 739.911,-75.5 739.911,-56.5 656.911,-56.5"/>
<text text-anchor="middle" x="698.411" y="-63.5" font-family="Helvetica,sans-Serif" font-size="10.00">unordered_map</text>
</g>
<!-- Node6&#45;&gt;Node11 -->
<g id="edge10" class="edge"><title>Node6&#45;&gt;Node11</title>
<path fill="none" stroke="midnightblue" d="M436.385,-173.932C446.168,-171.886 456.657,-169.78 466.411,-168 517.735,-158.632 664.465,-171.619 698.411,-132 709.177,-119.435 707.61,-99.9403 704.306,-85.5757"/>
<polygon fill="midnightblue" stroke="midnightblue" points="707.642,-84.5056 701.617,-75.7909 700.892,-86.3609 707.642,-84.5056"/>
</g>
<!-- Node12 -->
<g id="node12" class="node"><title>Node12</title>
<g id="a_node12"><a xlink:href="Quality_8h.html" target="_top" xlink:title="QualityControl/Quality.h">
<polygon fill="none" stroke="black" points="834.911,-56.5 834.911,-75.5 955.911,-75.5 955.911,-56.5 834.911,-56.5"/>
<text text-anchor="middle" x="895.411" y="-63.5" font-family="Helvetica,sans-Serif" font-size="10.00">QualityControl/Quality.h</text>
</a>
</g>
</g>
<!-- Node6&#45;&gt;Node12 -->
<g id="edge12" class="edge"><title>Node6&#45;&gt;Node12</title>
<path fill="none" stroke="midnightblue" d="M436.009,-173.933C445.895,-171.864 456.527,-169.748 466.411,-168 576.952,-148.447 607.524,-159.302 716.411,-132 770.7,-118.388 831.465,-94.3543 866.4,-79.635"/>
<polygon fill="midnightblue" stroke="midnightblue" points="868.128,-82.7034 875.959,-75.5673 865.387,-76.2622 868.128,-82.7034"/>
</g>
<!-- Node14 -->
<g id="node14" class="node"><title>Node14</title>
<g id="a_node14"><a xlink:href="QualityObject_8h_source.html" target="_top" xlink:title="QualityControl/QualityObject.h">
<polygon fill="none" stroke="black" points="1229.91,-112.5 1229.91,-131.5 1378.91,-131.5 1378.91,-112.5 1229.91,-112.5"/>
<text text-anchor="middle" x="1304.41" y="-119.5" font-family="Helvetica,sans-Serif" font-size="10.00">QualityControl/QualityObject.h</text>
</a>
</g>
</g>
<!-- Node6&#45;&gt;Node14 -->
<g id="edge15" class="edge"><title>Node6&#45;&gt;Node14</title>
<path fill="none" stroke="midnightblue" d="M432.689,-173.999C443.455,-171.699 455.366,-169.448 466.411,-168 539.58,-158.405 1021.81,-135.812 1219.79,-126.804"/>
<polygon fill="midnightblue" stroke="midnightblue" points="1220.03,-130.297 1229.86,-126.347 1219.71,-123.305 1220.03,-130.297"/>
</g>
<!-- Node18 -->
<g id="node18" class="node"><title>Node18</title>
<g id="a_node18"><a xlink:href="MonitorObject_8h.html" target="_top" xlink:title="QualityControl/MonitorObject.h">
<polygon fill="none" stroke="black" points="1012.91,-56.5 1012.91,-75.5 1163.91,-75.5 1163.91,-56.5 1012.91,-56.5"/>
<text text-anchor="middle" x="1088.41" y="-63.5" font-family="Helvetica,sans-Serif" font-size="10.00">QualityControl/MonitorObject.h</text>
</a>
</g>
</g>
<!-- Node6&#45;&gt;Node18 -->
<g id="edge21" class="edge"><title>Node6&#45;&gt;Node18</title>
<path fill="none" stroke="midnightblue" d="M433.414,-173.952C443.993,-171.708 455.62,-169.499 466.411,-168 696.751,-136.011 767.857,-205.73 988.411,-132 1005.21,-126.383 1044.24,-99.2274 1068.27,-81.841"/>
<polygon fill="midnightblue" stroke="midnightblue" points="1070.65,-84.4396 1076.67,-75.7211 1066.52,-78.7826 1070.65,-84.4396"/>
</g>
<!-- Node19 -->
<g id="node19" class="node"><title>Node19</title>
<g id="a_node19"><a xlink:href="CheckInterface_8h.html" target="_top" xlink:title="QualityControl/CheckInterface.h">
<polygon fill="none" stroke="black" points="822.911,-112.5 822.911,-131.5 979.911,-131.5 979.911,-112.5 822.911,-112.5"/>
<text text-anchor="middle" x="901.411" y="-119.5" font-family="Helvetica,sans-Serif" font-size="10.00">QualityControl/CheckInterface.h</text>
</a>
</g>
</g>
<!-- Node6&#45;&gt;Node19 -->
<g id="edge27" class="edge"><title>Node6&#45;&gt;Node19</title>
<path fill="none" stroke="midnightblue" d="M434.522,-173.961C444.811,-171.796 456.01,-169.626 466.411,-168 585.648,-149.356 724.523,-136.515 812.678,-129.459"/>
<polygon fill="midnightblue" stroke="midnightblue" points="813.214,-132.928 822.906,-128.648 812.661,-125.95 813.214,-132.928"/>
</g>
<!-- Node20 -->
<g id="node20" class="node"><title>Node20</title>
<g id="a_node20"><a xlink:href="QcInfoLogger_8h.html" target="_top" xlink:title="QualityControl/QcInfoLogger.h">
<polygon fill="none" stroke="black" points="298.911,-112.5 298.911,-131.5 447.911,-131.5 447.911,-112.5 298.911,-112.5"/>
<text text-anchor="middle" x="373.411" y="-119.5" font-family="Helvetica,sans-Serif" font-size="10.00">QualityControl/QcInfoLogger.h</text>
</a>
</g>
</g>
<!-- Node6&#45;&gt;Node20 -->
<g id="edge34" class="edge"><title>Node6&#45;&gt;Node20</title>
<path fill="none" stroke="midnightblue" d="M393.972,-173.975C390.515,-165.404 385.079,-151.927 380.665,-140.983"/>
<polygon fill="midnightblue" stroke="midnightblue" points="383.83,-139.474 376.843,-131.509 377.338,-142.092 383.83,-139.474"/>
</g>
<!-- Node22 -->
<g id="node22" class="node"><title>Node22</title>
<g id="a_node22"><a xlink:href="CheckConfig_8h.html" target="_top" xlink:title="QualityControl/CheckConfig.h">
<polygon fill="none" stroke="black" points="465.911,-112.5 465.911,-131.5 612.911,-131.5 612.911,-112.5 465.911,-112.5"/>
<text text-anchor="middle" x="539.411" y="-119.5" font-family="Helvetica,sans-Serif" font-size="10.00">QualityControl/CheckConfig.h</text>
</a>
</g>
</g>
<!-- Node6&#45;&gt;Node22 -->
<g id="edge36" class="edge"><title>Node6&#45;&gt;Node22</title>
<path fill="none" stroke="midnightblue" d="M417.756,-173.975C441.798,-163.901 482.008,-147.053 509.573,-135.502"/>
<polygon fill="midnightblue" stroke="midnightblue" points="511.233,-138.602 519.103,-131.509 508.528,-132.146 511.233,-138.602"/>
</g>
<!-- Node12&#45;&gt;Node3 -->
<g id="edge14" class="edge"><title>Node12&#45;&gt;Node3</title>
<path fill="none" stroke="midnightblue" d="M875.287,-56.4435C854.387,-47.5566 821.476,-33.5632 797.695,-23.4514"/>
<polygon fill="midnightblue" stroke="midnightblue" points="799.012,-20.2085 788.44,-19.5164 796.273,-26.6504 799.012,-20.2085"/>
</g>
<!-- Node13 -->
<g id="node13" class="node"><title>Node13</title>
<polygon fill="none" stroke="#bfbfbf" points="956.411,-0.5 956.411,-19.5 1012.41,-19.5 1012.41,-0.5 956.411,-0.5"/>
<text text-anchor="middle" x="984.411" y="-7.5" font-family="Helvetica,sans-Serif" font-size="10.00">Rtypes.h</text>
</g>
<!-- Node12&#45;&gt;Node13 -->
<g id="edge13" class="edge"><title>Node12&#45;&gt;Node13</title>
<path fill="none" stroke="midnightblue" d="M909.71,-56.324C923.594,-47.9002 944.903,-34.9709 961.215,-25.0741"/>
<polygon fill="midnightblue" stroke="midnightblue" points="963.413,-27.8341 970.147,-19.6545 959.782,-21.8495 963.413,-27.8341"/>
</g>
<!-- Node14&#45;&gt;Node8 -->
<g id="edge17" class="edge"><title>Node14&#45;&gt;Node8</title>
<path fill="none" stroke="midnightblue" d="M1311.17,-112.167C1317.98,-103.188 1328.69,-88.8132 1337.41,-76 1348.29,-60.0256 1359.98,-41.3196 1368.09,-28.0868"/>
<polygon fill="midnightblue" stroke="midnightblue" points="1371.08,-29.898 1373.29,-19.536 1365.1,-26.2587 1371.08,-29.898"/>
</g>
<!-- Node14&#45;&gt;Node12 -->
<g id="edge20" class="edge"><title>Node14&#45;&gt;Node12</title>
<path fill="none" stroke="midnightblue" d="M1239.6,-112.444C1165.02,-102.596 1042.94,-86.478 965.997,-76.3195"/>
<polygon fill="midnightblue" stroke="midnightblue" points="966.287,-72.8274 955.915,-74.9883 965.371,-79.7672 966.287,-72.8274"/>
</g>
<!-- Node15 -->
<g id="node15" class="node"><title>Node15</title>
<polygon fill="none" stroke="#bfbfbf" points="1258.41,-56.5 1258.41,-75.5 1312.41,-75.5 1312.41,-56.5 1258.41,-56.5"/>
<text text-anchor="middle" x="1285.41" y="-63.5" font-family="Helvetica,sans-Serif" font-size="10.00">iostream</text>
</g>
<!-- Node14&#45;&gt;Node15 -->
<g id="edge16" class="edge"><title>Node14&#45;&gt;Node15</title>
<path fill="none" stroke="midnightblue" d="M1301.27,-112.083C1298.73,-104.849 1295.05,-94.4087 1291.88,-85.3968"/>
<polygon fill="midnightblue" stroke="midnightblue" points="1295.11,-84.0225 1288.49,-75.7511 1288.51,-86.3459 1295.11,-84.0225"/>
</g>
<!-- Node16 -->
<g id="node16" class="node"><title>Node16</title>
<polygon fill="none" stroke="#bfbfbf" points="1224.91,-0.5 1224.91,-19.5 1283.91,-19.5 1283.91,-0.5 1224.91,-0.5"/>
<text text-anchor="middle" x="1254.41" y="-7.5" font-family="Helvetica,sans-Serif" font-size="10.00">TObject.h</text>
</g>
<!-- Node14&#45;&gt;Node16 -->
<g id="edge18" class="edge"><title>Node14&#45;&gt;Node16</title>
<path fill="none" stroke="midnightblue" d="M1310.63,-112.114C1318.87,-99.1362 1331.29,-74.5284 1321.41,-56 1313.86,-41.8339 1299.65,-31.3348 1286.25,-24.0576"/>
<polygon fill="midnightblue" stroke="midnightblue" points="1287.71,-20.8724 1277.2,-19.5289 1284.58,-27.1329 1287.71,-20.8724"/>
</g>
<!-- Node17 -->
<g id="node17" class="node"><title>Node17</title>
<polygon fill="none" stroke="#bfbfbf" points="1060.41,-0.5 1060.41,-19.5 1176.41,-19.5 1176.41,-0.5 1060.41,-0.5"/>
<text text-anchor="middle" x="1118.41" y="-7.5" font-family="Helvetica,sans-Serif" font-size="10.00">Common/Exceptions.h</text>
</g>
<!-- Node14&#45;&gt;Node17 -->
<g id="edge19" class="edge"><title>Node14&#45;&gt;Node17</title>
<path fill="none" stroke="midnightblue" d="M1289.82,-112.368C1257.76,-93.4121 1180.98,-48.0006 1141.99,-24.9424"/>
<polygon fill="midnightblue" stroke="midnightblue" points="1143.33,-21.6693 1132.94,-19.5914 1139.76,-27.6945 1143.33,-21.6693"/>
</g>
<!-- Node18&#45;&gt;Node3 -->
<g id="edge22" class="edge"><title>Node18&#45;&gt;Node3</title>
<path fill="none" stroke="midnightblue" d="M1037.71,-56.4435C970.627,-45.124 854.455,-25.5199 799.253,-16.2047"/>
<polygon fill="midnightblue" stroke="midnightblue" points="799.502,-12.6972 789.059,-14.4843 798.337,-19.5996 799.502,-12.6972"/>
</g>
<!-- Node18&#45;&gt;Node8 -->
<g id="edge23" class="edge"><title>Node18&#45;&gt;Node8</title>
<path fill="none" stroke="midnightblue" d="M1134.36,-56.4435C1195.22,-45.1116 1300.66,-25.477 1350.62,-16.1742"/>
<polygon fill="midnightblue" stroke="midnightblue" points="1351.5,-19.5721 1360.69,-14.3006 1350.21,-12.6904 1351.5,-19.5721"/>
</g>
<!-- Node18&#45;&gt;Node13 -->
<g id="edge24" class="edge"><title>Node18&#45;&gt;Node13</title>
<path fill="none" stroke="midnightblue" d="M1071.7,-56.324C1055.1,-47.7034 1029.41,-34.3643 1010.19,-24.3855"/>
<polygon fill="midnightblue" stroke="midnightblue" points="1011.57,-21.1565 1001.08,-19.6545 1008.34,-27.3689 1011.57,-21.1565"/>
</g>
<!-- Node18&#45;&gt;Node16 -->
<g id="edge25" class="edge"><title>Node18&#45;&gt;Node16</title>
<path fill="none" stroke="midnightblue" d="M1114.71,-56.4435C1142.76,-47.3196 1187.36,-32.8133 1218.6,-22.6509"/>
<polygon fill="midnightblue" stroke="midnightblue" points="1219.8,-25.9383 1228.23,-19.5164 1217.64,-19.2816 1219.8,-25.9383"/>
</g>
<!-- Node18&#45;&gt;Node17 -->
<g id="edge26" class="edge"><title>Node18&#45;&gt;Node17</title>
<path fill="none" stroke="midnightblue" d="M1093.36,-56.083C1097.51,-48.6127 1103.56,-37.7244 1108.68,-28.5199"/>
<polygon fill="midnightblue" stroke="midnightblue" points="1111.75,-30.1924 1113.55,-19.7511 1105.63,-26.7929 1111.75,-30.1924"/>
</g>
<!-- Node19&#45;&gt;Node3 -->
<g id="edge28" class="edge"><title>Node19&#45;&gt;Node3</title>
<path fill="none" stroke="midnightblue" d="M859.743,-112.426C837.2,-105.862 810.374,-94.6558 792.411,-76 780.297,-63.4189 774.204,-44.2013 771.199,-29.9214"/>
<polygon fill="midnightblue" stroke="midnightblue" points="774.588,-28.9842 769.395,-19.749 767.695,-30.2065 774.588,-28.9842"/>
</g>
<!-- Node19&#45;&gt;Node8 -->
<g id="edge29" class="edge"><title>Node19&#45;&gt;Node8</title>
<path fill="none" stroke="midnightblue" d="M969.04,-112.471C1024.19,-104.871 1103.88,-92.4143 1172.41,-76 1237.53,-60.4029 1312.02,-34.9444 1351.13,-20.9667"/>
<polygon fill="midnightblue" stroke="midnightblue" points="1352.51,-24.1891 1360.74,-17.5098 1350.14,-17.6025 1352.51,-24.1891"/>
</g>
<!-- Node19&#45;&gt;Node11 -->
<g id="edge30" class="edge"><title>Node19&#45;&gt;Node11</title>
<path fill="none" stroke="midnightblue" d="M869.245,-112.444C834.352,-103.162 778.518,-88.3093 740.24,-78.127"/>
<polygon fill="midnightblue" stroke="midnightblue" points="740.99,-74.7048 730.426,-75.5164 739.191,-81.4696 740.99,-74.7048"/>
</g>
<!-- Node19&#45;&gt;Node12 -->
<g id="edge33" class="edge"><title>Node19&#45;&gt;Node12</title>
<path fill="none" stroke="midnightblue" d="M900.42,-112.083C899.625,-104.927 898.481,-94.6353 897.488,-85.6911"/>
<polygon fill="midnightblue" stroke="midnightblue" points="900.966,-85.3034 896.383,-75.7511 894.009,-86.0765 900.966,-85.3034"/>
</g>
<!-- Node19&#45;&gt;Node13 -->
<g id="edge31" class="edge"><title>Node19&#45;&gt;Node13</title>
<path fill="none" stroke="midnightblue" d="M919.378,-112.347C933.54,-104.657 952.779,-92.1379 964.411,-76 974.227,-62.381 979.309,-43.8386 981.887,-30.0432"/>
<polygon fill="midnightblue" stroke="midnightblue" points="985.405,-30.2086 983.513,-19.7839 978.491,-29.1127 985.405,-30.2086"/>
</g>
<!-- Node19&#45;&gt;Node18 -->
<g id="edge32" class="edge"><title>Node19&#45;&gt;Node18</title>
<path fill="none" stroke="midnightblue" d="M931.042,-112.444C962.911,-103.241 1013.74,-88.5617 1048.97,-78.3879"/>
<polygon fill="midnightblue" stroke="midnightblue" points="1050.28,-81.6534 1058.92,-75.5164 1048.34,-74.9282 1050.28,-81.6534"/>
</g>
<!-- Node21 -->
<g id="node21" class="node"><title>Node21</title>
<polygon fill="none" stroke="#bfbfbf" points="308.411,-56.5 308.411,-75.5 438.411,-75.5 438.411,-56.5 308.411,-56.5"/>
<text text-anchor="middle" x="373.411" y="-63.5" font-family="Helvetica,sans-Serif" font-size="10.00">InfoLogger/InfoLogger.hxx</text>
</g>
<!-- Node20&#45;&gt;Node21 -->
<g id="edge35" class="edge"><title>Node20&#45;&gt;Node21</title>
<path fill="none" stroke="midnightblue" d="M373.411,-112.083C373.411,-105.006 373.411,-94.8611 373.411,-85.9865"/>
<polygon fill="midnightblue" stroke="midnightblue" points="376.911,-85.751 373.411,-75.7511 369.911,-85.7511 376.911,-85.751"/>
</g>
<!-- Node22&#45;&gt;Node3 -->
<g id="edge37" class="edge"><title>Node22&#45;&gt;Node3</title>
<path fill="none" stroke="midnightblue" d="M551.947,-112.398C571.646,-99.1273 611.331,-73.3802 647.411,-56 677.403,-41.5522 713.326,-28.7208 738.201,-20.494"/>
<polygon fill="midnightblue" stroke="midnightblue" points="739.385,-23.7893 747.809,-17.3636 737.216,-17.1337 739.385,-23.7893"/>
</g>
<!-- Node22&#45;&gt;Node11 -->
<g id="edge38" class="edge"><title>Node22&#45;&gt;Node11</title>
<path fill="none" stroke="midnightblue" d="M564.605,-112.444C591.354,-103.359 633.813,-88.9388 663.716,-78.7831"/>
<polygon fill="midnightblue" stroke="midnightblue" points="664.991,-82.0464 673.335,-75.5164 662.74,-75.4182 664.991,-82.0464"/>
</g>
<!-- Node23&#45;&gt;Node3 -->
<g id="edge42" class="edge"><title>Node23&#45;&gt;Node3</title>
<path fill="none" stroke="midnightblue" d="M917.39,-248.155C752.111,-244.585 367.41,-232.716 319.411,-199 292.713,-180.246 296.228,-163.906 289.411,-132 282.292,-98.6831 274.364,-79.0946 299.411,-56 331.616,-26.3045 638.329,-14.7969 737.585,-11.8317"/>
<polygon fill="midnightblue" stroke="midnightblue" points="737.954,-15.3226 747.848,-11.5337 737.75,-8.32553 737.954,-15.3226"/>
</g>
<!-- Node23&#45;&gt;Node4 -->
<g id="edge51" class="edge"><title>Node23&#45;&gt;Node4</title>
<path fill="none" stroke="midnightblue" d="M917.282,-249.933C754.875,-249.969 376.179,-244.945 257.411,-199 224.058,-186.097 193.082,-157.331 175.764,-139.124"/>
<polygon fill="midnightblue" stroke="midnightblue" points="178.165,-136.565 168.808,-131.596 173.024,-141.316 178.165,-136.565"/>
</g>
<!-- Node23&#45;&gt;Node6 -->
<g id="edge62" class="edge"><title>Node23&#45;&gt;Node6</title>
<path fill="none" stroke="midnightblue" d="M917.176,-244.923C814.787,-238.091 626.025,-223.356 466.411,-199 459.173,-197.896 451.551,-196.516 444.119,-195.049"/>
<polygon fill="midnightblue" stroke="midnightblue" points="444.654,-191.587 434.156,-193.014 443.253,-198.445 444.654,-191.587"/>
</g>
<!-- Node23&#45;&gt;Node8 -->
<g id="edge43" class="edge"><title>Node23&#45;&gt;Node8</title>
<path fill="none" stroke="midnightblue" d="M1038.09,-240.936C1050.49,-238.796 1063.94,-236.645 1076.41,-235 1163.36,-223.532 1399.38,-251.794 1469.41,-199 1501.64,-174.706 1512.21,-148.694 1495.41,-112 1476.85,-71.4467 1433.07,-40.9772 1404.64,-24.5923"/>
<polygon fill="midnightblue" stroke="midnightblue" points="1406.09,-21.3916 1395.65,-19.5814 1402.68,-27.5064 1406.09,-21.3916"/>
</g>
<!-- Node23&#45;&gt;Node9 -->
<g id="edge44" class="edge"><title>Node23&#45;&gt;Node9</title>
<path fill="none" stroke="midnightblue" d="M1035.84,-240.914C1089.34,-229.903 1174.31,-210.822 1183.41,-199 1191.82,-188.083 1191.33,-179.272 1183.41,-168 1177.83,-160.057 1125.51,-143.095 1090.36,-132.415"/>
<polygon fill="midnightblue" stroke="midnightblue" points="1091.09,-128.981 1080.51,-129.45 1089.07,-135.684 1091.09,-128.981"/>
</g>
<!-- Node23&#45;&gt;Node10 -->
<g id="edge41" class="edge"><title>Node23&#45;&gt;Node10</title>
<path fill="none" stroke="midnightblue" d="M1038.09,-240.981C1050.5,-238.841 1063.94,-236.678 1076.41,-235 1158.5,-223.947 1386.75,-255.404 1447.41,-199 1462.85,-184.643 1464.21,-159.185 1462.98,-141.72"/>
<polygon fill="midnightblue" stroke="midnightblue" points="1466.44,-141.172 1461.91,-131.594 1459.48,-141.905 1466.44,-141.172"/>
</g>
<!-- Node23&#45;&gt;Node18 -->
<g id="edge60" class="edge"><title>Node23&#45;&gt;Node18</title>
<path fill="none" stroke="midnightblue" d="M1038.54,-240.984C1050.82,-238.868 1064.1,-236.716 1076.41,-235 1151.22,-224.57 1363.91,-255.169 1414.41,-199 1423.62,-188.755 1423.22,-178.594 1414.41,-168 1358.34,-100.571 1302.75,-162.178 1220.41,-132 1203.59,-125.835 1201.33,-120.222 1185.41,-112 1162.98,-100.412 1137,-88.4345 1117.57,-79.7524"/>
<polygon fill="midnightblue" stroke="midnightblue" points="1118.9,-76.5115 1108.34,-75.6518 1116.06,-82.9091 1118.9,-76.5115"/>
</g>
<!-- Node23&#45;&gt;Node19 -->
<g id="edge52" class="edge"><title>Node23&#45;&gt;Node19</title>
<path fill="none" stroke="midnightblue" d="M1048.58,-240.974C1105.91,-229.921 1182.18,-207.252 1149.41,-168 1138.72,-155.2 1052.84,-141.689 985.101,-132.852"/>
<polygon fill="midnightblue" stroke="midnightblue" points="985.189,-129.335 974.824,-131.529 984.295,-136.277 985.189,-129.335"/>
</g>
<!-- Node23&#45;&gt;Node20 -->
<g id="edge61" class="edge"><title>Node23&#45;&gt;Node20</title>
<path fill="none" stroke="midnightblue" d="M917.253,-249.398C751.834,-248.388 367.754,-241.449 328.411,-199 311.25,-180.484 334.774,-154.351 353.75,-138.056"/>
<polygon fill="midnightblue" stroke="midnightblue" points="356.208,-140.567 361.729,-131.525 351.774,-135.15 356.208,-140.567"/>
</g>
<!-- Node24 -->
<g id="node24" class="node"><title>Node24</title>
<polygon fill="none" stroke="#bfbfbf" points="1542.41,-174 1542.41,-193 1588.41,-193 1588.41,-174 1542.41,-174"/>
<text text-anchor="middle" x="1565.41" y="-181" font-family="Helvetica,sans-Serif" font-size="10.00">chrono</text>
</g>
<!-- Node23&#45;&gt;Node24 -->
<g id="edge40" class="edge"><title>Node23&#45;&gt;Node24</title>
<path fill="none" stroke="midnightblue" d="M1037.2,-240.988C1049.84,-238.798 1063.64,-236.608 1076.41,-235 1276.36,-209.834 1332.03,-244.254 1528.41,-199 1531.25,-198.346 1534.15,-197.514 1537.03,-196.581"/>
<polygon fill="midnightblue" stroke="midnightblue" points="1538.34,-199.828 1546.55,-193.125 1535.95,-193.248 1538.34,-199.828"/>
</g>
<!-- Node25 -->
<g id="node25" class="node"><title>Node25</title>
<polygon fill="none" stroke="#bfbfbf" points="1606.41,-174 1606.41,-193 1684.41,-193 1684.41,-174 1606.41,-174"/>
<text text-anchor="middle" x="1645.41" y="-181" font-family="Helvetica,sans-Serif" font-size="10.00">unordered_set</text>
</g>
<!-- Node23&#45;&gt;Node25 -->
<g id="edge45" class="edge"><title>Node23&#45;&gt;Node25</title>
<path fill="none" stroke="midnightblue" d="M1036.75,-240.976C1049.52,-238.759 1063.48,-236.559 1076.41,-235 1306.85,-207.223 1369.1,-240.823 1597.41,-199 1601.87,-198.184 1606.49,-197.1 1611.04,-195.892"/>
<polygon fill="midnightblue" stroke="midnightblue" points="1612.11,-199.225 1620.76,-193.103 1610.18,-192.497 1612.11,-199.225"/>
</g>
<!-- Node26 -->
<g id="node26" class="node"><title>Node26</title>
<polygon fill="none" stroke="#bfbfbf" points="475.411,-174 475.411,-193 567.411,-193 567.411,-174 475.411,-174"/>
<text text-anchor="middle" x="521.411" y="-181" font-family="Helvetica,sans-Serif" font-size="10.00">Common/Timer.h</text>
</g>
<!-- Node23&#45;&gt;Node26 -->
<g id="edge46" class="edge"><title>Node23&#45;&gt;Node26</title>
<path fill="none" stroke="midnightblue" d="M917.159,-243.489C833.464,-236.08 694.487,-221.621 576.411,-199 571.269,-198.015 565.898,-196.816 560.614,-195.534"/>
<polygon fill="midnightblue" stroke="midnightblue" points="561.194,-192.07 550.64,-193.001 559.471,-198.855 561.194,-192.07"/>
</g>
<!-- Node27 -->
<g id="node27" class="node"><title>Node27</title>
<polygon fill="none" stroke="#bfbfbf" points="585.411,-174 585.411,-193 683.411,-193 683.411,-174 585.411,-174"/>
<text text-anchor="middle" x="634.411" y="-181" font-family="Helvetica,sans-Serif" font-size="10.00">Framework/Task.h</text>
</g>
<!-- Node23&#45;&gt;Node27 -->
<g id="edge47" class="edge"><title>Node23&#45;&gt;Node27</title>
<path fill="none" stroke="midnightblue" d="M933.522,-240.98C872.846,-231.875 775.649,-216.383 692.411,-199 687.272,-197.927 681.9,-196.712 676.587,-195.453"/>
<polygon fill="midnightblue" stroke="midnightblue" points="677.064,-191.967 666.52,-193.003 675.409,-198.768 677.064,-191.967"/>
</g>
<!-- Node28 -->
<g id="node28" class="node"><title>Node28</title>
<polygon fill="none" stroke="#bfbfbf" points="701.911,-174 701.911,-193 818.911,-193 818.911,-174 701.911,-174"/>
<text text-anchor="middle" x="760.411" y="-181" font-family="Helvetica,sans-Serif" font-size="10.00">Headers/DataHeader.h</text>
</g>
<!-- Node23&#45;&gt;Node28 -->
<g id="edge48" class="edge"><title>Node23&#45;&gt;Node28</title>
<path fill="none" stroke="midnightblue" d="M961.603,-240.869C920.235,-229.278 846.652,-208.662 800.863,-195.834"/>
<polygon fill="midnightblue" stroke="midnightblue" points="801.55,-192.391 790.977,-193.064 799.662,-199.132 801.55,-192.391"/>
</g>
<!-- Node29 -->
<g id="node29" class="node"><title>Node29</title>
<polygon fill="none" stroke="#bfbfbf" points="836.911,-174 836.911,-193 987.911,-193 987.911,-174 836.911,-174"/>
<text text-anchor="middle" x="912.411" y="-181" font-family="Helvetica,sans-Serif" font-size="10.00">Monitoring/MonitoringFactory.h</text>
</g>
<!-- Node23&#45;&gt;Node29 -->
<g id="edge49" class="edge"><title>Node23&#45;&gt;Node29</title>
<path fill="none" stroke="midnightblue" d="M981.622,-240.734C968.667,-230.208 946.724,-212.379 931.017,-199.617"/>
<polygon fill="midnightblue" stroke="midnightblue" points="932.997,-196.717 923.029,-193.127 928.583,-202.15 932.997,-196.717"/>
</g>
<!-- Node30 -->
<g id="node30" class="node"><title>Node30</title>
<polygon fill="none" stroke="#bfbfbf" points="1005.91,-168.5 1005.91,-198.5 1140.91,-198.5 1140.91,-168.5 1005.91,-168.5"/>
<text text-anchor="start" x="1013.91" y="-186.5" font-family="Helvetica,sans-Serif" font-size="10.00">Configuration/Configuration</text>
<text text-anchor="middle" x="1073.41" y="-175.5" font-family="Helvetica,sans-Serif" font-size="10.00">Interface.h</text>
</g>
<!-- Node23&#45;&gt;Node30 -->
<g id="edge50" class="edge"><title>Node23&#45;&gt;Node30</title>
<path fill="none" stroke="midnightblue" d="M1003.33,-240.734C1014.7,-231.611 1032.91,-217.004 1047.91,-204.963"/>
<polygon fill="midnightblue" stroke="midnightblue" points="1050.25,-207.577 1055.85,-198.589 1045.86,-202.118 1050.25,-207.577"/>
</g>
<!-- Node31 -->
<g id="node31" class="node"><title>Node31</title>
<g id="a_node31"><a xlink:href="DatabaseInterface_8h.html" target="_top" xlink:title="QualityControl/DatabaseInterface.h">
<polygon fill="none" stroke="black" points="1235.41,-174 1235.41,-193 1405.41,-193 1405.41,-174 1235.41,-174"/>
<text text-anchor="middle" x="1320.41" y="-181" font-family="Helvetica,sans-Serif" font-size="10.00">QualityControl/DatabaseInterface.h</text>
</a>
</g>
</g>
<!-- Node23&#45;&gt;Node31 -->
<g id="edge53" class="edge"><title>Node23&#45;&gt;Node31</title>
<path fill="none" stroke="midnightblue" d="M1035.63,-240.936C1095.32,-229.106 1202.92,-207.784 1267.39,-195.006"/>
<polygon fill="midnightblue" stroke="midnightblue" points="1268.23,-198.409 1277.36,-193.032 1266.87,-191.542 1268.23,-198.409"/>
</g>
<!-- Node31&#45;&gt;Node3 -->
<g id="edge54" class="edge"><title>Node31&#45;&gt;Node3</title>
<path fill="none" stroke="midnightblue" d="M1290.85,-173.992C1256.88,-164.151 1199.49,-147.332 1150.41,-132 1123.18,-123.492 1117.22,-118.398 1089.41,-112 974.008,-85.4442 929.717,-132.066 825.411,-76 805.047,-65.0545 788.553,-43.7489 778.644,-28.5127"/>
<polygon fill="midnightblue" stroke="midnightblue" points="781.589,-26.619 773.35,-19.9573 775.636,-30.3026 781.589,-26.619"/>
</g>
<!-- Node31&#45;&gt;Node9 -->
<g id="edge56" class="edge"><title>Node31&#45;&gt;Node9</title>
<path fill="none" stroke="midnightblue" d="M1280.74,-173.952C1235.56,-164.142 1159.55,-147.418 1094.41,-132 1093.14,-131.7 1091.85,-131.39 1090.54,-131.076"/>
<polygon fill="midnightblue" stroke="midnightblue" points="1091.02,-127.589 1080.47,-128.609 1089.35,-134.388 1091.02,-127.589"/>
</g>
<!-- Node31&#45;&gt;Node10 -->
<g id="edge55" class="edge"><title>Node31&#45;&gt;Node10</title>
<path fill="none" stroke="midnightblue" d="M1340.47,-173.975C1364.17,-163.901 1403.82,-147.053 1430.99,-135.502"/>
<polygon fill="midnightblue" stroke="midnightblue" points="1432.56,-138.642 1440.39,-131.509 1429.82,-132.199 1432.56,-138.642"/>
</g>
<!-- Node31&#45;&gt;Node11 -->
<g id="edge57" class="edge"><title>Node31&#45;&gt;Node11</title>
<path fill="none" stroke="midnightblue" d="M1235.18,-174.933C1095.96,-162.442 833.174,-138.263 813.411,-132 777.287,-120.553 739.886,-96.8039 717.906,-81.4021"/>
<polygon fill="midnightblue" stroke="midnightblue" points="719.913,-78.5345 709.742,-75.5654 715.841,-84.2287 719.913,-78.5345"/>
</g>
<!-- Node31&#45;&gt;Node14 -->
<g id="edge58" class="edge"><title>Node31&#45;&gt;Node14</title>
<path fill="none" stroke="midnightblue" d="M1318.12,-173.975C1315.84,-165.492 1312.26,-152.204 1309.34,-141.322"/>
<polygon fill="midnightblue" stroke="midnightblue" points="1312.68,-140.257 1306.7,-131.509 1305.92,-142.075 1312.68,-140.257"/>
</g>
<!-- Node31&#45;&gt;Node18 -->
<g id="edge59" class="edge"><title>Node31&#45;&gt;Node18</title>
<path fill="none" stroke="midnightblue" d="M1293.15,-173.951C1265.95,-164.989 1223.29,-149.755 1188.41,-132 1159.13,-117.092 1127.72,-95.689 1108.08,-81.5722"/>
<polygon fill="midnightblue" stroke="midnightblue" points="1110.08,-78.698 1099.93,-75.6483 1105.96,-84.3597 1110.08,-78.698"/>
</g>
</g>
</svg>
        <g id="navigator" transform="translate(0 0)" fill="#404254">
                <rect fill="#f2f5e9" fill-opacity="0.5" stroke="#606060" stroke-width=".5" x="0" y="0" width="60" height="60"/>
                <use id="zoomplus" xlink:href="#zoomPlus" x="17" y="9" onmousedown="handleZoom(evt,'in')"/>
                <use id="zoomminus" xlink:href="#zoomMin" x="42" y="9" onmousedown="handleZoom(evt,'out')"/>
                <use id="reset" xlink:href="#resetDef" x="30" y="36" onmousedown="handleReset()"/>
                <g id="arrowUp" xlink:href="#dirArrow" transform="translate(30 24)" onmousedown="handlePan(0,-1)">
                  <use xlink:href="#rim" fill="#404040">
                        <set attributeName="fill" to="#808080" begin="arrowUp.mouseover" end="arrowUp.mouseout"/>
                  </use>
                  <path fill="none" stroke="white" stroke-width="1.5" d="M0,-3.0v7 M-2.5,-0.5L0,-3.0L2.5,-0.5"/>
                </g>
                <g id="arrowRight" xlink:href="#dirArrow" transform="rotate(90) translate(36 -43)" onmousedown="handlePan(1,0)">
                  <use xlink:href="#rim" fill="#404040">
                        <set attributeName="fill" to="#808080" begin="arrowRight.mouseover" end="arrowRight.mouseout"/>
                  </use>
                  <path fill="none" stroke="white" stroke-width="1.5" d="M0,-3.0v7 M-2.5,-0.5L0,-3.0L2.5,-0.5"/>
                </g>
                <g id="arrowDown" xlink:href="#dirArrow" transform="rotate(180) translate(-30 -48)" onmousedown="handlePan(0,1)">
                  <use xlink:href="#rim" fill="#404040">
                        <set attributeName="fill" to="#808080" begin="arrowDown.mouseover" end="arrowDown.mouseout"/>
                  </use>
                  <path fill="none" stroke="white" stroke-width="1.5" d="M0,-3.0v7 M-2.5,-0.5L0,-3.0L2.5,-0.5"/>
                </g>
                <g id="arrowLeft" xlink:href="#dirArrow" transform="rotate(270) translate(-36 17)" onmousedown="handlePan(-1,0)">
                  <use xlink:href="#rim" fill="#404040">
                        <set attributeName="fill" to="#808080" begin="arrowLeft.mouseover" end="arrowLeft.mouseout"/>
                  </use>
                  <path fill="none" stroke="white" stroke-width="1.5" d="M0,-3.0v7 M-2.5,-0.5L0,-3.0L2.5,-0.5"/>
                </g>
        </g>
        <svg viewBox="0 0 15 15" width="100%" height="30px" preserveAspectRatio="xMaxYMin meet">
         <g id="arrow_out" transform="scale(0.3 0.3)">
          <a xlink:href="testCheckRunner_8cxx__incl_org.svg" target="_base">
           <rect id="button" ry="5" rx="5" y="6" x="6" height="38" width="38"
                fill="#f2f5e9" fill-opacity="0.5" stroke="#606060" stroke-width="1.0"/>
           <path id="arrow"
             d="M 11.500037,31.436501 C 11.940474,20.09759 22.043105,11.32322 32.158766,21.979434 L 37.068811,17.246167 C 37.068811,17.246167 37.088388,32 37.088388,32 L 22.160133,31.978069 C 22.160133,31.978069 26.997745,27.140456 26.997745,27.140456 C 18.528582,18.264221 13.291696,25.230495 11.500037,31.436501 z"
             style="fill:#404040;"/>
          </a>
         </g>
        </svg>
</svg>
