<?xml version="1.0" encoding="UTF-8" standalone="no"?>
<!DOCTYPE svg PUBLIC "-//W3C//DTD SVG 1.1//EN"
 "http://www.w3.org/Graphics/SVG/1.1/DTD/svg11.dtd">
<!-- Generated by graphviz version 2.38.0 (20140413.2041)
 -->
<!-- Title: Framework/test/testCheckWorkflow.cxx Pages: 1 -->
<!--zoomable 352 -->
<svg id="main" version="1.1" xmlns="http://www.w3.org/2000/svg" xmlns:xlink="http://www.w3.org/1999/xlink" xml:space="preserve" onload="init(evt)">
<style type="text/css"><![CDATA[
.edge:hover path { stroke: red; }
.edge:hover polygon { stroke: red; fill: red; }
]]></style>
<script type="text/javascript"><![CDATA[
var edges = document.getElementsByTagName('g');
if (edges && edges.length) {
  for (var i=0;i<edges.length;i++) {
    if (edges[i].id.substr(0,4)=='edge') {
      edges[i].setAttribute('class','edge');
    }
  }
}
]]></script>
        <defs>
                <circle id="rim" cx="0" cy="0" r="7"/>
                <circle id="rim2" cx="0" cy="0" r="3.5"/>
                <g id="zoomPlus">
                        <use xlink:href="#rim" fill="#404040">
                                <set attributeName="fill" to="#808080" begin="zoomplus.mouseover" end="zoomplus.mouseout"/>
                        </use>
                        <path d="M-4,0h8M0,-4v8" fill="none" stroke="white" stroke-width="1.5" pointer-events="none"/>
                </g>
                <g id="zoomMin">
                        <use xlink:href="#rim" fill="#404040">
                                <set attributeName="fill" to="#808080" begin="zoomminus.mouseover" end="zoomminus.mouseout"/>
                        </use>
                        <path d="M-4,0h8" fill="none" stroke="white" stroke-width="1.5" pointer-events="none"/>
                </g>
                <g id="dirArrow">
                        <path fill="none" stroke="white" stroke-width="1.5" d="M0,-3.0v7 M-2.5,-0.5L0,-3.0L2.5,-0.5"/>
                </g>
               <g id="resetDef">
                       <use xlink:href="#rim2" fill="#404040">
                               <set attributeName="fill" to="#808080" begin="reset.mouseover" end="reset.mouseout"/>
                       </use>
               </g>
        </defs>

<script type="text/javascript">
var viewWidth = 2162;
var viewHeight = 352;
var sectionId = 'dynsection-0';
</script>
<script xlink:href="svgpan.js"/>
<svg id="graph" class="graph">
<g id="viewport">
<title>Framework/test/testCheckWorkflow.cxx</title>
<!-- Node1 -->
<g id="node1" class="node"><title>Node1</title>
<polygon fill="#bfbfbf" stroke="black" points="600.5,-313.5 600.5,-343.5 733.5,-343.5 733.5,-313.5 600.5,-313.5"/>
<text text-anchor="start" x="608.5" y="-331.5" font-family="Helvetica,sans-Serif" font-size="10.00">Framework/test/testCheck</text>
<text text-anchor="middle" x="667" y="-320.5" font-family="Helvetica,sans-Serif" font-size="10.00">Workflow.cxx</text>
</g>
<!-- Node2 -->
<g id="node2" class="node"><title>Node2</title>
<polygon fill="none" stroke="#bfbfbf" points="0,-252 0,-271 138,-271 138,-252 0,-252"/>
<text text-anchor="middle" x="69" y="-259" font-family="Helvetica,sans-Serif" font-size="10.00">Framework/DataSampling.h</text>
</g>
<!-- Node1&#45;&gt;Node2 -->
<g id="edge1" class="edge"><title>Node1&#45;&gt;Node2</title>
<path fill="none" stroke="midnightblue" d="M600.291,-322.888C501.129,-315.61 309.109,-299.895 147,-277 138.668,-275.823 129.87,-274.382 121.304,-272.87"/>
<polygon fill="midnightblue" stroke="midnightblue" points="121.86,-269.414 111.396,-271.074 120.611,-276.302 121.86,-269.414"/>
</g>
<!-- Node3 -->
<g id="node3" class="node"><title>Node3</title>
<polygon fill="none" stroke="#bfbfbf" points="156.5,-246.5 156.5,-276.5 301.5,-276.5 301.5,-246.5 156.5,-246.5"/>
<text text-anchor="start" x="164.5" y="-264.5" font-family="Helvetica,sans-Serif" font-size="10.00">Framework/CompletionPolicy</text>
<text text-anchor="middle" x="229" y="-253.5" font-family="Helvetica,sans-Serif" font-size="10.00">Helpers.h</text>
</g>
<!-- Node1&#45;&gt;Node3 -->
<g id="edge2" class="edge"><title>Node1&#45;&gt;Node3</title>
<path fill="none" stroke="midnightblue" d="M600.301,-318.73C530.861,-309.442 418.684,-294.001 311.845,-277.103"/>
<polygon fill="midnightblue" stroke="midnightblue" points="312.281,-273.628 301.856,-275.516 311.183,-280.542 312.281,-273.628"/>
</g>
<!-- Node4 -->
<g id="node4" class="node"><title>Node4</title>
<polygon fill="none" stroke="#bfbfbf" points="320,-252 320,-271 450,-271 450,-252 320,-252"/>
<text text-anchor="middle" x="385" y="-259" font-family="Helvetica,sans-Serif" font-size="10.00">Framework/DeviceSpec.h</text>
</g>
<!-- Node1&#45;&gt;Node4 -->
<g id="edge3" class="edge"><title>Node1&#45;&gt;Node4</title>
<path fill="none" stroke="midnightblue" d="M606.157,-313.476C553.855,-301.421 479.519,-284.286 431.769,-273.28"/>
<polygon fill="midnightblue" stroke="midnightblue" points="432.532,-269.864 422.001,-271.029 430.96,-276.685 432.532,-269.864"/>
</g>
<!-- Node5 -->
<g id="node5" class="node"><title>Node5</title>
<g id="a_node5"><a xlink:href="InfrastructureGenerator_8h.html" target="_top" xlink:title="QualityControl/Infrastructure\lGenerator.h">
<polygon fill="none" stroke="black" points="461,-179.5 461,-209.5 601,-209.5 601,-179.5 461,-179.5"/>
<text text-anchor="start" x="469" y="-197.5" font-family="Helvetica,sans-Serif" font-size="10.00">QualityControl/Infrastructure</text>
<text text-anchor="middle" x="531" y="-186.5" font-family="Helvetica,sans-Serif" font-size="10.00">Generator.h</text>
</a>
</g>
</g>
<!-- Node1&#45;&gt;Node5 -->
<g id="edge4" class="edge"><title>Node1&#45;&gt;Node5</title>
<path fill="none" stroke="midnightblue" d="M652.446,-313.374C628.519,-290.151 580.744,-243.781 552.776,-216.636"/>
<polygon fill="midnightblue" stroke="midnightblue" points="555.063,-213.978 545.45,-209.525 550.188,-219.001 555.063,-213.978"/>
</g>
<!-- Node6 -->
<g id="node6" class="node"><title>Node6</title>
<polygon fill="none" stroke="#bfbfbf" points="721,-123.5 721,-142.5 765,-142.5 765,-123.5 721,-123.5"/>
<text text-anchor="middle" x="743" y="-130.5" font-family="Helvetica,sans-Serif" font-size="10.00">vector</text>
</g>
<!-- Node1&#45;&gt;Node6 -->
<g id="edge75" class="edge"><title>Node1&#45;&gt;Node6</title>
<path fill="none" stroke="midnightblue" d="M666.198,-313.374C665.262,-285.712 666.318,-223.246 691,-179 697.816,-166.782 709.288,-156.32 719.725,-148.567"/>
<polygon fill="midnightblue" stroke="midnightblue" points="721.922,-151.302 728.124,-142.712 717.919,-145.559 721.922,-151.302"/>
</g>
<!-- Node10 -->
<g id="node10" class="node"><title>Node10</title>
<polygon fill="none" stroke="#bfbfbf" points="1400.5,-252 1400.5,-271 1519.5,-271 1519.5,-252 1400.5,-252"/>
<text text-anchor="middle" x="1460" y="-259" font-family="Helvetica,sans-Serif" font-size="10.00">getTestDataDirectory.h</text>
</g>
<!-- Node1&#45;&gt;Node10 -->
<g id="edge9" class="edge"><title>Node1&#45;&gt;Node10</title>
<path fill="none" stroke="midnightblue" d="M733.697,-325.91C861.7,-322.183 1150.46,-310.502 1391,-277 1398.5,-275.955 1406.41,-274.568 1414.09,-273.065"/>
<polygon fill="midnightblue" stroke="midnightblue" points="1414.9,-276.472 1424,-271.042 1413.5,-269.614 1414.9,-276.472"/>
</g>
<!-- Node11 -->
<g id="node11" class="node"><title>Node11</title>
<g id="a_node11"><a xlink:href="CheckRunner_8h.html" target="_top" xlink:title="QualityControl/CheckRunner.h">
<polygon fill="none" stroke="black" points="1232,-252 1232,-271 1382,-271 1382,-252 1232,-252"/>
<text text-anchor="middle" x="1307" y="-259" font-family="Helvetica,sans-Serif" font-size="10.00">QualityControl/CheckRunner.h</text>
</a>
</g>
</g>
<!-- Node1&#45;&gt;Node11 -->
<g id="edge10" class="edge"><title>Node1&#45;&gt;Node11</title>
<path fill="none" stroke="midnightblue" d="M733.68,-320.728C850.651,-308.848 1092.62,-284.273 1221.63,-271.17"/>
<polygon fill="midnightblue" stroke="midnightblue" points="1222.27,-274.624 1231.86,-270.131 1221.56,-267.66 1222.27,-274.624"/>
</g>
<!-- Node29 -->
<g id="node29" class="node"><title>Node29</title>
<g id="a_node29"><a xlink:href="QualityObject_8h_source.html" target="_top" xlink:title="QualityControl/QualityObject.h">
<polygon fill="none" stroke="black" points="1056.5,-123.5 1056.5,-142.5 1205.5,-142.5 1205.5,-123.5 1056.5,-123.5"/>
<text text-anchor="middle" x="1131" y="-130.5" font-family="Helvetica,sans-Serif" font-size="10.00">QualityControl/QualityObject.h</text>
</a>
</g>
</g>
<!-- Node1&#45;&gt;Node29 -->
<g id="edge67" class="edge"><title>Node1&#45;&gt;Node29</title>
<path fill="none" stroke="midnightblue" d="M671.521,-313.055C681.928,-282.454 710.706,-211.267 762,-179 785.535,-164.195 944.599,-148.93 1046.06,-140.534"/>
<polygon fill="midnightblue" stroke="midnightblue" points="1046.62,-144 1056.3,-139.694 1046.05,-137.023 1046.62,-144"/>
</g>
<!-- Node36 -->
<g id="node36" class="node"><title>Node36</title>
<g id="a_node36"><a xlink:href="runnerUtils_8h.html" target="_top" xlink:title="QualityControl/runnerUtils.h">
<polygon fill="none" stroke="black" points="402.5,-67.5 402.5,-86.5 539.5,-86.5 539.5,-67.5 402.5,-67.5"/>
<text text-anchor="middle" x="471" y="-74.5" font-family="Helvetica,sans-Serif" font-size="10.00">QualityControl/runnerUtils.h</text>
</a>
</g>
</g>
<!-- Node1&#45;&gt;Node36 -->
<g id="edge68" class="edge"><title>Node1&#45;&gt;Node36</title>
<path fill="none" stroke="midnightblue" d="M608.217,-313.392C556.894,-297.62 485.524,-266.526 452,-210 430.626,-173.96 448.968,-122.908 461.554,-96.0798"/>
<polygon fill="midnightblue" stroke="midnightblue" points="464.863,-97.2842 466.155,-86.7685 458.587,-94.1828 464.863,-97.2842"/>
</g>
<!-- Node38 -->
<g id="node38" class="node"><title>Node38</title>
<polygon fill="none" stroke="#bfbfbf" points="1538,-252 1538,-271 1698,-271 1698,-252 1538,-252"/>
<text text-anchor="middle" x="1618" y="-259" font-family="Helvetica,sans-Serif" font-size="10.00">Framework/runDataProcessing.h</text>
</g>
<!-- Node1&#45;&gt;Node38 -->
<g id="edge72" class="edge"><title>Node1&#45;&gt;Node38</title>
<path fill="none" stroke="midnightblue" d="M733.628,-325.887C878.51,-321.877 1232.92,-309.341 1528,-277 1538.72,-275.825 1550.11,-274.248 1561.05,-272.567"/>
<polygon fill="midnightblue" stroke="midnightblue" points="1561.62,-276.022 1570.95,-271.002 1560.52,-269.108 1561.62,-276.022"/>
</g>
<!-- Node39 -->
<g id="node39" class="node"><title>Node39</title>
<polygon fill="none" stroke="#bfbfbf" points="1716.5,-252 1716.5,-271 1857.5,-271 1857.5,-252 1716.5,-252"/>
<text text-anchor="middle" x="1787" y="-259" font-family="Helvetica,sans-Serif" font-size="10.00">Framework/ControlService.h</text>
</g>
<!-- Node1&#45;&gt;Node39 -->
<g id="edge73" class="edge"><title>Node1&#45;&gt;Node39</title>
<path fill="none" stroke="midnightblue" d="M733.555,-327.28C898.834,-326.079 1341.07,-318.865 1707,-277 1716.27,-275.94 1726.08,-274.46 1735.55,-272.849"/>
<polygon fill="midnightblue" stroke="midnightblue" points="1736.4,-276.253 1745.63,-271.062 1735.17,-269.36 1736.4,-276.253"/>
</g>
<!-- Node40 -->
<g id="node40" class="node"><title>Node40</title>
<polygon fill="none" stroke="#bfbfbf" points="1876,-252 1876,-271 1906,-271 1906,-252 1876,-252"/>
<text text-anchor="middle" x="1891" y="-259" font-family="Helvetica,sans-Serif" font-size="10.00">set</text>
</g>
<!-- Node1&#45;&gt;Node40 -->
<g id="edge74" class="edge"><title>Node1&#45;&gt;Node40</title>
<path fill="none" stroke="midnightblue" d="M733.707,-326.626C969.961,-323.264 1758.57,-309.685 1867,-277 1868.07,-276.677 1869.15,-276.295 1870.21,-275.867"/>
<polygon fill="midnightblue" stroke="midnightblue" points="1872.08,-278.841 1879.35,-271.137 1868.86,-272.625 1872.08,-278.841"/>
</g>
<!-- Node5&#45;&gt;Node6 -->
<g id="edge5" class="edge"><title>Node5&#45;&gt;Node6</title>
<path fill="none" stroke="midnightblue" d="M580.973,-179.475C621.132,-168.203 676.349,-152.706 710.839,-143.026"/>
<polygon fill="midnightblue" stroke="midnightblue" points="712.156,-146.292 720.838,-140.22 710.265,-139.552 712.156,-146.292"/>
</g>
<!-- Node7 -->
<g id="node7" class="node"><title>Node7</title>
<polygon fill="none" stroke="#bfbfbf" points="1097.5,-6 1097.5,-25 1138.5,-25 1138.5,-6 1097.5,-6"/>
<text text-anchor="middle" x="1118" y="-13" font-family="Helvetica,sans-Serif" font-size="10.00">string</text>
</g>
<!-- Node5&#45;&gt;Node7 -->
<g id="edge6" class="edge"><title>Node5&#45;&gt;Node7</title>
<path fill="none" stroke="midnightblue" d="M560.131,-179.386C576.227,-170.552 595.781,-158.007 610,-143 636.693,-114.828 620.581,-88.3348 653,-67 724.774,-19.7657 995.639,-16.1146 1087.39,-16.2682"/>
<polygon fill="midnightblue" stroke="midnightblue" points="1087.41,-19.7682 1097.43,-16.3019 1087.44,-12.7683 1087.41,-19.7682"/>
</g>
<!-- Node8 -->
<g id="node8" class="node"><title>Node8</title>
<polygon fill="none" stroke="#bfbfbf" points="461,-123.5 461,-142.5 601,-142.5 601,-123.5 461,-123.5"/>
<text text-anchor="middle" x="531" y="-130.5" font-family="Helvetica,sans-Serif" font-size="10.00">Framework/WorkflowSpec.h</text>
</g>
<!-- Node5&#45;&gt;Node8 -->
<g id="edge7" class="edge"><title>Node5&#45;&gt;Node8</title>
<path fill="none" stroke="midnightblue" d="M531,-179.399C531,-171.466 531,-161.458 531,-152.858"/>
<polygon fill="midnightblue" stroke="midnightblue" points="534.5,-152.658 531,-142.658 527.5,-152.658 534.5,-152.658"/>
</g>
<!-- Node9 -->
<g id="node9" class="node"><title>Node9</title>
<polygon fill="none" stroke="#bfbfbf" points="837,-123.5 837,-142.5 1001,-142.5 1001,-123.5 837,-123.5"/>
<text text-anchor="middle" x="919" y="-130.5" font-family="Helvetica,sans-Serif" font-size="10.00">Framework/DataProcessorSpec.h</text>
</g>
<!-- Node5&#45;&gt;Node9 -->
<g id="edge8" class="edge"><title>Node5&#45;&gt;Node9</title>
<path fill="none" stroke="midnightblue" d="M601.264,-182.725C672.97,-171.729 783.383,-154.797 853.365,-144.065"/>
<polygon fill="midnightblue" stroke="midnightblue" points="854.033,-147.504 863.387,-142.528 852.972,-140.585 854.033,-147.504"/>
</g>
<!-- Node11&#45;&gt;Node6 -->
<g id="edge15" class="edge"><title>Node11&#45;&gt;Node6</title>
<path fill="none" stroke="midnightblue" d="M1231.92,-258.301C1090.79,-253.485 796.909,-239.951 762,-210 745.743,-196.052 742.298,-170.499 742.054,-152.901"/>
<polygon fill="midnightblue" stroke="midnightblue" points="745.557,-152.753 742.253,-142.687 738.558,-152.617 745.557,-152.753"/>
</g>
<!-- Node11&#45;&gt;Node7 -->
<g id="edge13" class="edge"><title>Node11&#45;&gt;Node7</title>
<path fill="none" stroke="midnightblue" d="M1231.87,-257.981C1087.27,-252.528 781.013,-237.821 742,-210 715.436,-191.057 718.817,-174.906 712,-143 710.143,-134.307 706.57,-130.038 712,-123 758.63,-62.5608 1000.87,-29.7168 1087.31,-19.7813"/>
<polygon fill="midnightblue" stroke="midnightblue" points="1087.74,-23.2548 1097.29,-18.6573 1086.96,-16.2988 1087.74,-23.2548"/>
</g>
<!-- Node11&#45;&gt;Node9 -->
<g id="edge22" class="edge"><title>Node11&#45;&gt;Node9</title>
<path fill="none" stroke="midnightblue" d="M1314.97,-251.774C1328.84,-235.532 1354.19,-200.376 1335,-179 1332.3,-175.997 1132.79,-155.469 1011.08,-143.201"/>
<polygon fill="midnightblue" stroke="midnightblue" points="1011.31,-139.706 1001,-142.186 1010.6,-146.671 1011.31,-139.706"/>
</g>
<!-- Node12 -->
<g id="node12" class="node"><title>Node12</title>
<polygon fill="none" stroke="#bfbfbf" points="1571,-185 1571,-204 1617,-204 1617,-185 1571,-185"/>
<text text-anchor="middle" x="1594" y="-192" font-family="Helvetica,sans-Serif" font-size="10.00">chrono</text>
</g>
<!-- Node11&#45;&gt;Node12 -->
<g id="edge11" class="edge"><title>Node11&#45;&gt;Node12</title>
<path fill="none" stroke="midnightblue" d="M1353.14,-251.958C1421.15,-239.277 1542.39,-216.291 1562,-210 1563.87,-209.399 1565.78,-208.719 1567.69,-207.99"/>
<polygon fill="midnightblue" stroke="midnightblue" points="1569.15,-211.172 1577.02,-204.07 1566.44,-204.718 1569.15,-211.172"/>
</g>
<!-- Node13 -->
<g id="node13" class="node"><title>Node13</title>
<polygon fill="none" stroke="#bfbfbf" points="1261,-123.5 1261,-142.5 1313,-142.5 1313,-123.5 1261,-123.5"/>
<text text-anchor="middle" x="1287" y="-130.5" font-family="Helvetica,sans-Serif" font-size="10.00">memory</text>
</g>
<!-- Node11&#45;&gt;Node13 -->
<g id="edge12" class="edge"><title>Node11&#45;&gt;Node13</title>
<path fill="none" stroke="midnightblue" d="M1355.39,-251.986C1367.04,-249.98 1379.46,-247.88 1391,-246 1498.19,-228.539 1698.14,-260.186 1626,-179 1582.76,-130.332 1405.09,-153.293 1323.66,-142.789"/>
<polygon fill="midnightblue" stroke="midnightblue" points="1323.71,-139.255 1313.29,-141.162 1322.63,-146.17 1323.71,-139.255"/>
</g>
<!-- Node14 -->
<g id="node14" class="node"><title>Node14</title>
<polygon fill="none" stroke="#bfbfbf" points="1805.5,-6 1805.5,-25 1840.5,-25 1840.5,-6 1805.5,-6"/>
<text text-anchor="middle" x="1823" y="-13" font-family="Helvetica,sans-Serif" font-size="10.00">map</text>
</g>
<!-- Node11&#45;&gt;Node14 -->
<g id="edge14" class="edge"><title>Node11&#45;&gt;Node14</title>
<path fill="none" stroke="midnightblue" d="M1350.46,-251.974C1363.45,-249.702 1377.76,-247.473 1391,-246 1469.51,-237.266 2034.25,-252.239 2101,-210 2155.59,-175.457 2172.95,-112.4 2127,-67 2088.24,-28.71 1918.75,-19.3818 1851.06,-17.168"/>
<polygon fill="midnightblue" stroke="midnightblue" points="1850.85,-13.66 1840.75,-16.8606 1850.64,-20.6569 1850.85,-13.66"/>
</g>
<!-- Node15 -->
<g id="node15" class="node"><title>Node15</title>
<polygon fill="none" stroke="#bfbfbf" points="1887,-185 1887,-204 1965,-204 1965,-185 1887,-185"/>
<text text-anchor="middle" x="1926" y="-192" font-family="Helvetica,sans-Serif" font-size="10.00">unordered_set</text>
</g>
<!-- Node11&#45;&gt;Node15 -->
<g id="edge16" class="edge"><title>Node11&#45;&gt;Node15</title>
<path fill="none" stroke="midnightblue" d="M1351.78,-251.947C1364.43,-249.756 1378.22,-247.576 1391,-246 1604.2,-219.699 1661.31,-246.513 1873,-210 1878.16,-209.111 1883.53,-207.937 1888.81,-206.642"/>
<polygon fill="midnightblue" stroke="midnightblue" points="1889.93,-209.964 1898.72,-204.043 1888.16,-203.193 1889.93,-209.964"/>
</g>
<!-- Node16 -->
<g id="node16" class="node"><title>Node16</title>
<polygon fill="none" stroke="#bfbfbf" points="1983,-185 1983,-204 2075,-204 2075,-185 1983,-185"/>
<text text-anchor="middle" x="2029" y="-192" font-family="Helvetica,sans-Serif" font-size="10.00">Common/Timer.h</text>
</g>
<!-- Node11&#45;&gt;Node16 -->
<g id="edge17" class="edge"><title>Node11&#45;&gt;Node16</title>
<path fill="none" stroke="midnightblue" d="M1350.9,-251.99C1363.78,-249.747 1377.92,-247.528 1391,-246 1648.85,-215.875 1717.7,-251.288 1974,-210 1979.54,-209.107 1985.34,-207.895 1991,-206.55"/>
<polygon fill="midnightblue" stroke="midnightblue" points="1992.13,-209.874 2000.96,-204.025 1990.41,-203.089 1992.13,-209.874"/>
</g>
<!-- Node17 -->
<g id="node17" class="node"><title>Node17</title>
<polygon fill="none" stroke="#bfbfbf" points="771,-185 771,-204 869,-204 869,-185 771,-185"/>
<text text-anchor="middle" x="820" y="-192" font-family="Helvetica,sans-Serif" font-size="10.00">Framework/Task.h</text>
</g>
<!-- Node11&#45;&gt;Node17 -->
<g id="edge18" class="edge"><title>Node11&#45;&gt;Node17</title>
<path fill="none" stroke="midnightblue" d="M1231.78,-254.578C1145.78,-247.129 1001.01,-232.52 878,-210 872.512,-208.995 866.772,-207.773 861.128,-206.469"/>
<polygon fill="midnightblue" stroke="midnightblue" points="861.687,-203.004 851.145,-204.064 860.047,-209.809 861.687,-203.004"/>
</g>
<!-- Node18 -->
<g id="node18" class="node"><title>Node18</title>
<polygon fill="none" stroke="#bfbfbf" points="887.5,-185 887.5,-204 1004.5,-204 1004.5,-185 887.5,-185"/>
<text text-anchor="middle" x="946" y="-192" font-family="Helvetica,sans-Serif" font-size="10.00">Headers/DataHeader.h</text>
</g>
<!-- Node11&#45;&gt;Node18 -->
<g id="edge19" class="edge"><title>Node11&#45;&gt;Node18</title>
<path fill="none" stroke="midnightblue" d="M1253.23,-251.976C1194.18,-242.45 1096.63,-226.225 1013,-210 1006.87,-208.81 1000.43,-207.498 994.074,-206.165"/>
<polygon fill="midnightblue" stroke="midnightblue" points="994.717,-202.723 984.207,-204.066 993.26,-209.57 994.717,-202.723"/>
</g>
<!-- Node19 -->
<g id="node19" class="node"><title>Node19</title>
<polygon fill="none" stroke="#bfbfbf" points="1022.5,-185 1022.5,-204 1173.5,-204 1173.5,-185 1022.5,-185"/>
<text text-anchor="middle" x="1098" y="-192" font-family="Helvetica,sans-Serif" font-size="10.00">Monitoring/MonitoringFactory.h</text>
</g>
<!-- Node11&#45;&gt;Node19 -->
<g id="edge20" class="edge"><title>Node11&#45;&gt;Node19</title>
<path fill="none" stroke="midnightblue" d="M1279.25,-251.869C1242.21,-240.351 1176.53,-219.922 1135.22,-207.077"/>
<polygon fill="midnightblue" stroke="midnightblue" points="1136.12,-203.691 1125.54,-204.064 1134.04,-210.376 1136.12,-203.691"/>
</g>
<!-- Node20 -->
<g id="node20" class="node"><title>Node20</title>
<polygon fill="none" stroke="#bfbfbf" points="1191.5,-179.5 1191.5,-209.5 1326.5,-209.5 1326.5,-179.5 1191.5,-179.5"/>
<text text-anchor="start" x="1199.5" y="-197.5" font-family="Helvetica,sans-Serif" font-size="10.00">Configuration/Configuration</text>
<text text-anchor="middle" x="1259" y="-186.5" font-family="Helvetica,sans-Serif" font-size="10.00">Interface.h</text>
</g>
<!-- Node11&#45;&gt;Node20 -->
<g id="edge21" class="edge"><title>Node11&#45;&gt;Node20</title>
<path fill="none" stroke="midnightblue" d="M1300.53,-251.734C1294.1,-243.034 1283.99,-229.345 1275.36,-217.651"/>
<polygon fill="midnightblue" stroke="midnightblue" points="1278.16,-215.554 1269.4,-209.589 1272.53,-219.713 1278.16,-215.554"/>
</g>
<!-- Node21 -->
<g id="node21" class="node"><title>Node21</title>
<g id="a_node21"><a xlink:href="CheckInterface_8h.html" target="_top" xlink:title="QualityControl/CheckInterface.h">
<polygon fill="none" stroke="black" points="1727.5,-123.5 1727.5,-142.5 1884.5,-142.5 1884.5,-123.5 1727.5,-123.5"/>
<text text-anchor="middle" x="1806" y="-130.5" font-family="Helvetica,sans-Serif" font-size="10.00">QualityControl/CheckInterface.h</text>
</a>
</g>
</g>
<!-- Node11&#45;&gt;Node21 -->
<g id="edge23" class="edge"><title>Node11&#45;&gt;Node21</title>
<path fill="none" stroke="midnightblue" d="M1352.23,-251.978C1364.76,-249.813 1378.38,-247.639 1391,-246 1436.46,-240.096 1770.15,-242.974 1802,-210 1816.38,-195.109 1814.66,-169.978 1811.16,-152.718"/>
<polygon fill="midnightblue" stroke="midnightblue" points="1814.49,-151.606 1808.75,-142.7 1807.68,-153.241 1814.49,-151.606"/>
</g>
<!-- Node24 -->
<g id="node24" class="node"><title>Node24</title>
<g id="a_node24"><a xlink:href="MonitorObject_8h.html" target="_top" xlink:title="QualityControl/MonitorObject.h">
<polygon fill="none" stroke="black" points="1605.5,-67.5 1605.5,-86.5 1756.5,-86.5 1756.5,-67.5 1605.5,-67.5"/>
<text text-anchor="middle" x="1681" y="-74.5" font-family="Helvetica,sans-Serif" font-size="10.00">QualityControl/MonitorObject.h</text>
</a>
</g>
</g>
<!-- Node11&#45;&gt;Node24 -->
<g id="edge49" class="edge"><title>Node11&#45;&gt;Node24</title>
<path fill="none" stroke="midnightblue" d="M1352.23,-251.946C1364.75,-249.781 1378.38,-247.615 1391,-246 1486.11,-233.833 1733.17,-248.49 1821,-210 1861.33,-192.323 1876.28,-183.316 1894,-143 1897.58,-134.862 1899.6,-129.905 1894,-123 1877.82,-103.046 1818.77,-91.5947 1766.93,-85.2427"/>
<polygon fill="midnightblue" stroke="midnightblue" points="1767.01,-81.7286 1756.67,-84.0393 1766.2,-88.6809 1767.01,-81.7286"/>
</g>
<!-- Node28 -->
<g id="node28" class="node"><title>Node28</title>
<g id="a_node28"><a xlink:href="DatabaseInterface_8h.html" target="_top" xlink:title="QualityControl/DatabaseInterface.h">
<polygon fill="none" stroke="black" points="1383,-185 1383,-204 1553,-204 1553,-185 1383,-185"/>
<text text-anchor="middle" x="1468" y="-192" font-family="Helvetica,sans-Serif" font-size="10.00">QualityControl/DatabaseInterface.h</text>
</a>
</g>
</g>
<!-- Node11&#45;&gt;Node28 -->
<g id="edge37" class="edge"><title>Node11&#45;&gt;Node28</title>
<path fill="none" stroke="midnightblue" d="M1328.38,-251.869C1356.36,-240.571 1405.59,-220.696 1437.49,-207.818"/>
<polygon fill="midnightblue" stroke="midnightblue" points="1438.83,-211.053 1446.79,-204.064 1436.21,-204.562 1438.83,-211.053"/>
</g>
<!-- Node31 -->
<g id="node31" class="node"><title>Node31</title>
<g id="a_node31"><a xlink:href="QcInfoLogger_8h.html" target="_top" xlink:title="QualityControl/QcInfoLogger.h">
<polygon fill="none" stroke="black" points="1978.5,-123.5 1978.5,-142.5 2127.5,-142.5 2127.5,-123.5 1978.5,-123.5"/>
<text text-anchor="middle" x="2053" y="-130.5" font-family="Helvetica,sans-Serif" font-size="10.00">QualityControl/QcInfoLogger.h</text>
</a>
</g>
</g>
<!-- Node11&#45;&gt;Node31 -->
<g id="edge50" class="edge"><title>Node11&#45;&gt;Node31</title>
<path fill="none" stroke="midnightblue" d="M1350.46,-251.984C1363.45,-249.713 1377.76,-247.481 1391,-246 1467.63,-237.427 2030.91,-265.917 2084,-210 2100.02,-193.126 2082.99,-166.86 2068.56,-150.046"/>
<polygon fill="midnightblue" stroke="midnightblue" points="2071.15,-147.691 2061.84,-142.635 2065.96,-152.393 2071.15,-147.691"/>
</g>
<!-- Node33 -->
<g id="node33" class="node"><title>Node33</title>
<g id="a_node33"><a xlink:href="Check_8h_source.html" target="_top" xlink:title="QualityControl/Check.h">
<polygon fill="none" stroke="black" points="1673.5,-185 1673.5,-204 1792.5,-204 1792.5,-185 1673.5,-185"/>
<text text-anchor="middle" x="1733" y="-192" font-family="Helvetica,sans-Serif" font-size="10.00">QualityControl/Check.h</text>
</a>
</g>
</g>
<!-- Node11&#45;&gt;Node33 -->
<g id="edge52" class="edge"><title>Node11&#45;&gt;Node33</title>
<path fill="none" stroke="midnightblue" d="M1354.48,-251.985C1366.39,-249.937 1379.15,-247.818 1391,-246 1509.79,-227.775 1540.42,-229.564 1659,-210 1666.36,-208.785 1674.12,-207.392 1681.73,-205.96"/>
<polygon fill="midnightblue" stroke="midnightblue" points="1682.43,-209.389 1691.59,-204.068 1681.11,-202.514 1682.43,-209.389"/>
</g>
<!-- Node21&#45;&gt;Node7 -->
<g id="edge24" class="edge"><title>Node21&#45;&gt;Node7</title>
<path fill="none" stroke="midnightblue" d="M1747.71,-123.494C1705.18,-116.321 1646.55,-104.409 1597,-87 1578.25,-80.4117 1576.05,-72.6663 1557,-67 1408.72,-22.8981 1221.66,-16.9404 1148.91,-16.3986"/>
<polygon fill="midnightblue" stroke="midnightblue" points="1148.65,-12.8975 1138.63,-16.3536 1148.62,-19.8975 1148.65,-12.8975"/>
</g>
<!-- Node21&#45;&gt;Node14 -->
<g id="edge25" class="edge"><title>Node21&#45;&gt;Node14</title>
<path fill="none" stroke="midnightblue" d="M1807.28,-123.319C1810.01,-104.757 1816.47,-60.8391 1820.21,-35.4734"/>
<polygon fill="midnightblue" stroke="midnightblue" points="1823.71,-35.6851 1821.71,-25.282 1816.79,-34.6657 1823.71,-35.6851"/>
</g>
<!-- Node22 -->
<g id="node22" class="node"><title>Node22</title>
<polygon fill="none" stroke="#bfbfbf" points="1465.5,-67.5 1465.5,-86.5 1548.5,-86.5 1548.5,-67.5 1465.5,-67.5"/>
<text text-anchor="middle" x="1507" y="-74.5" font-family="Helvetica,sans-Serif" font-size="10.00">unordered_map</text>
</g>
<!-- Node21&#45;&gt;Node22 -->
<g id="edge26" class="edge"><title>Node21&#45;&gt;Node22</title>
<path fill="none" stroke="midnightblue" d="M1758.62,-123.444C1704.21,-113.617 1615.23,-97.5461 1558.96,-87.3839"/>
<polygon fill="midnightblue" stroke="midnightblue" points="1559.31,-83.8911 1548.85,-85.558 1558.07,-90.7796 1559.31,-83.8911"/>
</g>
<!-- Node23 -->
<g id="node23" class="node"><title>Node23</title>
<polygon fill="none" stroke="#bfbfbf" points="1653,-6 1653,-25 1709,-25 1709,-6 1653,-6"/>
<text text-anchor="middle" x="1681" y="-13" font-family="Helvetica,sans-Serif" font-size="10.00">Rtypes.h</text>
</g>
<!-- Node21&#45;&gt;Node23 -->
<g id="edge27" class="edge"><title>Node21&#45;&gt;Node23</title>
<path fill="none" stroke="midnightblue" d="M1802.21,-123.087C1796.15,-109.634 1783.18,-83.919 1766,-67 1750,-51.2506 1728.17,-38.4132 1710.63,-29.6229"/>
<polygon fill="midnightblue" stroke="midnightblue" points="1711.93,-26.3604 1701.4,-25.1629 1708.88,-32.6637 1711.93,-26.3604"/>
</g>
<!-- Node21&#45;&gt;Node24 -->
<g id="edge28" class="edge"><title>Node21&#45;&gt;Node24</title>
<path fill="none" stroke="midnightblue" d="M1786.19,-123.444C1765.71,-114.596 1733.52,-100.687 1710.14,-90.5865"/>
<polygon fill="midnightblue" stroke="midnightblue" points="1711.28,-87.2692 1700.71,-86.5164 1708.51,-93.6953 1711.28,-87.2692"/>
</g>
<!-- Node27 -->
<g id="node27" class="node"><title>Node27</title>
<g id="a_node27"><a xlink:href="Quality_8h.html" target="_top" xlink:title="QualityControl/Quality.h">
<polygon fill="none" stroke="black" points="1326.5,-67.5 1326.5,-86.5 1447.5,-86.5 1447.5,-67.5 1326.5,-67.5"/>
<text text-anchor="middle" x="1387" y="-74.5" font-family="Helvetica,sans-Serif" font-size="10.00">QualityControl/Quality.h</text>
</a>
</g>
</g>
<!-- Node21&#45;&gt;Node27 -->
<g id="edge34" class="edge"><title>Node21&#45;&gt;Node27</title>
<path fill="none" stroke="midnightblue" d="M1739.55,-123.493C1671.34,-114.753 1561.84,-100.698 1457.65,-87.2115"/>
<polygon fill="midnightblue" stroke="midnightblue" points="1457.95,-83.7214 1447.58,-85.9083 1457.05,-90.6635 1457.95,-83.7214"/>
</g>
<!-- Node24&#45;&gt;Node7 -->
<g id="edge29" class="edge"><title>Node24&#45;&gt;Node7</title>
<path fill="none" stroke="midnightblue" d="M1605.36,-68.0065C1480.12,-54.77 1234.92,-28.8569 1148.8,-19.7549"/>
<polygon fill="midnightblue" stroke="midnightblue" points="1148.95,-16.252 1138.64,-18.6816 1148.22,-23.2132 1148.95,-16.252"/>
</g>
<!-- Node24&#45;&gt;Node14 -->
<g id="edge30" class="edge"><title>Node24&#45;&gt;Node14</title>
<path fill="none" stroke="midnightblue" d="M1701.35,-67.4751C1726.21,-57.0579 1768.36,-39.3959 1795.94,-27.84"/>
<polygon fill="midnightblue" stroke="midnightblue" points="1797.51,-30.9763 1805.38,-23.8836 1794.8,-24.5202 1797.51,-30.9763"/>
</g>
<!-- Node24&#45;&gt;Node23 -->
<g id="edge31" class="edge"><title>Node24&#45;&gt;Node23</title>
<path fill="none" stroke="midnightblue" d="M1681,-67.4751C1681,-59.0803 1681,-45.9806 1681,-35.1631"/>
<polygon fill="midnightblue" stroke="midnightblue" points="1684.5,-35.0091 1681,-25.0091 1677.5,-35.0091 1684.5,-35.0091"/>
</g>
<!-- Node25 -->
<g id="node25" class="node"><title>Node25</title>
<polygon fill="none" stroke="#bfbfbf" points="1410.5,-6 1410.5,-25 1469.5,-25 1469.5,-6 1410.5,-6"/>
<text text-anchor="middle" x="1440" y="-13" font-family="Helvetica,sans-Serif" font-size="10.00">TObject.h</text>
</g>
<!-- Node24&#45;&gt;Node25 -->
<g id="edge32" class="edge"><title>Node24&#45;&gt;Node25</title>
<path fill="none" stroke="midnightblue" d="M1646.47,-67.4751C1602.3,-56.5711 1525.99,-37.7295 1479.54,-26.2614"/>
<polygon fill="midnightblue" stroke="midnightblue" points="1480.09,-22.7916 1469.54,-23.7926 1478.41,-29.5876 1480.09,-22.7916"/>
</g>
<!-- Node26 -->
<g id="node26" class="node"><title>Node26</title>
<polygon fill="none" stroke="#bfbfbf" points="545,-6 545,-25 661,-25 661,-6 545,-6"/>
<text text-anchor="middle" x="603" y="-13" font-family="Helvetica,sans-Serif" font-size="10.00">Common/Exceptions.h</text>
</g>
<!-- Node24&#45;&gt;Node26 -->
<g id="edge33" class="edge"><title>Node24&#45;&gt;Node26</title>
<path fill="none" stroke="midnightblue" d="M1605.28,-70.2673C1589.34,-69.1268 1572.62,-67.9801 1557,-67 1225.28,-46.1841 828.318,-27.0126 671.522,-19.6663"/>
<polygon fill="midnightblue" stroke="midnightblue" points="671.251,-16.1499 661.098,-19.1788 670.924,-23.1423 671.251,-16.1499"/>
</g>
<!-- Node27&#45;&gt;Node7 -->
<g id="edge36" class="edge"><title>Node27&#45;&gt;Node7</title>
<path fill="none" stroke="midnightblue" d="M1348.46,-67.4751C1294.59,-55.5603 1197.88,-34.1679 1148.63,-23.2744"/>
<polygon fill="midnightblue" stroke="midnightblue" points="1149.11,-19.7963 1138.59,-21.0539 1147.6,-26.6311 1149.11,-19.7963"/>
</g>
<!-- Node27&#45;&gt;Node23 -->
<g id="edge35" class="edge"><title>Node27&#45;&gt;Node23</title>
<path fill="none" stroke="midnightblue" d="M1429.12,-67.4751C1486.25,-55.9132 1587.48,-35.4269 1642.61,-24.2695"/>
<polygon fill="midnightblue" stroke="midnightblue" points="1643.56,-27.6475 1652.67,-22.2334 1642.17,-20.7866 1643.56,-27.6475"/>
</g>
<!-- Node28&#45;&gt;Node6 -->
<g id="edge40" class="edge"><title>Node28&#45;&gt;Node6</title>
<path fill="none" stroke="midnightblue" d="M1394.53,-184.989C1375.18,-182.885 1354.32,-180.738 1335,-179 1110.01,-158.755 1053.02,-162.896 828,-143 810.705,-141.471 791.464,-139.46 775.669,-137.726"/>
<polygon fill="midnightblue" stroke="midnightblue" points="775.675,-134.205 765.35,-136.58 774.902,-141.163 775.675,-134.205"/>
</g>
<!-- Node28&#45;&gt;Node7 -->
<g id="edge38" class="edge"><title>Node28&#45;&gt;Node7</title>
<path fill="none" stroke="midnightblue" d="M1401.12,-184.972C1385.34,-182.987 1368.58,-180.899 1353,-179 1285.03,-170.717 1092.5,-194.165 1047,-143 1015.79,-107.907 1067.72,-56.8215 1098.23,-31.6601"/>
<polygon fill="midnightblue" stroke="midnightblue" points="1100.56,-34.2718 1106.18,-25.2855 1096.18,-28.8106 1100.56,-34.2718"/>
</g>
<!-- Node28&#45;&gt;Node13 -->
<g id="edge39" class="edge"><title>Node28&#45;&gt;Node13</title>
<path fill="none" stroke="midnightblue" d="M1442.07,-184.975C1410.75,-174.68 1357.91,-157.31 1322.74,-145.75"/>
<polygon fill="midnightblue" stroke="midnightblue" points="1323.48,-142.307 1312.88,-142.509 1321.29,-148.957 1323.48,-142.307"/>
</g>
<!-- Node28&#45;&gt;Node22 -->
<g id="edge41" class="edge"><title>Node28&#45;&gt;Node22</title>
<path fill="none" stroke="midnightblue" d="M1417.08,-184.994C1356.53,-174.364 1262.31,-155.993 1252,-143 1246.48,-136.036 1246.29,-129.81 1252,-123 1252,-123 1380.8,-100.27 1455.33,-87.1189"/>
<polygon fill="midnightblue" stroke="midnightblue" points="1456.22,-90.5149 1465.46,-85.3302 1455.01,-83.6214 1456.22,-90.5149"/>
</g>
<!-- Node28&#45;&gt;Node24 -->
<g id="edge48" class="edge"><title>Node28&#45;&gt;Node24</title>
<path fill="none" stroke="midnightblue" d="M1484.01,-184.819C1520.88,-164.828 1611.97,-115.429 1656.17,-91.4667"/>
<polygon fill="midnightblue" stroke="midnightblue" points="1657.97,-94.4681 1665.1,-86.6245 1654.64,-88.3146 1657.97,-94.4681"/>
</g>
<!-- Node28&#45;&gt;Node29 -->
<g id="edge42" class="edge"><title>Node28&#45;&gt;Node29</title>
<path fill="none" stroke="midnightblue" d="M1419.72,-184.975C1358.91,-174.239 1254.51,-155.806 1189.31,-144.295"/>
<polygon fill="midnightblue" stroke="midnightblue" points="1189.65,-140.801 1179.19,-142.509 1188.43,-147.695 1189.65,-140.801"/>
</g>
<!-- Node29&#45;&gt;Node14 -->
<g id="edge44" class="edge"><title>Node29&#45;&gt;Node14</title>
<path fill="none" stroke="midnightblue" d="M1161.56,-123.468C1190.56,-115.099 1235.22,-101.513 1273,-87 1293.05,-79.2971 1296.23,-72.4825 1317,-67 1490.01,-21.3301 1540.21,-51.2449 1718,-31 1744.28,-28.0078 1774.14,-23.8052 1795.29,-20.6944"/>
<polygon fill="midnightblue" stroke="midnightblue" points="1795.82,-24.1537 1805.2,-19.2223 1794.79,-17.2297 1795.82,-24.1537"/>
</g>
<!-- Node29&#45;&gt;Node25 -->
<g id="edge45" class="edge"><title>Node29&#45;&gt;Node25</title>
<path fill="none" stroke="midnightblue" d="M1149.36,-123.408C1177.55,-110.374 1233.35,-85.1977 1282,-67 1321.79,-52.1159 1368.2,-37.615 1400.37,-27.999"/>
<polygon fill="midnightblue" stroke="midnightblue" points="1401.7,-31.2551 1410.3,-25.0543 1399.71,-24.5445 1401.7,-31.2551"/>
</g>
<!-- Node29&#45;&gt;Node26 -->
<g id="edge46" class="edge"><title>Node29&#45;&gt;Node26</title>
<path fill="none" stroke="midnightblue" d="M1091.75,-123.413C997.031,-102.694 756.122,-49.9955 652.082,-27.2366"/>
<polygon fill="midnightblue" stroke="midnightblue" points="652.671,-23.7828 642.154,-25.065 651.175,-30.6211 652.671,-23.7828"/>
</g>
<!-- Node29&#45;&gt;Node27 -->
<g id="edge47" class="edge"><title>Node29&#45;&gt;Node27</title>
<path fill="none" stroke="midnightblue" d="M1171.56,-123.444C1216.32,-114.004 1288.38,-98.802 1336.7,-88.6111"/>
<polygon fill="midnightblue" stroke="midnightblue" points="1337.56,-92.0051 1346.63,-86.5164 1336.12,-85.1558 1337.56,-92.0051"/>
</g>
<!-- Node30 -->
<g id="node30" class="node"><title>Node30</title>
<polygon fill="none" stroke="#bfbfbf" points="1104,-67.5 1104,-86.5 1158,-86.5 1158,-67.5 1104,-67.5"/>
<text text-anchor="middle" x="1131" y="-74.5" font-family="Helvetica,sans-Serif" font-size="10.00">iostream</text>
</g>
<!-- Node29&#45;&gt;Node30 -->
<g id="edge43" class="edge"><title>Node29&#45;&gt;Node30</title>
<path fill="none" stroke="midnightblue" d="M1131,-123.083C1131,-116.006 1131,-105.861 1131,-96.9865"/>
<polygon fill="midnightblue" stroke="midnightblue" points="1134.5,-96.751 1131,-86.7511 1127.5,-96.7511 1134.5,-96.751"/>
</g>
<!-- Node32 -->
<g id="node32" class="node"><title>Node32</title>
<polygon fill="none" stroke="#bfbfbf" points="1988,-67.5 1988,-86.5 2118,-86.5 2118,-67.5 1988,-67.5"/>
<text text-anchor="middle" x="2053" y="-74.5" font-family="Helvetica,sans-Serif" font-size="10.00">InfoLogger/InfoLogger.hxx</text>
</g>
<!-- Node31&#45;&gt;Node32 -->
<g id="edge51" class="edge"><title>Node31&#45;&gt;Node32</title>
<path fill="none" stroke="midnightblue" d="M2053,-123.083C2053,-116.006 2053,-105.861 2053,-96.9865"/>
<polygon fill="midnightblue" stroke="midnightblue" points="2056.5,-96.751 2053,-86.7511 2049.5,-96.7511 2056.5,-96.751"/>
</g>
<!-- Node33&#45;&gt;Node6 -->
<g id="edge55" class="edge"><title>Node33&#45;&gt;Node6</title>
<path fill="none" stroke="midnightblue" d="M1677.3,-184.989C1660.81,-182.731 1642.71,-180.506 1626,-179 1272.41,-147.13 1182.02,-169.703 828,-143 810.687,-141.694 791.445,-139.702 775.653,-137.924"/>
<polygon fill="midnightblue" stroke="midnightblue" points="775.671,-134.403 765.337,-136.738 774.872,-141.357 775.671,-134.403"/>
</g>
<!-- Node33&#45;&gt;Node9 -->
<g id="edge58" class="edge"><title>Node33&#45;&gt;Node9</title>
<path fill="none" stroke="midnightblue" d="M1675.89,-184.98C1659.79,-182.79 1642.23,-180.602 1626,-179 1369.42,-153.672 1304.27,-160.042 1047,-143 1035.45,-142.235 1023.32,-141.41 1011.31,-140.58"/>
<polygon fill="midnightblue" stroke="midnightblue" points="1011.49,-137.085 1001.28,-139.884 1011.01,-144.068 1011.49,-137.085"/>
</g>
<!-- Node33&#45;&gt;Node13 -->
<g id="edge56" class="edge"><title>Node33&#45;&gt;Node13</title>
<path fill="none" stroke="midnightblue" d="M1692.78,-184.959C1681.86,-182.819 1670,-180.662 1659,-179 1513.26,-156.98 1471.98,-169.271 1323.24,-142.983"/>
<polygon fill="midnightblue" stroke="midnightblue" points="1323.74,-139.518 1313.28,-141.195 1322.51,-146.408 1323.74,-139.518"/>
</g>
<!-- Node33&#45;&gt;Node14 -->
<g id="edge54" class="edge"><title>Node33&#45;&gt;Node14</title>
<path fill="none" stroke="midnightblue" d="M1792.81,-191.477C1828.38,-186.807 1870.94,-174.403 1894,-143 1921.54,-105.495 1872.35,-56.2346 1842.83,-31.7227"/>
<polygon fill="midnightblue" stroke="midnightblue" points="1844.74,-28.7686 1834.76,-25.2225 1840.35,-34.2206 1844.74,-28.7686"/>
</g>
<!-- Node33&#45;&gt;Node21 -->
<g id="edge62" class="edge"><title>Node33&#45;&gt;Node21</title>
<path fill="none" stroke="midnightblue" d="M1743.46,-184.975C1754.95,-175.608 1773.63,-160.384 1787.59,-149.008"/>
<polygon fill="midnightblue" stroke="midnightblue" points="1790.02,-151.54 1795.56,-142.509 1785.6,-146.114 1790.02,-151.54"/>
</g>
<!-- Node33&#45;&gt;Node22 -->
<g id="edge57" class="edge"><title>Node33&#45;&gt;Node22</title>
<path fill="none" stroke="midnightblue" d="M1705.84,-184.942C1678.99,-176.026 1637.1,-160.875 1603,-143 1574.84,-128.236 1544.87,-106.94 1526.06,-92.7971"/>
<polygon fill="midnightblue" stroke="midnightblue" points="1528.09,-89.9417 1518.01,-86.67 1523.85,-95.5118 1528.09,-89.9417"/>
</g>
<!-- Node33&#45;&gt;Node24 -->
<g id="edge61" class="edge"><title>Node33&#45;&gt;Node24</title>
<path fill="none" stroke="midnightblue" d="M1729.09,-184.819C1720.62,-166.006 1700.43,-121.148 1689.08,-95.9553"/>
<polygon fill="midnightblue" stroke="midnightblue" points="1692.25,-94.4636 1684.95,-86.782 1685.87,-97.3374 1692.25,-94.4636"/>
</g>
<!-- Node33&#45;&gt;Node27 -->
<g id="edge59" class="edge"><title>Node33&#45;&gt;Node27</title>
<path fill="none" stroke="midnightblue" d="M1703.17,-184.925C1669.83,-175.225 1614.31,-158.727 1567,-143 1514.84,-125.66 1454.92,-103.584 1419.05,-90.1364"/>
<polygon fill="midnightblue" stroke="midnightblue" points="1420.19,-86.8262 1409.6,-86.5833 1417.73,-93.3785 1420.19,-86.8262"/>
</g>
<!-- Node33&#45;&gt;Node29 -->
<g id="edge60" class="edge"><title>Node33&#45;&gt;Node29</title>
<path fill="none" stroke="midnightblue" d="M1673.63,-184.981C1658.14,-182.889 1641.46,-180.749 1626,-179 1482.32,-162.741 1314.65,-148.487 1215.95,-140.579"/>
<polygon fill="midnightblue" stroke="midnightblue" points="1215.99,-137.07 1205.74,-139.763 1215.43,-144.048 1215.99,-137.07"/>
</g>
<!-- Node33&#45;&gt;Node31 -->
<g id="edge63" class="edge"><title>Node33&#45;&gt;Node31</title>
<path fill="none" stroke="midnightblue" d="M1778.85,-184.975C1836.47,-174.261 1935.31,-155.882 1997.25,-144.366"/>
<polygon fill="midnightblue" stroke="midnightblue" points="1998.05,-147.778 2007.24,-142.509 1996.77,-140.896 1998.05,-147.778"/>
</g>
<!-- Node34 -->
<g id="node34" class="node"><title>Node34</title>
<polygon fill="none" stroke="#bfbfbf" points="1611.5,-123.5 1611.5,-142.5 1670.5,-142.5 1670.5,-123.5 1611.5,-123.5"/>
<text text-anchor="middle" x="1641" y="-130.5" font-family="Helvetica,sans-Serif" font-size="10.00">functional</text>
</g>
<!-- Node33&#45;&gt;Node34 -->
<g id="edge53" class="edge"><title>Node33&#45;&gt;Node34</title>
<path fill="none" stroke="midnightblue" d="M1719.82,-184.975C1704.93,-175.343 1680.46,-159.517 1662.73,-148.052"/>
<polygon fill="midnightblue" stroke="midnightblue" points="1664.45,-145.001 1654.16,-142.509 1660.65,-150.879 1664.45,-145.001"/>
</g>
<!-- Node35 -->
<g id="node35" class="node"><title>Node35</title>
<g id="a_node35"><a xlink:href="CheckConfig_8h.html" target="_top" xlink:title="QualityControl/CheckConfig.h">
<polygon fill="none" stroke="black" points="1331.5,-123.5 1331.5,-142.5 1478.5,-142.5 1478.5,-123.5 1331.5,-123.5"/>
<text text-anchor="middle" x="1405" y="-130.5" font-family="Helvetica,sans-Serif" font-size="10.00">QualityControl/CheckConfig.h</text>
</a>
</g>
</g>
<!-- Node33&#45;&gt;Node35 -->
<g id="edge64" class="edge"><title>Node33&#45;&gt;Node35</title>
<path fill="none" stroke="midnightblue" d="M1689.98,-184.934C1679.83,-182.95 1669.04,-180.873 1659,-179 1592.55,-166.605 1516.16,-153.183 1464.65,-144.254"/>
<polygon fill="midnightblue" stroke="midnightblue" points="1465.14,-140.786 1454.69,-142.529 1463.95,-147.684 1465.14,-140.786"/>
</g>
<!-- Node35&#45;&gt;Node7 -->
<g id="edge65" class="edge"><title>Node35&#45;&gt;Node7</title>
<path fill="none" stroke="midnightblue" d="M1383.43,-123.319C1332.78,-102.936 1206.16,-51.978 1148.03,-28.5849"/>
<polygon fill="midnightblue" stroke="midnightblue" points="1149.24,-25.2995 1138.66,-24.813 1146.63,-31.7934 1149.24,-25.2995"/>
</g>
<!-- Node35&#45;&gt;Node22 -->
<g id="edge66" class="edge"><title>Node35&#45;&gt;Node22</title>
<path fill="none" stroke="midnightblue" d="M1421.39,-123.324C1437.67,-114.703 1462.87,-101.364 1481.72,-91.3855"/>
<polygon fill="midnightblue" stroke="midnightblue" points="1483.45,-94.4267 1490.65,-86.6545 1480.18,-88.2402 1483.45,-94.4267"/>
</g>
<!-- Node36&#45;&gt;Node7 -->
<g id="edge69" class="edge"><title>Node36&#45;&gt;Node7</title>
<path fill="none" stroke="midnightblue" d="M539.628,-69.6888C678.652,-56.9037 988.701,-28.3907 1087.28,-19.3249"/>
<polygon fill="midnightblue" stroke="midnightblue" points="1087.82,-22.7903 1097.46,-18.3891 1087.18,-15.8197 1087.82,-22.7903"/>
</g>
<!-- Node36&#45;&gt;Node26 -->
<g id="edge71" class="edge"><title>Node36&#45;&gt;Node26</title>
<path fill="none" stroke="midnightblue" d="M489.912,-67.4751C512.163,-57.4455 549.312,-40.7002 574.926,-29.1546"/>
<polygon fill="midnightblue" stroke="midnightblue" points="576.444,-32.3094 584.123,-25.0091 573.568,-25.9277 576.444,-32.3094"/>
</g>
<!-- Node37 -->
<g id="node37" class="node"><title>Node37</title>
<polygon fill="none" stroke="#bfbfbf" points="391.5,-0.5 391.5,-30.5 526.5,-30.5 526.5,-0.5 391.5,-0.5"/>
<text text-anchor="start" x="399.5" y="-18.5" font-family="Helvetica,sans-Serif" font-size="10.00">Configuration/Configuration</text>
<text text-anchor="middle" x="459" y="-7.5" font-family="Helvetica,sans-Serif" font-size="10.00">Factory.h</text>
</g>
<!-- Node36&#45;&gt;Node37 -->
<g id="edge70" class="edge"><title>Node36&#45;&gt;Node37</title>
<path fill="none" stroke="midnightblue" d="M469.281,-67.4751C467.853,-60.3957 465.75,-49.9705 463.818,-40.3896"/>
<polygon fill="midnightblue" stroke="midnightblue" points="467.236,-39.6336 461.828,-30.523 460.374,-41.0176 467.236,-39.6336"/>
</g>
</g>
</svg>
        <g id="navigator" transform="translate(0 0)" fill="#404254">
                <rect fill="#f2f5e9" fill-opacity="0.5" stroke="#606060" stroke-width=".5" x="0" y="0" width="60" height="60"/>
                <use id="zoomplus" xlink:href="#zoomPlus" x="17" y="9" onmousedown="handleZoom(evt,'in')"/>
                <use id="zoomminus" xlink:href="#zoomMin" x="42" y="9" onmousedown="handleZoom(evt,'out')"/>
                <use id="reset" xlink:href="#resetDef" x="30" y="36" onmousedown="handleReset()"/>
                <g id="arrowUp" xlink:href="#dirArrow" transform="translate(30 24)" onmousedown="handlePan(0,-1)">
                  <use xlink:href="#rim" fill="#404040">
                        <set attributeName="fill" to="#808080" begin="arrowUp.mouseover" end="arrowUp.mouseout"/>
                  </use>
                  <path fill="none" stroke="white" stroke-width="1.5" d="M0,-3.0v7 M-2.5,-0.5L0,-3.0L2.5,-0.5"/>
                </g>
                <g id="arrowRight" xlink:href="#dirArrow" transform="rotate(90) translate(36 -43)" onmousedown="handlePan(1,0)">
                  <use xlink:href="#rim" fill="#404040">
                        <set attributeName="fill" to="#808080" begin="arrowRight.mouseover" end="arrowRight.mouseout"/>
                  </use>
                  <path fill="none" stroke="white" stroke-width="1.5" d="M0,-3.0v7 M-2.5,-0.5L0,-3.0L2.5,-0.5"/>
                </g>
                <g id="arrowDown" xlink:href="#dirArrow" transform="rotate(180) translate(-30 -48)" onmousedown="handlePan(0,1)">
                  <use xlink:href="#rim" fill="#404040">
                        <set attributeName="fill" to="#808080" begin="arrowDown.mouseover" end="arrowDown.mouseout"/>
                  </use>
                  <path fill="none" stroke="white" stroke-width="1.5" d="M0,-3.0v7 M-2.5,-0.5L0,-3.0L2.5,-0.5"/>
                </g>
                <g id="arrowLeft" xlink:href="#dirArrow" transform="rotate(270) translate(-36 17)" onmousedown="handlePan(-1,0)">
                  <use xlink:href="#rim" fill="#404040">
                        <set attributeName="fill" to="#808080" begin="arrowLeft.mouseover" end="arrowLeft.mouseout"/>
                  </use>
                  <path fill="none" stroke="white" stroke-width="1.5" d="M0,-3.0v7 M-2.5,-0.5L0,-3.0L2.5,-0.5"/>
                </g>
        </g>
        <svg viewBox="0 0 15 15" width="100%" height="30px" preserveAspectRatio="xMaxYMin meet">
         <g id="arrow_out" transform="scale(0.3 0.3)">
          <a xlink:href="testCheckWorkflow_8cxx__incl_org.svg" target="_base">
           <rect id="button" ry="5" rx="5" y="6" x="6" height="38" width="38"
                fill="#f2f5e9" fill-opacity="0.5" stroke="#606060" stroke-width="1.0"/>
           <path id="arrow"
             d="M 11.500037,31.436501 C 11.940474,20.09759 22.043105,11.32322 32.158766,21.979434 L 37.068811,17.246167 C 37.068811,17.246167 37.088388,32 37.088388,32 L 22.160133,31.978069 C 22.160133,31.978069 26.997745,27.140456 26.997745,27.140456 C 18.528582,18.264221 13.291696,25.230495 11.500037,31.436501 z"
             style="fill:#404040;"/>
          </a>
         </g>
        </svg>
</svg>
