<?xml version="1.0" encoding="UTF-8" standalone="no"?>
<!DOCTYPE svg PUBLIC "-//W3C//DTD SVG 1.1//EN"
 "http://www.w3.org/Graphics/SVG/1.1/DTD/svg11.dtd">
<!-- Generated by graphviz version 2.38.0 (20140413.2041)
 -->
<!-- Title: Framework/test/testWorkflow.cxx Pages: 1 -->
<svg width="1979pt" height="330pt"
 viewBox="0.00 0.00 1979.18 330.00" xmlns="http://www.w3.org/2000/svg" xmlns:xlink="http://www.w3.org/1999/xlink">
<g id="graph0" class="graph" transform="scale(1 1) rotate(0) translate(4 326)">
<title>Framework/test/testWorkflow.cxx</title>
<!-- Node1 -->
<g id="node1" class="node"><title>Node1</title>
<polygon fill="#bfbfbf" stroke="black" points="1212.5,-302.5 1212.5,-321.5 1376.5,-321.5 1376.5,-302.5 1212.5,-302.5"/>
<text text-anchor="middle" x="1294.5" y="-309.5" font-family="Helvetica,sans-Serif" font-size="10.00">Framework/test/testWorkflow.cxx</text>
</g>
<!-- Node2 -->
<g id="node2" class="node"><title>Node2</title>
<g id="a_node2"><a xlink:href="InfrastructureGenerator_8h.html" target="_top" xlink:title="QualityControl/Infrastructure\lGenerator.h">
<polygon fill="none" stroke="black" points="137.5,-179.5 137.5,-209.5 277.5,-209.5 277.5,-179.5 137.5,-179.5"/>
<text text-anchor="start" x="145.5" y="-197.5" font-family="Helvetica,sans-Serif" font-size="10.00">QualityControl/Infrastructure</text>
<text text-anchor="middle" x="207.5" y="-186.5" font-family="Helvetica,sans-Serif" font-size="10.00">Generator.h</text>
</a>
</g>
</g>
<!-- Node1&#45;&gt;Node2 -->
<g id="edge1" class="edge"><title>Node1&#45;&gt;Node2</title>
<path fill="none" stroke="midnightblue" d="M1212.36,-304.705C1040.83,-291.125 632.241,-256.506 291.5,-210 290.222,-209.826 288.933,-209.646 287.636,-209.462"/>
<polygon fill="midnightblue" stroke="midnightblue" points="287.973,-205.974 277.569,-207.976 286.951,-212.899 287.973,-205.974"/>
</g>
<!-- Node7 -->
<g id="node7" class="node"><title>Node7</title>
<polygon fill="none" stroke="#bfbfbf" points="1152.5,-246.5 1152.5,-265.5 1290.5,-265.5 1290.5,-246.5 1152.5,-246.5"/>
<text text-anchor="middle" x="1221.5" y="-253.5" font-family="Helvetica,sans-Serif" font-size="10.00">Framework/DataSampling.h</text>
</g>
<!-- Node1&#45;&gt;Node7 -->
<g id="edge6" class="edge"><title>Node1&#45;&gt;Node7</title>
<path fill="none" stroke="midnightblue" d="M1282.77,-302.324C1271.66,-294.107 1254.76,-281.602 1241.52,-271.807"/>
<polygon fill="midnightblue" stroke="midnightblue" points="1243.56,-268.967 1233.44,-265.834 1239.4,-274.595 1243.56,-268.967"/>
</g>
<!-- Node8 -->
<g id="node8" class="node"><title>Node8</title>
<polygon fill="none" stroke="#bfbfbf" points="1309,-246.5 1309,-265.5 1428,-265.5 1428,-246.5 1309,-246.5"/>
<text text-anchor="middle" x="1368.5" y="-253.5" font-family="Helvetica,sans-Serif" font-size="10.00">getTestDataDirectory.h</text>
</g>
<!-- Node1&#45;&gt;Node8 -->
<g id="edge7" class="edge"><title>Node1&#45;&gt;Node8</title>
<path fill="none" stroke="midnightblue" d="M1306.39,-302.324C1317.65,-294.107 1334.79,-281.602 1348.21,-271.807"/>
<polygon fill="midnightblue" stroke="midnightblue" points="1350.38,-274.556 1356.39,-265.834 1346.25,-268.901 1350.38,-274.556"/>
</g>
<!-- Node9 -->
<g id="node9" class="node"><title>Node9</title>
<g id="a_node9"><a xlink:href="CheckRunner_8h.html" target="_top" xlink:title="QualityControl/CheckRunner.h">
<polygon fill="none" stroke="black" points="984.5,-246.5 984.5,-265.5 1134.5,-265.5 1134.5,-246.5 984.5,-246.5"/>
<text text-anchor="middle" x="1059.5" y="-253.5" font-family="Helvetica,sans-Serif" font-size="10.00">QualityControl/CheckRunner.h</text>
</a>
</g>
</g>
<!-- Node1&#45;&gt;Node9 -->
<g id="edge8" class="edge"><title>Node1&#45;&gt;Node9</title>
<path fill="none" stroke="midnightblue" d="M1257.26,-302.444C1216.44,-293.063 1150.86,-277.993 1106.52,-267.804"/>
<polygon fill="midnightblue" stroke="midnightblue" points="1107.09,-264.345 1096.56,-265.516 1105.52,-271.167 1107.09,-264.345"/>
</g>
<!-- Node34 -->
<g id="node34" class="node"><title>Node34</title>
<g id="a_node34"><a xlink:href="runnerUtils_8h.html" target="_top" xlink:title="QualityControl/runnerUtils.h">
<polygon fill="none" stroke="black" points="11,-67.5 11,-86.5 148,-86.5 148,-67.5 11,-67.5"/>
<text text-anchor="middle" x="79.5" y="-74.5" font-family="Helvetica,sans-Serif" font-size="10.00">QualityControl/runnerUtils.h</text>
</a>
</g>
</g>
<!-- Node1&#45;&gt;Node34 -->
<g id="edge65" class="edge"><title>Node1&#45;&gt;Node34</title>
<path fill="none" stroke="midnightblue" d="M1212.46,-311.364C979.817,-311.235 320.33,-302.5 128.5,-210 90.2834,-191.572 76.8814,-182.138 60.5,-143 53.925,-127.291 60.8726,-108.55 68.1455,-95.2371"/>
<polygon fill="midnightblue" stroke="midnightblue" points="71.1696,-96.9996 73.3102,-86.6233 65.1661,-93.4 71.1696,-96.9996"/>
</g>
<!-- Node36 -->
<g id="node36" class="node"><title>Node36</title>
<polygon fill="none" stroke="#bfbfbf" points="1446.5,-246.5 1446.5,-265.5 1606.5,-265.5 1606.5,-246.5 1446.5,-246.5"/>
<text text-anchor="middle" x="1526.5" y="-253.5" font-family="Helvetica,sans-Serif" font-size="10.00">Framework/runDataProcessing.h</text>
</g>
<!-- Node1&#45;&gt;Node36 -->
<g id="edge69" class="edge"><title>Node1&#45;&gt;Node36</title>
<path fill="none" stroke="midnightblue" d="M1331.26,-302.444C1371.56,-293.063 1436.31,-277.993 1480.08,-267.804"/>
<polygon fill="midnightblue" stroke="midnightblue" points="1480.96,-271.192 1489.91,-265.516 1479.38,-264.375 1480.96,-271.192"/>
</g>
<!-- Node37 -->
<g id="node37" class="node"><title>Node37</title>
<polygon fill="none" stroke="#bfbfbf" points="1625,-246.5 1625,-265.5 1766,-265.5 1766,-246.5 1625,-246.5"/>
<text text-anchor="middle" x="1695.5" y="-253.5" font-family="Helvetica,sans-Serif" font-size="10.00">Framework/ControlService.h</text>
</g>
<!-- Node1&#45;&gt;Node37 -->
<g id="edge70" class="edge"><title>Node1&#45;&gt;Node37</title>
<path fill="none" stroke="midnightblue" d="M1358.04,-302.444C1429.9,-292.767 1546.72,-277.035 1622.33,-266.853"/>
<polygon fill="midnightblue" stroke="midnightblue" points="1622.81,-270.32 1632.26,-265.516 1621.88,-263.382 1622.81,-270.32"/>
</g>
<!-- Node38 -->
<g id="node38" class="node"><title>Node38</title>
<polygon fill="none" stroke="#bfbfbf" points="1784.5,-246.5 1784.5,-265.5 1834.5,-265.5 1834.5,-246.5 1784.5,-246.5"/>
<text text-anchor="middle" x="1809.5" y="-253.5" font-family="Helvetica,sans-Serif" font-size="10.00">TH1F.h</text>
</g>
<!-- Node1&#45;&gt;Node38 -->
<g id="edge71" class="edge"><title>Node1&#45;&gt;Node38</title>
<path fill="none" stroke="midnightblue" d="M1376.56,-307.264C1472.55,-301.981 1635.98,-290.147 1774.5,-266 1774.6,-265.982 1774.7,-265.965 1774.8,-265.947"/>
<polygon fill="midnightblue" stroke="midnightblue" points="1775.28,-269.421 1784.37,-263.97 1773.87,-262.566 1775.28,-269.421"/>
</g>
<!-- Node3 -->
<g id="node3" class="node"><title>Node3</title>
<polygon fill="none" stroke="#bfbfbf" points="485.5,-123.5 485.5,-142.5 529.5,-142.5 529.5,-123.5 485.5,-123.5"/>
<text text-anchor="middle" x="507.5" y="-130.5" font-family="Helvetica,sans-Serif" font-size="10.00">vector</text>
</g>
<!-- Node2&#45;&gt;Node3 -->
<g id="edge2" class="edge"><title>Node2&#45;&gt;Node3</title>
<path fill="none" stroke="midnightblue" d="M277.562,-182.264C329.738,-173.454 402.87,-160.181 475.447,-143.076"/>
<polygon fill="midnightblue" stroke="midnightblue" points="476.301,-146.471 485.218,-140.749 474.679,-139.661 476.301,-146.471"/>
</g>
<!-- Node4 -->
<g id="node4" class="node"><title>Node4</title>
<polygon fill="none" stroke="#bfbfbf" points="672,-6 672,-25 713,-25 713,-6 672,-6"/>
<text text-anchor="middle" x="692.5" y="-13" font-family="Helvetica,sans-Serif" font-size="10.00">string</text>
</g>
<!-- Node2&#45;&gt;Node4 -->
<g id="edge3" class="edge"><title>Node2&#45;&gt;Node4</title>
<path fill="none" stroke="midnightblue" d="M211.644,-179.142C220.618,-149.087 242.566,-81.1555 261.5,-67 324.853,-19.6347 574.274,-15.9956 661.879,-16.2175"/>
<polygon fill="midnightblue" stroke="midnightblue" points="661.956,-19.7177 671.971,-16.2625 661.987,-12.7178 661.956,-19.7177"/>
</g>
<!-- Node5 -->
<g id="node5" class="node"><title>Node5</title>
<polygon fill="none" stroke="#bfbfbf" points="69.5,-123.5 69.5,-142.5 209.5,-142.5 209.5,-123.5 69.5,-123.5"/>
<text text-anchor="middle" x="139.5" y="-130.5" font-family="Helvetica,sans-Serif" font-size="10.00">Framework/WorkflowSpec.h</text>
</g>
<!-- Node2&#45;&gt;Node5 -->
<g id="edge4" class="edge"><title>Node2&#45;&gt;Node5</title>
<path fill="none" stroke="midnightblue" d="M191.385,-179.399C181.096,-170.397 167.753,-158.721 157.174,-149.465"/>
<polygon fill="midnightblue" stroke="midnightblue" points="159.225,-146.609 149.395,-142.658 154.616,-151.877 159.225,-146.609"/>
</g>
<!-- Node6 -->
<g id="node6" class="node"><title>Node6</title>
<polygon fill="none" stroke="#bfbfbf" points="303.5,-123.5 303.5,-142.5 467.5,-142.5 467.5,-123.5 303.5,-123.5"/>
<text text-anchor="middle" x="385.5" y="-130.5" font-family="Helvetica,sans-Serif" font-size="10.00">Framework/DataProcessorSpec.h</text>
</g>
<!-- Node2&#45;&gt;Node6 -->
<g id="edge5" class="edge"><title>Node2&#45;&gt;Node6</title>
<path fill="none" stroke="midnightblue" d="M249.684,-179.399C280.307,-169.163 321.27,-155.47 350.175,-145.808"/>
<polygon fill="midnightblue" stroke="midnightblue" points="351.485,-149.061 359.859,-142.571 349.265,-142.422 351.485,-149.061"/>
</g>
<!-- Node9&#45;&gt;Node3 -->
<g id="edge13" class="edge"><title>Node9&#45;&gt;Node3</title>
<path fill="none" stroke="midnightblue" d="M984.254,-250.732C880.935,-244.226 700.854,-230.393 638.5,-210 595.543,-195.951 551.213,-166.504 526.72,-148.671"/>
<polygon fill="midnightblue" stroke="midnightblue" points="528.751,-145.82 518.633,-142.677 524.582,-151.444 528.751,-145.82"/>
</g>
<!-- Node9&#45;&gt;Node4 -->
<g id="edge11" class="edge"><title>Node9&#45;&gt;Node4</title>
<path fill="none" stroke="midnightblue" d="M984.412,-255.597C872.949,-255.044 657.701,-248.439 479.5,-210 394.018,-191.561 344.716,-214.593 294.5,-143 249.761,-79.2141 560.654,-33.3703 661.586,-20.2995"/>
<polygon fill="midnightblue" stroke="midnightblue" points="662.279,-23.7395 671.755,-19.0019 661.393,-16.7958 662.279,-23.7395"/>
</g>
<!-- Node9&#45;&gt;Node6 -->
<g id="edge20" class="edge"><title>Node9&#45;&gt;Node6</title>
<path fill="none" stroke="midnightblue" d="M984.378,-254.914C887.569,-253.255 714.682,-245.028 571.5,-210 511.724,-195.376 446.005,-164.816 410.921,-147.229"/>
<polygon fill="midnightblue" stroke="midnightblue" points="412.369,-144.039 401.868,-142.636 409.202,-150.282 412.369,-144.039"/>
</g>
<!-- Node10 -->
<g id="node10" class="node"><title>Node10</title>
<polygon fill="none" stroke="#bfbfbf" points="1087.5,-185 1087.5,-204 1133.5,-204 1133.5,-185 1087.5,-185"/>
<text text-anchor="middle" x="1110.5" y="-192" font-family="Helvetica,sans-Serif" font-size="10.00">chrono</text>
</g>
<!-- Node9&#45;&gt;Node10 -->
<g id="edge9" class="edge"><title>Node9&#45;&gt;Node10</title>
<path fill="none" stroke="midnightblue" d="M1066.81,-246.475C1074.53,-237.462 1086.91,-223.025 1096.52,-211.812"/>
<polygon fill="midnightblue" stroke="midnightblue" points="1099.36,-213.879 1103.21,-204.009 1094.04,-209.324 1099.36,-213.879"/>
</g>
<!-- Node11 -->
<g id="node11" class="node"><title>Node11</title>
<polygon fill="none" stroke="#bfbfbf" points="789.5,-123.5 789.5,-142.5 841.5,-142.5 841.5,-123.5 789.5,-123.5"/>
<text text-anchor="middle" x="815.5" y="-130.5" font-family="Helvetica,sans-Serif" font-size="10.00">memory</text>
</g>
<!-- Node9&#45;&gt;Node11 -->
<g id="edge10" class="edge"><title>Node9&#45;&gt;Node11</title>
<path fill="none" stroke="midnightblue" d="M984.131,-251.013C945.472,-245.823 899.325,-234.468 864.5,-210 844.076,-195.65 830.12,-169.808 822.477,-152.285"/>
<polygon fill="midnightblue" stroke="midnightblue" points="825.553,-150.56 818.532,-142.626 819.073,-153.207 825.553,-150.56"/>
</g>
<!-- Node12 -->
<g id="node12" class="node"><title>Node12</title>
<polygon fill="none" stroke="#bfbfbf" points="1343,-6 1343,-25 1378,-25 1378,-6 1343,-6"/>
<text text-anchor="middle" x="1360.5" y="-13" font-family="Helvetica,sans-Serif" font-size="10.00">map</text>
</g>
<!-- Node9&#45;&gt;Node12 -->
<g id="edge12" class="edge"><title>Node9&#45;&gt;Node12</title>
<path fill="none" stroke="midnightblue" d="M1134.58,-246.723C1137.59,-246.465 1140.58,-246.222 1143.5,-246 1187.75,-242.635 1910.83,-242.08 1941.5,-210 2107.98,-35.8446 1524.45,-18.3914 1388.29,-16.6793"/>
<polygon fill="midnightblue" stroke="midnightblue" points="1388.27,-13.179 1378.24,-16.5721 1388.2,-20.1786 1388.27,-13.179"/>
</g>
<!-- Node13 -->
<g id="node13" class="node"><title>Node13</title>
<polygon fill="none" stroke="#bfbfbf" points="1151.5,-185 1151.5,-204 1229.5,-204 1229.5,-185 1151.5,-185"/>
<text text-anchor="middle" x="1190.5" y="-192" font-family="Helvetica,sans-Serif" font-size="10.00">unordered_set</text>
</g>
<!-- Node9&#45;&gt;Node13 -->
<g id="edge14" class="edge"><title>Node9&#45;&gt;Node13</title>
<path fill="none" stroke="midnightblue" d="M1078.27,-246.475C1100.35,-236.445 1137.22,-219.7 1162.64,-208.155"/>
<polygon fill="midnightblue" stroke="midnightblue" points="1164.11,-211.331 1171.77,-204.009 1161.21,-204.958 1164.11,-211.331"/>
</g>
<!-- Node14 -->
<g id="node14" class="node"><title>Node14</title>
<polygon fill="none" stroke="#bfbfbf" points="1247.5,-185 1247.5,-204 1339.5,-204 1339.5,-185 1247.5,-185"/>
<text text-anchor="middle" x="1293.5" y="-192" font-family="Helvetica,sans-Serif" font-size="10.00">Common/Timer.h</text>
</g>
<!-- Node9&#45;&gt;Node14 -->
<g id="edge15" class="edge"><title>Node9&#45;&gt;Node14</title>
<path fill="none" stroke="midnightblue" d="M1093.85,-246.49C1129.9,-237.527 1188.23,-222.945 1238.5,-210 1242.64,-208.933 1246.96,-207.813 1251.27,-206.687"/>
<polygon fill="midnightblue" stroke="midnightblue" points="1252.45,-209.995 1261.23,-204.073 1250.67,-203.224 1252.45,-209.995"/>
</g>
<!-- Node15 -->
<g id="node15" class="node"><title>Node15</title>
<polygon fill="none" stroke="#bfbfbf" points="1357.5,-185 1357.5,-204 1455.5,-204 1455.5,-185 1357.5,-185"/>
<text text-anchor="middle" x="1406.5" y="-192" font-family="Helvetica,sans-Serif" font-size="10.00">Framework/Task.h</text>
</g>
<!-- Node9&#45;&gt;Node15 -->
<g id="edge16" class="edge"><title>Node9&#45;&gt;Node15</title>
<path fill="none" stroke="midnightblue" d="M1125.22,-246.494C1184,-238.477 1272.35,-225.414 1348.5,-210 1353.65,-208.958 1359.02,-207.762 1364.34,-206.514"/>
<polygon fill="midnightblue" stroke="midnightblue" points="1365.51,-209.831 1374.41,-204.074 1363.86,-203.027 1365.51,-209.831"/>
</g>
<!-- Node16 -->
<g id="node16" class="node"><title>Node16</title>
<polygon fill="none" stroke="#bfbfbf" points="1474,-185 1474,-204 1591,-204 1591,-185 1474,-185"/>
<text text-anchor="middle" x="1532.5" y="-192" font-family="Helvetica,sans-Serif" font-size="10.00">Headers/DataHeader.h</text>
</g>
<!-- Node9&#45;&gt;Node16 -->
<g id="edge17" class="edge"><title>Node9&#45;&gt;Node16</title>
<path fill="none" stroke="midnightblue" d="M1134.7,-246.84C1247.34,-234.589 1448.48,-212.591 1464.5,-210 1471.31,-208.899 1478.46,-207.568 1485.47,-206.164"/>
<polygon fill="midnightblue" stroke="midnightblue" points="1486.49,-209.527 1495.57,-204.073 1485.07,-202.672 1486.49,-209.527"/>
</g>
<!-- Node17 -->
<g id="node17" class="node"><title>Node17</title>
<polygon fill="none" stroke="#bfbfbf" points="1609,-185 1609,-204 1760,-204 1760,-185 1609,-185"/>
<text text-anchor="middle" x="1684.5" y="-192" font-family="Helvetica,sans-Serif" font-size="10.00">Monitoring/MonitoringFactory.h</text>
</g>
<!-- Node9&#45;&gt;Node17 -->
<g id="edge18" class="edge"><title>Node9&#45;&gt;Node17</title>
<path fill="none" stroke="midnightblue" d="M1134.6,-246.849C1137.6,-246.556 1140.58,-246.272 1143.5,-246 1345.92,-227.169 1397.76,-235.119 1599.5,-210 1609.09,-208.806 1619.25,-207.291 1629.09,-205.694"/>
<polygon fill="midnightblue" stroke="midnightblue" points="1629.89,-209.109 1639.18,-204.01 1628.74,-202.204 1629.89,-209.109"/>
</g>
<!-- Node18 -->
<g id="node18" class="node"><title>Node18</title>
<polygon fill="none" stroke="#bfbfbf" points="1778,-179.5 1778,-209.5 1913,-209.5 1913,-179.5 1778,-179.5"/>
<text text-anchor="start" x="1786" y="-197.5" font-family="Helvetica,sans-Serif" font-size="10.00">Configuration/Configuration</text>
<text text-anchor="middle" x="1845.5" y="-186.5" font-family="Helvetica,sans-Serif" font-size="10.00">Interface.h</text>
</g>
<!-- Node9&#45;&gt;Node18 -->
<g id="edge19" class="edge"><title>Node9&#45;&gt;Node18</title>
<path fill="none" stroke="midnightblue" d="M1134.59,-246.77C1137.6,-246.499 1140.58,-246.241 1143.5,-246 1417.55,-223.44 1490.62,-243.337 1768.02,-209.936"/>
<polygon fill="midnightblue" stroke="midnightblue" points="1768.47,-213.407 1777.97,-208.725 1767.62,-206.458 1768.47,-213.407"/>
</g>
<!-- Node19 -->
<g id="node19" class="node"><title>Node19</title>
<g id="a_node19"><a xlink:href="CheckInterface_8h.html" target="_top" xlink:title="QualityControl/CheckInterface.h">
<polygon fill="none" stroke="black" points="1217,-123.5 1217,-142.5 1374,-142.5 1374,-123.5 1217,-123.5"/>
<text text-anchor="middle" x="1295.5" y="-130.5" font-family="Helvetica,sans-Serif" font-size="10.00">QualityControl/CheckInterface.h</text>
</a>
</g>
</g>
<!-- Node9&#45;&gt;Node19 -->
<g id="edge21" class="edge"><title>Node9&#45;&gt;Node19</title>
<path fill="none" stroke="midnightblue" d="M1053.93,-246.35C1044.78,-230.948 1029.15,-198.557 1045.5,-179 1056.28,-166.101 1142.94,-152.601 1211.24,-143.794"/>
<polygon fill="midnightblue" stroke="midnightblue" points="1211.69,-147.264 1221.17,-142.529 1210.81,-140.32 1211.69,-147.264"/>
</g>
<!-- Node22 -->
<g id="node22" class="node"><title>Node22</title>
<g id="a_node22"><a xlink:href="MonitorObject_8h.html" target="_top" xlink:title="QualityControl/MonitorObject.h">
<polygon fill="none" stroke="black" points="1143,-67.5 1143,-86.5 1294,-86.5 1294,-67.5 1143,-67.5"/>
<text text-anchor="middle" x="1218.5" y="-74.5" font-family="Helvetica,sans-Serif" font-size="10.00">QualityControl/MonitorObject.h</text>
</a>
</g>
</g>
<!-- Node9&#45;&gt;Node22 -->
<g id="edge47" class="edge"><title>Node9&#45;&gt;Node22</title>
<path fill="none" stroke="midnightblue" d="M1058.78,-246.348C1057.98,-230.344 1058.84,-196.187 1078.5,-179 1132.87,-131.464 1353.34,-196.823 1401.5,-143 1435.22,-105.317 1366.62,-89.4776 1304.02,-82.8215"/>
<polygon fill="midnightblue" stroke="midnightblue" points="1304.33,-79.336 1294.04,-81.8302 1303.64,-86.3017 1304.33,-79.336"/>
</g>
<!-- Node26 -->
<g id="node26" class="node"><title>Node26</title>
<g id="a_node26"><a xlink:href="DatabaseInterface_8h.html" target="_top" xlink:title="QualityControl/DatabaseInterface.h">
<polygon fill="none" stroke="black" points="647.5,-185 647.5,-204 817.5,-204 817.5,-185 647.5,-185"/>
<text text-anchor="middle" x="732.5" y="-192" font-family="Helvetica,sans-Serif" font-size="10.00">QualityControl/DatabaseInterface.h</text>
</a>
</g>
</g>
<!-- Node9&#45;&gt;Node26 -->
<g id="edge35" class="edge"><title>Node9&#45;&gt;Node26</title>
<path fill="none" stroke="midnightblue" d="M1012.65,-246.475C953.764,-235.761 852.76,-217.382 789.47,-205.866"/>
<polygon fill="midnightblue" stroke="midnightblue" points="789.729,-202.356 779.264,-204.009 788.476,-209.243 789.729,-202.356"/>
</g>
<!-- Node29 -->
<g id="node29" class="node"><title>Node29</title>
<g id="a_node29"><a xlink:href="QcInfoLogger_8h.html" target="_top" xlink:title="QualityControl/QcInfoLogger.h">
<polygon fill="none" stroke="black" points="1655,-123.5 1655,-142.5 1804,-142.5 1804,-123.5 1655,-123.5"/>
<text text-anchor="middle" x="1729.5" y="-130.5" font-family="Helvetica,sans-Serif" font-size="10.00">QualityControl/QcInfoLogger.h</text>
</a>
</g>
</g>
<!-- Node9&#45;&gt;Node29 -->
<g id="edge48" class="edge"><title>Node9&#45;&gt;Node29</title>
<path fill="none" stroke="midnightblue" d="M1134.59,-246.728C1137.59,-246.468 1140.58,-246.224 1143.5,-246 1186.64,-242.694 1891.62,-241.295 1921.5,-210 1959.71,-169.985 1882.07,-150.595 1814.38,-141.506"/>
<polygon fill="midnightblue" stroke="midnightblue" points="1814.41,-137.982 1804.05,-140.186 1813.52,-144.925 1814.41,-137.982"/>
</g>
<!-- Node31 -->
<g id="node31" class="node"><title>Node31</title>
<g id="a_node31"><a xlink:href="Check_8h_source.html" target="_top" xlink:title="QualityControl/Check.h">
<polygon fill="none" stroke="black" points="874,-185 874,-204 993,-204 993,-185 874,-185"/>
<text text-anchor="middle" x="933.5" y="-192" font-family="Helvetica,sans-Serif" font-size="10.00">QualityControl/Check.h</text>
</a>
</g>
</g>
<!-- Node9&#45;&gt;Node31 -->
<g id="edge50" class="edge"><title>Node9&#45;&gt;Node31</title>
<path fill="none" stroke="midnightblue" d="M1041.45,-246.475C1020.3,-236.49 985.06,-219.848 960.622,-208.307"/>
<polygon fill="midnightblue" stroke="midnightblue" points="962.056,-205.114 951.519,-204.009 959.067,-211.444 962.056,-205.114"/>
</g>
<!-- Node19&#45;&gt;Node4 -->
<g id="edge22" class="edge"><title>Node19&#45;&gt;Node4</title>
<path fill="none" stroke="midnightblue" d="M1256.15,-123.438C1222.89,-115.643 1174.28,-102.931 1133.5,-87 1115.36,-79.9123 1113.12,-72.732 1094.5,-67 970.372,-28.7823 933.347,-47.3378 804.5,-31 776.962,-27.5081 745.627,-23.4437 723.118,-20.508"/>
<polygon fill="midnightblue" stroke="midnightblue" points="723.507,-17.0291 713.138,-19.2049 722.601,-23.9702 723.507,-17.0291"/>
</g>
<!-- Node19&#45;&gt;Node12 -->
<g id="edge23" class="edge"><title>Node19&#45;&gt;Node12</title>
<path fill="none" stroke="midnightblue" d="M1305.54,-123.264C1314.72,-114.801 1328.11,-101.196 1336.5,-87 1346.14,-70.677 1352.61,-49.9248 1356.38,-35.1718"/>
<polygon fill="midnightblue" stroke="midnightblue" points="1359.84,-35.7706 1358.74,-25.2322 1353.03,-34.1514 1359.84,-35.7706"/>
</g>
<!-- Node20 -->
<g id="node20" class="node"><title>Node20</title>
<polygon fill="none" stroke="#bfbfbf" points="864,-67.5 864,-86.5 947,-86.5 947,-67.5 864,-67.5"/>
<text text-anchor="middle" x="905.5" y="-74.5" font-family="Helvetica,sans-Serif" font-size="10.00">unordered_map</text>
</g>
<!-- Node19&#45;&gt;Node20 -->
<g id="edge24" class="edge"><title>Node19&#45;&gt;Node20</title>
<path fill="none" stroke="midnightblue" d="M1223.72,-123.484C1157.1,-115.355 1054.92,-102.318 957.262,-87.2214"/>
<polygon fill="midnightblue" stroke="midnightblue" points="957.637,-83.7377 947.217,-85.6588 956.561,-90.6545 957.637,-83.7377"/>
</g>
<!-- Node21 -->
<g id="node21" class="node"><title>Node21</title>
<polygon fill="none" stroke="#bfbfbf" points="1190.5,-6 1190.5,-25 1246.5,-25 1246.5,-6 1190.5,-6"/>
<text text-anchor="middle" x="1218.5" y="-13" font-family="Helvetica,sans-Serif" font-size="10.00">Rtypes.h</text>
</g>
<!-- Node19&#45;&gt;Node21 -->
<g id="edge25" class="edge"><title>Node19&#45;&gt;Node21</title>
<path fill="none" stroke="midnightblue" d="M1299.47,-123.353C1304.84,-110.248 1312.67,-84.9801 1302.5,-67 1292.46,-49.2547 1273.42,-37.0581 1256,-29.1033"/>
<polygon fill="midnightblue" stroke="midnightblue" points="1257.13,-25.7816 1246.56,-25.1121 1254.41,-32.2293 1257.13,-25.7816"/>
</g>
<!-- Node19&#45;&gt;Node22 -->
<g id="edge26" class="edge"><title>Node19&#45;&gt;Node22</title>
<path fill="none" stroke="midnightblue" d="M1283.13,-123.324C1271.34,-115.058 1253.37,-102.453 1239.36,-92.6322"/>
<polygon fill="midnightblue" stroke="midnightblue" points="1241.04,-89.5307 1230.84,-86.6545 1237.02,-95.2619 1241.04,-89.5307"/>
</g>
<!-- Node25 -->
<g id="node25" class="node"><title>Node25</title>
<g id="a_node25"><a xlink:href="Quality_8h.html" target="_top" xlink:title="QualityControl/Quality.h">
<polygon fill="none" stroke="black" points="965,-67.5 965,-86.5 1086,-86.5 1086,-67.5 965,-67.5"/>
<text text-anchor="middle" x="1025.5" y="-74.5" font-family="Helvetica,sans-Serif" font-size="10.00">QualityControl/Quality.h</text>
</a>
</g>
</g>
<!-- Node19&#45;&gt;Node25 -->
<g id="edge32" class="edge"><title>Node19&#45;&gt;Node25</title>
<path fill="none" stroke="midnightblue" d="M1252.72,-123.444C1205.32,-113.964 1128.87,-98.6747 1077.92,-88.4835"/>
<polygon fill="midnightblue" stroke="midnightblue" points="1078.57,-85.0456 1068.08,-86.5164 1077.2,-91.9097 1078.57,-85.0456"/>
</g>
<!-- Node22&#45;&gt;Node4 -->
<g id="edge27" class="edge"><title>Node22&#45;&gt;Node4</title>
<path fill="none" stroke="midnightblue" d="M1142.9,-68.2522C1059.86,-59.6325 922.597,-45.0614 804.5,-31 776.936,-27.718 745.604,-23.6313 723.103,-20.6338"/>
<polygon fill="midnightblue" stroke="midnightblue" points="723.503,-17.1561 713.127,-19.2991 722.574,-24.0943 723.503,-17.1561"/>
</g>
<!-- Node22&#45;&gt;Node12 -->
<g id="edge28" class="edge"><title>Node22&#45;&gt;Node12</title>
<path fill="none" stroke="midnightblue" d="M1238.85,-67.4751C1263.71,-57.0579 1305.86,-39.3959 1333.44,-27.84"/>
<polygon fill="midnightblue" stroke="midnightblue" points="1335.01,-30.9763 1342.88,-23.8836 1332.3,-24.5202 1335.01,-30.9763"/>
</g>
<!-- Node22&#45;&gt;Node21 -->
<g id="edge29" class="edge"><title>Node22&#45;&gt;Node21</title>
<path fill="none" stroke="midnightblue" d="M1218.5,-67.4751C1218.5,-59.0803 1218.5,-45.9806 1218.5,-35.1631"/>
<polygon fill="midnightblue" stroke="midnightblue" points="1222,-35.0091 1218.5,-25.0091 1215,-35.0091 1222,-35.0091"/>
</g>
<!-- Node23 -->
<g id="node23" class="node"><title>Node23</title>
<polygon fill="none" stroke="#bfbfbf" points="814,-6 814,-25 873,-25 873,-6 814,-6"/>
<text text-anchor="middle" x="843.5" y="-13" font-family="Helvetica,sans-Serif" font-size="10.00">TObject.h</text>
</g>
<!-- Node22&#45;&gt;Node23 -->
<g id="edge30" class="edge"><title>Node22&#45;&gt;Node23</title>
<path fill="none" stroke="midnightblue" d="M1164.77,-67.4751C1088.65,-55.3965 951.134,-33.5779 883.402,-22.8311"/>
<polygon fill="midnightblue" stroke="midnightblue" points="883.576,-19.315 873.151,-21.2046 882.479,-26.2285 883.576,-19.315"/>
</g>
<!-- Node24 -->
<g id="node24" class="node"><title>Node24</title>
<polygon fill="none" stroke="#bfbfbf" points="153.5,-6 153.5,-25 269.5,-25 269.5,-6 153.5,-6"/>
<text text-anchor="middle" x="211.5" y="-13" font-family="Helvetica,sans-Serif" font-size="10.00">Common/Exceptions.h</text>
</g>
<!-- Node22&#45;&gt;Node24 -->
<g id="edge31" class="edge"><title>Node22&#45;&gt;Node24</title>
<path fill="none" stroke="midnightblue" d="M1142.77,-70.3184C1126.83,-69.1743 1110.12,-68.0132 1094.5,-67 790.927,-47.3035 428.372,-27.8475 279.947,-20.0566"/>
<polygon fill="midnightblue" stroke="midnightblue" points="279.804,-16.5443 269.634,-19.5159 279.437,-23.5347 279.804,-16.5443"/>
</g>
<!-- Node25&#45;&gt;Node4 -->
<g id="edge34" class="edge"><title>Node25&#45;&gt;Node4</title>
<path fill="none" stroke="midnightblue" d="M977.789,-67.4751C908.376,-55.0724 781.487,-32.4001 723.228,-21.9904"/>
<polygon fill="midnightblue" stroke="midnightblue" points="723.637,-18.5082 713.177,-20.1946 722.406,-25.399 723.637,-18.5082"/>
</g>
<!-- Node25&#45;&gt;Node21 -->
<g id="edge33" class="edge"><title>Node25&#45;&gt;Node21</title>
<path fill="none" stroke="midnightblue" d="M1053.15,-67.4751C1086.69,-57.1362 1143.37,-39.6611 1180.87,-28.1017"/>
<polygon fill="midnightblue" stroke="midnightblue" points="1182.37,-31.2999 1190.9,-25.0091 1180.31,-24.6106 1182.37,-31.2999"/>
</g>
<!-- Node26&#45;&gt;Node3 -->
<g id="edge38" class="edge"><title>Node26&#45;&gt;Node3</title>
<path fill="none" stroke="midnightblue" d="M700.263,-184.975C657.493,-173.665 582.429,-153.814 539.685,-142.511"/>
<polygon fill="midnightblue" stroke="midnightblue" points="540.37,-139.072 529.807,-139.899 538.58,-145.839 540.37,-139.072"/>
</g>
<!-- Node26&#45;&gt;Node4 -->
<g id="edge36" class="edge"><title>Node26&#45;&gt;Node4</title>
<path fill="none" stroke="midnightblue" d="M647.44,-185.874C620.009,-178.906 592.364,-166.139 575.5,-143 542.67,-97.9535 619.612,-51.4664 663.924,-29.4994"/>
<polygon fill="midnightblue" stroke="midnightblue" points="665.612,-32.571 673.095,-25.0703 662.568,-26.2676 665.612,-32.571"/>
</g>
<!-- Node26&#45;&gt;Node11 -->
<g id="edge37" class="edge"><title>Node26&#45;&gt;Node11</title>
<path fill="none" stroke="midnightblue" d="M744.392,-184.975C757.705,-175.431 779.5,-159.807 795.457,-148.368"/>
<polygon fill="midnightblue" stroke="midnightblue" points="797.542,-151.18 803.63,-142.509 793.464,-145.491 797.542,-151.18"/>
</g>
<!-- Node26&#45;&gt;Node20 -->
<g id="edge39" class="edge"><title>Node26&#45;&gt;Node20</title>
<path fill="none" stroke="midnightblue" d="M736.204,-184.829C742.924,-170.08 758.497,-140.052 780.5,-123 801.891,-106.422 829.933,-95.5877 854.035,-88.7142"/>
<polygon fill="midnightblue" stroke="midnightblue" points="855.002,-92.0784 863.745,-86.094 853.178,-85.3201 855.002,-92.0784"/>
</g>
<!-- Node26&#45;&gt;Node22 -->
<g id="edge46" class="edge"><title>Node26&#45;&gt;Node22</title>
<path fill="none" stroke="midnightblue" d="M793.72,-184.987C851.376,-176.402 939.935,-161.751 1015.5,-143 1076.59,-127.841 1146.11,-104.133 1185.9,-89.9268"/>
<polygon fill="midnightblue" stroke="midnightblue" points="1187.12,-93.2064 1195.35,-86.5309 1184.75,-86.6188 1187.12,-93.2064"/>
</g>
<!-- Node27 -->
<g id="node27" class="node"><title>Node27</title>
<g id="a_node27"><a xlink:href="QualityObject_8h_source.html" target="_top" xlink:title="QualityControl/QualityObject.h">
<polygon fill="none" stroke="black" points="585,-123.5 585,-142.5 734,-142.5 734,-123.5 585,-123.5"/>
<text text-anchor="middle" x="659.5" y="-130.5" font-family="Helvetica,sans-Serif" font-size="10.00">QualityControl/QualityObject.h</text>
</a>
</g>
</g>
<!-- Node26&#45;&gt;Node27 -->
<g id="edge40" class="edge"><title>Node26&#45;&gt;Node27</title>
<path fill="none" stroke="midnightblue" d="M722.041,-184.975C710.549,-175.608 691.87,-160.384 677.913,-149.008"/>
<polygon fill="midnightblue" stroke="midnightblue" points="679.902,-146.114 669.94,-142.509 675.48,-151.54 679.902,-146.114"/>
</g>
<!-- Node27&#45;&gt;Node12 -->
<g id="edge42" class="edge"><title>Node27&#45;&gt;Node12</title>
<path fill="none" stroke="midnightblue" d="M679.844,-123.464C714.841,-109.18 789,-80.6628 854.5,-67 1029.67,-30.4613 1077.71,-51.2449 1255.5,-31 1281.78,-28.0078 1311.64,-23.8052 1332.79,-20.6944"/>
<polygon fill="midnightblue" stroke="midnightblue" points="1333.32,-24.1537 1342.7,-19.2223 1332.29,-17.2297 1333.32,-24.1537"/>
</g>
<!-- Node27&#45;&gt;Node23 -->
<g id="edge43" class="edge"><title>Node27&#45;&gt;Node23</title>
<path fill="none" stroke="midnightblue" d="M673.33,-123.319C704.898,-103.503 782.504,-54.7885 821.039,-30.5993"/>
<polygon fill="midnightblue" stroke="midnightblue" points="822.901,-33.563 829.51,-25.282 819.179,-27.6342 822.901,-33.563"/>
</g>
<!-- Node27&#45;&gt;Node24 -->
<g id="edge44" class="edge"><title>Node27&#45;&gt;Node24</title>
<path fill="none" stroke="midnightblue" d="M626.193,-123.413C546.235,-102.799 343.481,-50.5264 254.49,-27.5834"/>
<polygon fill="midnightblue" stroke="midnightblue" points="255.279,-24.1723 244.722,-25.065 253.531,-30.9507 255.279,-24.1723"/>
</g>
<!-- Node27&#45;&gt;Node25 -->
<g id="edge45" class="edge"><title>Node27&#45;&gt;Node25</title>
<path fill="none" stroke="midnightblue" d="M717.494,-123.444C782.814,-113.806 888.837,-98.1635 957.87,-87.9782"/>
<polygon fill="midnightblue" stroke="midnightblue" points="958.396,-91.4386 967.778,-86.5164 957.374,-84.5136 958.396,-91.4386"/>
</g>
<!-- Node28 -->
<g id="node28" class="node"><title>Node28</title>
<polygon fill="none" stroke="#bfbfbf" points="632.5,-67.5 632.5,-86.5 686.5,-86.5 686.5,-67.5 632.5,-67.5"/>
<text text-anchor="middle" x="659.5" y="-74.5" font-family="Helvetica,sans-Serif" font-size="10.00">iostream</text>
</g>
<!-- Node27&#45;&gt;Node28 -->
<g id="edge41" class="edge"><title>Node27&#45;&gt;Node28</title>
<path fill="none" stroke="midnightblue" d="M659.5,-123.083C659.5,-116.006 659.5,-105.861 659.5,-96.9865"/>
<polygon fill="midnightblue" stroke="midnightblue" points="663,-96.751 659.5,-86.7511 656,-96.7511 663,-96.751"/>
</g>
<!-- Node30 -->
<g id="node30" class="node"><title>Node30</title>
<polygon fill="none" stroke="#bfbfbf" points="1664.5,-67.5 1664.5,-86.5 1794.5,-86.5 1794.5,-67.5 1664.5,-67.5"/>
<text text-anchor="middle" x="1729.5" y="-74.5" font-family="Helvetica,sans-Serif" font-size="10.00">InfoLogger/InfoLogger.hxx</text>
</g>
<!-- Node29&#45;&gt;Node30 -->
<g id="edge49" class="edge"><title>Node29&#45;&gt;Node30</title>
<path fill="none" stroke="midnightblue" d="M1729.5,-123.083C1729.5,-116.006 1729.5,-105.861 1729.5,-96.9865"/>
<polygon fill="midnightblue" stroke="midnightblue" points="1733,-96.751 1729.5,-86.7511 1726,-96.7511 1733,-96.751"/>
</g>
<!-- Node31&#45;&gt;Node3 -->
<g id="edge53" class="edge"><title>Node31&#45;&gt;Node3</title>
<path fill="none" stroke="midnightblue" d="M873.818,-185.164C782.557,-172.418 611.417,-148.514 540.049,-138.546"/>
<polygon fill="midnightblue" stroke="midnightblue" points="540.259,-135.042 529.871,-137.125 539.291,-141.974 540.259,-135.042"/>
</g>
<!-- Node31&#45;&gt;Node6 -->
<g id="edge56" class="edge"><title>Node31&#45;&gt;Node6</title>
<path fill="none" stroke="midnightblue" d="M873.838,-185.06C858.429,-182.978 841.858,-180.824 826.5,-179 792.898,-175.01 597.322,-155.263 478.187,-143.293"/>
<polygon fill="midnightblue" stroke="midnightblue" points="478.271,-139.784 467.971,-142.267 477.571,-146.749 478.271,-139.784"/>
</g>
<!-- Node31&#45;&gt;Node11 -->
<g id="edge54" class="edge"><title>Node31&#45;&gt;Node11</title>
<path fill="none" stroke="midnightblue" d="M916.593,-184.975C896.966,-175.078 864.369,-158.642 841.51,-147.115"/>
<polygon fill="midnightblue" stroke="midnightblue" points="842.88,-143.886 832.375,-142.509 839.728,-150.137 842.88,-143.886"/>
</g>
<!-- Node31&#45;&gt;Node12 -->
<g id="edge52" class="edge"><title>Node31&#45;&gt;Node12</title>
<path fill="none" stroke="midnightblue" d="M993.212,-187.572C1118.6,-175.057 1398.11,-146.772 1401.5,-143 1430.05,-111.207 1395.89,-59.2662 1374.77,-32.927"/>
<polygon fill="midnightblue" stroke="midnightblue" points="1377.3,-30.4962 1368.22,-25.0421 1371.92,-34.9701 1377.3,-30.4962"/>
</g>
<!-- Node31&#45;&gt;Node19 -->
<g id="edge60" class="edge"><title>Node31&#45;&gt;Node19</title>
<path fill="none" stroke="midnightblue" d="M975.711,-184.938C986.091,-182.913 997.185,-180.816 1007.5,-179 1082.14,-165.861 1168.01,-152.695 1226.43,-144.029"/>
<polygon fill="midnightblue" stroke="midnightblue" points="1227.27,-147.444 1236.65,-142.518 1226.24,-140.519 1227.27,-147.444"/>
</g>
<!-- Node31&#45;&gt;Node20 -->
<g id="edge55" class="edge"><title>Node31&#45;&gt;Node20</title>
<path fill="none" stroke="midnightblue" d="M958.433,-184.985C988.77,-173.206 1033.81,-150.278 1015.5,-123 1007.33,-110.832 974.358,-98.3122 946.623,-89.5774"/>
<polygon fill="midnightblue" stroke="midnightblue" points="947.284,-86.1195 936.697,-86.5382 945.234,-92.8127 947.284,-86.1195"/>
</g>
<!-- Node31&#45;&gt;Node22 -->
<g id="edge59" class="edge"><title>Node31&#45;&gt;Node22</title>
<path fill="none" stroke="midnightblue" d="M993.048,-185.54C1009.99,-183.343 1028.46,-181.013 1045.5,-179 1120.29,-170.165 1332.15,-199.013 1382.5,-143 1411.6,-110.621 1357.82,-94.1589 1304.22,-85.9207"/>
<polygon fill="midnightblue" stroke="midnightblue" points="1304.64,-82.4441 1294.24,-84.4762 1303.63,-89.372 1304.64,-82.4441"/>
</g>
<!-- Node31&#45;&gt;Node25 -->
<g id="edge57" class="edge"><title>Node31&#45;&gt;Node25</title>
<path fill="none" stroke="midnightblue" d="M970.819,-184.884C992.899,-177.659 1019.1,-164.883 1032.5,-143 1041.1,-128.963 1037.71,-109.968 1033.15,-96.1391"/>
<polygon fill="midnightblue" stroke="midnightblue" points="1036.41,-94.8689 1029.62,-86.738 1029.86,-97.3302 1036.41,-94.8689"/>
</g>
<!-- Node31&#45;&gt;Node27 -->
<g id="edge58" class="edge"><title>Node31&#45;&gt;Node27</title>
<path fill="none" stroke="midnightblue" d="M894.242,-184.975C845.309,-174.349 761.662,-156.185 708.555,-144.652"/>
<polygon fill="midnightblue" stroke="midnightblue" points="709.2,-141.211 698.685,-142.509 707.714,-148.052 709.2,-141.211"/>
</g>
<!-- Node31&#45;&gt;Node29 -->
<g id="edge61" class="edge"><title>Node31&#45;&gt;Node29</title>
<path fill="none" stroke="midnightblue" d="M993.074,-187.127C1019.26,-184.433 1050.39,-181.376 1078.5,-179 1281.36,-161.85 1520.19,-146.604 1644.54,-139.039"/>
<polygon fill="midnightblue" stroke="midnightblue" points="1644.98,-142.519 1654.75,-138.42 1644.56,-135.532 1644.98,-142.519"/>
</g>
<!-- Node32 -->
<g id="node32" class="node"><title>Node32</title>
<polygon fill="none" stroke="#bfbfbf" points="1140,-123.5 1140,-142.5 1199,-142.5 1199,-123.5 1140,-123.5"/>
<text text-anchor="middle" x="1169.5" y="-130.5" font-family="Helvetica,sans-Serif" font-size="10.00">functional</text>
</g>
<!-- Node31&#45;&gt;Node32 -->
<g id="edge51" class="edge"><title>Node31&#45;&gt;Node32</title>
<path fill="none" stroke="midnightblue" d="M967.313,-184.975C1010.33,-174.131 1084.48,-155.436 1130.03,-143.951"/>
<polygon fill="midnightblue" stroke="midnightblue" points="1131.01,-147.314 1139.85,-141.475 1129.3,-140.526 1131.01,-147.314"/>
</g>
<!-- Node33 -->
<g id="node33" class="node"><title>Node33</title>
<g id="a_node33"><a xlink:href="CheckConfig_8h.html" target="_top" xlink:title="QualityControl/CheckConfig.h">
<polygon fill="none" stroke="black" points="860,-123.5 860,-142.5 1007,-142.5 1007,-123.5 860,-123.5"/>
<text text-anchor="middle" x="933.5" y="-130.5" font-family="Helvetica,sans-Serif" font-size="10.00">QualityControl/CheckConfig.h</text>
</a>
</g>
</g>
<!-- Node31&#45;&gt;Node33 -->
<g id="edge62" class="edge"><title>Node31&#45;&gt;Node33</title>
<path fill="none" stroke="midnightblue" d="M933.5,-184.975C933.5,-176.58 933.5,-163.481 933.5,-152.663"/>
<polygon fill="midnightblue" stroke="midnightblue" points="937,-152.509 933.5,-142.509 930,-152.509 937,-152.509"/>
</g>
<!-- Node33&#45;&gt;Node4 -->
<g id="edge63" class="edge"><title>Node33&#45;&gt;Node4</title>
<path fill="none" stroke="midnightblue" d="M915.386,-123.319C873.412,-103.203 769.3,-53.3068 719.662,-29.5176"/>
<polygon fill="midnightblue" stroke="midnightblue" points="721.026,-26.2901 710.496,-25.1245 718.001,-32.6026 721.026,-26.2901"/>
</g>
<!-- Node33&#45;&gt;Node20 -->
<g id="edge64" class="edge"><title>Node33&#45;&gt;Node20</title>
<path fill="none" stroke="midnightblue" d="M928.876,-123.083C925.044,-115.691 919.476,-104.953 914.735,-95.8111"/>
<polygon fill="midnightblue" stroke="midnightblue" points="917.748,-94.0175 910.038,-86.7511 911.534,-97.2398 917.748,-94.0175"/>
</g>
<!-- Node34&#45;&gt;Node4 -->
<g id="edge66" class="edge"><title>Node34&#45;&gt;Node4</title>
<path fill="none" stroke="midnightblue" d="M148.035,-69.3478C280.7,-56.4708 567.818,-28.6021 661.94,-19.4663"/>
<polygon fill="midnightblue" stroke="midnightblue" points="662.327,-22.9452 671.942,-18.4954 661.651,-15.978 662.327,-22.9452"/>
</g>
<!-- Node34&#45;&gt;Node24 -->
<g id="edge68" class="edge"><title>Node34&#45;&gt;Node24</title>
<path fill="none" stroke="midnightblue" d="M98.4124,-67.4751C120.663,-57.4455 157.812,-40.7002 183.426,-29.1546"/>
<polygon fill="midnightblue" stroke="midnightblue" points="184.944,-32.3094 192.623,-25.0091 182.068,-25.9277 184.944,-32.3094"/>
</g>
<!-- Node35 -->
<g id="node35" class="node"><title>Node35</title>
<polygon fill="none" stroke="#bfbfbf" points="0,-0.5 0,-30.5 135,-30.5 135,-0.5 0,-0.5"/>
<text text-anchor="start" x="8" y="-18.5" font-family="Helvetica,sans-Serif" font-size="10.00">Configuration/Configuration</text>
<text text-anchor="middle" x="67.5" y="-7.5" font-family="Helvetica,sans-Serif" font-size="10.00">Factory.h</text>
</g>
<!-- Node34&#45;&gt;Node35 -->
<g id="edge67" class="edge"><title>Node34&#45;&gt;Node35</title>
<path fill="none" stroke="midnightblue" d="M77.7807,-67.4751C76.3529,-60.3957 74.2503,-49.9705 72.3181,-40.3896"/>
<polygon fill="midnightblue" stroke="midnightblue" points="75.7362,-39.6336 70.3282,-30.523 68.8743,-41.0176 75.7362,-39.6336"/>
</g>
</g>
</svg>
